{
.appVersion = "3401";
.formatVersion = 3;
axes = (
{
name = Weight;
tag = wght;
}
);
classes = (
{
automatic = 1;
code = "A Aacute Abreve Acircumflex Adieresis Agrave Amacron Aogonek Aring Aringacute Atilde AE AEacute B C Cacute Ccaron Ccedilla Ccircumflex Cdotaccent D Dcaron Dcroat Eth E Eacute Ebreve Ecaron Ecircumflex Edieresis Edotaccent Egrave Emacron Eogonek Schwa F G Gbreve Gcaron Gcircumflex Gcommaaccent Gdotaccent H Hbar Hcircumflex I IJ Iacute Ibreve Icircumflex Idieresis Idotaccent Igrave Imacron Iogonek Itilde J Jacute Jcircumflex K Kcommaaccent L Lacute Lcaron Lcommaaccent Ldot Lslash M N Nacute Ncaron Ncommaaccent Ntilde Eng O Oacute Obreve Ocircumflex Odieresis Ograve Ohungarumlaut Omacron Oslash Oslashacute Otilde OE P Thorn Q R Racute Rcaron Rcommaaccent S Sacute Scaron Scedilla Scircumflex Scommaaccent Germandbls T Tbar Tcaron Tcedilla Tcommaaccent U Uacute Ubreve Ucircumflex Udieresis Ugrave Uhungarumlaut Umacron Uogonek Uring Utilde V W Wacute Wcircumflex Wdieresis Wgrave X Y Yacute Ycircumflex Ydieresis Ygrave Z Zacute Zcaron Zdotaccent Delta Omega";
name = Uppercase;
}
);
customParameters = (
{
name = "Use Typo Metrics";
value = 1;
}
);
date = "2021-06-03 13:53:52 +0000";
familyName = Savate;
featurePrefixes = (
{
code = "languagesystem DFLT dflt;
languagesystem latn dflt;";
name = Languagesystems;
}
);
features = (
{
automatic = 1;
code = "feature locl;
feature ordn;
feature case;
";
tag = aalt;
},
{
automatic = 1;
code = "lookup ccmp_Other_1 {
	lookupflag 0;
	@Markscomb = [dieresiscomb dotaccentcomb gravecomb acutecomb hungarumlautcomb circumflexcomb caroncomb brevecomb ringcomb tildecomb macroncomb];
	@MarkscombCase = [dieresiscomb.case dotaccentcomb.case gravecomb.case acutecomb.case hungarumlautcomb.case circumflexcomb.case caroncomb.case brevecomb.case ringcomb.case tildecomb.case macroncomb.case];
	sub @Markscomb @Markscomb' by @MarkscombCase;
	sub @Uppercase @Markscomb' by @MarkscombCase;
} ccmp_Other_1;

lookup ccmp_Other_2 {

glyphs = (
{
glyphname = A;
lastChange = "2025-02-28 11:29:54 +0000";
layers = (
{
anchors = (
{
name = ogonek;
pos = (638,0);
},
{
name = top;
pos = (326,730);
}
);
layerId = "79167EE4-8C29-4BCE-A9E7-C1CFC4557E33";
shapes = (
{
closed = 1;
nodes = (
(50,0,l),
(342,686,l),
(326,695,l),
(621,0,l),
(656,0,l),
(346,730,l),
(311,730,l),
(0,0,l)
);
},
{
closed = 1;
nodes = (
(534,221,l),
(534,271,l),
(125,271,l),
(125,221,l)
);
}
);
width = 656;
},
{
anchors = (
{
name = ogonek;
pos = (691,0);
},
{
name = top;
pos = (372,730);
}
);
layerId = "41EDA971-A137-4972-81AF-7929AB7CAABF";
shapes = (
{
closed = 1;
nodes = (
(249,0,l),
(470,558,l),
(420,558,l),
(637,0,l),
(740,0,l),
(456,730,l),
(288,730,l),
(0,0,l)
);
},
{
closed = 1;
nodes = (
(581,165,l),
(581,261,l),
(286,261,l),
(286,165,l)
);
}
);
width = 740;
},
{
anchors = (
{
name = ogonek;
pos = (628,0);
},
{
name = top;
pos = (321,730);
}
);
associatedMasterId = "79167EE4-8C29-4BCE-A9E7-C1CFC4557E33";
layerId = "E7B2FFC8-519C-490A-B444-86EE51DA1E97";
name = "12 déc. 24 à 15:06";
shapes = (
{
closed = 1;
nodes = (
(52,0,l),
(340,682,l),
(318,699,l),
(613,0,l),
(648,0,l),
(340,730,l),
(308,730,l),
(0,0,l)
);
},
{
closed = 1;
nodes = (
(530,221,l),
(530,271,l),
(121,271,l),
(121,221,l)
);
}
);
width = 648;
},
{
anchors = (
{
name = ogonek;
pos = (638,0);
},
{
name = top;
pos = (326,730);
}
);
associatedMasterId = "79167EE4-8C29-4BCE-A9E7-C1CFC4557E33";
layerId = "B1D160DF-7442-4331-ACF2-B81935489346";
name = "16 déc. 24 à 12:18";
shapes = (
{
closed = 1;
nodes = (
(52,0,l),
(344,686,l),
(326,695,l),
(621,0,l),
(656,0,l),
(346,730,l),
(310,730,l),
(0,0,l)
);
},
{
closed = 1;
nodes = (
(534,221,l),
(534,271,l),
(125,271,l),
(125,221,l)
);
}
);
width = 656;
},
{
anchors = (
{
name = ogonek;
pos = (691,0);
},
{
name = top;
pos = (372,730);
}
);
associatedMasterId = "41EDA971-A137-4972-81AF-7929AB7CAABF";
layerId = "708F3327-D1DA-4BD8-95DD-E10DF84F0C01";
name = "16 déc. 24 à 12:23";
shapes = (
{
closed = 1;
nodes = (
(262,0,l),
(483,558,l),
(420,558,l),
(637,0,l),
(740,0,l),
(456,730,l),
(288,730,l),
(0,0,l)
);
},
{
closed = 1;
nodes = (
(581,165,l),
(581,261,l),
(286,261,l),
(286,165,l)
);
}
);
width = 740;
}
);
unicode = 65;
},
{
glyphname = AE;
lastChange = "2025-02-28 11:29:54 +0000";
layers = (
{
anchors = (
{
name = top;
pos = (676,730);
}
);
background = {
shapes = (
{
closed = 1;
nodes = (
(966,672,l),
(966,730,l),
(553,730,l),
(553,672,l)
);
},
{
closed = 1;
nodes = (
(559,0,l),
(559,730,l),
(527,730,l),
(527,0,l)
);
},
{
closed = 1;
nodes = (
(973,0,l),
(973,54,l),
(553,54,l),
(553,0,l)
);
},
{
closed = 1;
nodes = (
(886,313,l),
(886,363,l),
(550,363,l),
(550,313,l)
);
},
{
closed = 1;
nodes = (
(59,0,l),
(570,730,l),
(507,730,l),
(-5,0,l)
);
},
{
closed = 1;
nodes = (
(534,313,l),
(534,363,l),
(275,363,l),
(241,313,l)
);
}
);
};
layerId = "79167EE4-8C29-4BCE-A9E7-C1CFC4557E33";
shapes = (
{
closed = 1;
nodes = (
(966,672,l),
(966,730,l),
(553,730,l),
(553,672,l)
);
},
{
closed = 1;
nodes = (
(559,0,l),
(559,730,l),
(527,730,l),
(527,0,l)
);
},
{
closed = 1;
nodes = (
(59,0,l),
(570,730,l),
(512,730,l),
(0,0,l)
);
},
{
closed = 1;
nodes = (
(973,0,l),
(973,54,l),
(553,54,l),
(553,0,l)
);
},
{
closed = 1;
nodes = (
(886,313,l),
(886,363,l),
(550,363,l),
(550,313,l)
);
},
{
closed = 1;
nodes = (
(534,313,l),
(534,363,l),
(275,363,l),
(241,313,l)
);
}
);
width = 1025;
},
{
anchors = (
{
name = top;
pos = (710,730);
}
);
layerId = "41EDA971-A137-4972-81AF-7929AB7CAABF";
shapes = (
{
closed = 1;
nodes = (
(1073,450,l),
(1073,730,l),
(623,730,l),
(623,450,l)
);
},
{
closed = 1;
nodes = (
(681,0,l),
(681,730,l),
(585,730,l),
(585,0,l)
);
},
{
closed = 1;
nodes = (
(290,0,l),
(767,730,l),
(472,730,l),
(0,0,l)
);
},
{
closed = 1;
nodes = (
(1080,0,l),
(1080,208,l),
(623,208,l),
(623,0,l)
);
},
{
closed = 1;
nodes = (
(990,275,l),
(990,375,l),
(659,375,l),
(659,275,l)
);
},
{
closed = 1;
nodes = (
(600,189,l),
(600,289,l),
(364,289,l),
(364,189,l)
);
}
);
width = 1112;
},
{
anchors = (
{
name = top;
pos = (695,730);
}
);
associatedMasterId = "79167EE4-8C29-4BCE-A9E7-C1CFC4557E33";
attr = {
coordinates = (
550
);
};
background = {
shapes = (
{
closed = 1;
nodes = (
(1026,547,l),
(1026,730,l),
(592,730,l),
(592,547,l)
);
},
{
closed = 1;
nodes = (
(628,0,l),
(628,730,l),
(560,730,l),
(560,0,l)
);
},
{
closed = 1;
nodes = (
(189,0,l),
(681,730,l),
(490,730,l),
(0,0,l)
);
},
{
closed = 1;
nodes = (
(1033,0,l),
(1033,141,l),
(592,141,l),
(592,0,l)
);
},
{
closed = 1;
nodes = (
(945,292,l),
(945,370,l),
(611,370,l),
(611,292,l)
);
},
{
closed = 1;
nodes = (
(571,243,l),
(571,321,l),
(325,321,l),
(310,243,l)
);
}
);
};
layerId = "FBB7A49C-7C81-42C2-AD23-844AA45236F9";
name = "28 févr. 25 à 11:58";
shapes = (
{
closed = 1;
nodes = (
(1026,547,l),
(1026,730,l),
(592,730,l),
(592,547,l)
);
},
{
closed = 1;
nodes = (
(628,0,l),
(628,730,l),
(560,730,l),
(560,0,l)
);
},
{
closed = 1;
nodes = (
(189,0,l),
(681,730,l),
(490,730,l),
(0,0,l)
);
},
{
closed = 1;
nodes = (
(1033,0,l),
(1033,141,l),
(592,141,l),
(592,0,l)
);
},
{
closed = 1;
nodes = (
(945,260,l),
(945,346,l),
(611,346,l),
(611,260,l)
);
},
{
closed = 1;
nodes = (
(571,263,l),
(571,343,l),
(325,343,l),
(310,263,l)
);
}
);
width = 1074;
}
);
metricLeft = "=A";
metricRight = "=E";
unicode = 198;
},
{
glyphname = B;
lastChange = "2025-02-28 11:29:54 +0000";
layers = (
{
anchors = (
{
name = top;
pos = (325,730);
}
);
layerId = "79167EE4-8C29-4BCE-A9E7-C1CFC4557E33";
shapes = (
{
closed = 1;
nodes = (
(349,0,ls),
(504,0,o),
(577,67,o),
(577,190,cs),
(577,277,o),
(534,360,o),
(394,379,c),
(403,357,l),
(516,377,o),
(560,453,o),
(560,540,cs),
(560,663,o),
(490,730,o),
(337,730,cs),
(111,730,l),
(111,672,l),
(344,672,ls),
(475,672,o),
(528,618,o),
(528,530,cs),
(528,444,o),
(471,388,o),
(339,388,cs),
(118,388,l),
(118,338,l),
(356,338,ls),
(488,338,o),
(545,282,o),
(545,196,cs),
(545,110,o),
(488,54,o),
(357,54,cs),
(111,54,l),
(111,0,l)
);
},
{
closed = 1;
nodes = (
(129,0,l),
(129,730,l),
(97,730,l),
(97,0,l)
);
}
);
width = 634;
},
{
anchors = (
{
name = top;
pos = (329,730);
}
);
layerId = "41EDA971-A137-4972-81AF-7929AB7CAABF";
shapes = (
{
closed = 1;
nodes = (
(395,0,ls),
(562,0,o),
(623,75,o),
(623,181,cs),
(623,281,o),
(576,338,o),
(445,345,c),
(445,329,l),
(558,339,o),
(613,390,o),
(613,515,cs),
(613,653,o),
(532,730,o),
(365,730,cs),
(123,730,l),
(123,450,l),
(458,450,ls),
(490,450,o),
(503,437,o),
(503,418,cs),
(503,399,o),
(489,386,o),
(458,386,cs),
(138,386,l),
(138,286,l),
(461,286,ls),
(500,286,o),
(516,269,o),
(516,246,cs),
(516,223,o),
(500,208,o),
(461,208,cs),
(123,208,l),
(123,0,l)
);
},
{
closed = 1;
nodes = (
(166,0,l),
(166,730,l),
(70,730,l),
(70,0,l)
);
}
);
width = 645;
},
{
associatedMasterId = "79167EE4-8C29-4BCE-A9E7-C1CFC4557E33";
layerId = "0D689F6B-81CF-49F1-83C8-7EA6809856D0";
name = "12 déc. 24 à 14:59";
shapes = (
{
closed = 1;
nodes = (
(352,0,ls),
(507,0,o),
(580,67,o),
(580,190,cs),
(580,277,o),
(537,360,o),
(397,379,c),
(410,357,l),
(523,377,o),
(567,453,o),
(567,540,cs),
(567,663,o),
(494,730,o),
(339,730,cs),
(117,730,l),
(117,672,l),
(346,672,ls),
(478,672,o),
(535,616,o),
(535,530,cs),
(535,444,o),
(478,388,o),
(346,388,cs),
(124,388,l),
(124,338,l),
(359,338,ls),
(491,338,o),
(548,282,o),
(548,196,cs),
(548,110,o),
(491,54,o),
(360,54,cs),
(117,54,l),
(117,0,l)
);
},
{
closed = 1;
nodes = (
(135,0,l),
(135,730,l),
(103,730,l),
(103,0,l)
);
}
);
width = 640;
},
{
associatedMasterId = "41EDA971-A137-4972-81AF-7929AB7CAABF";
layerId = "9D0319E2-6293-426B-B604-EA76F9182E14";
name = "12 déc. 24 à 16:22";
shapes = (
{
closed = 1;
nodes = (
(387,0,ls),
(555,0,o),
(613,74,o),
(613,189,cs),
(613,288,o),
(577,338,o),
(439,341,c),
(439,329,l),
(559,341,o),
(603,389,o),
(603,507,cs),
(603,642,o),
(535,730,o),
(335,730,cs),
(123,730,l),
(123,450,l),
(449,450,ls),
(481,450,o),
(494,437,o),
(494,418,cs),
(494,399,o),
(481,386,o),
(449,386,cs),
(138,386,l),
(138,286,l),
(452,286,ls),
(491,286,o),
(506,269,o),
(506,246,cs),
(506,223,o),
(491,208,o),
(452,208,cs),
(123,208,l),
(123,0,l)
);
},
{
closed = 1;
nodes = (
(166,0,l),
(166,730,l),
(70,730,l),
(70,0,l)
);
}
);
width = 635;
},
{
anchors = (
{
name = top;
pos = (327,730);
}
);
associatedMasterId = "79167EE4-8C29-4BCE-A9E7-C1CFC4557E33";
attr = {
coordinates = (
550
);
};
background = {
shapes = (
{
closed = 1;
nodes = (
(375,0,ls),
(537,0,o),
(603,72,o),
(603,185,cs),
(603,279,o),
(557,348,o),
(423,360,c),
(427,341,l),
(540,356,o),
(590,418,o),
(590,526,cs),
(590,657,o),
(514,730,o),
(353,730,cs),
(118,730,l),
(118,547,l),
(408,547,ls),
(483,547,o),
(514,516,o),
(514,467,cs),
(514,419,o),
(481,387,o),
(406,387,cs),
(129,387,l),
(129,309,l),
(415,309,ls),
(495,309,o),
(529,275,o),
(529,224,cs),
(529,174,o),
(495,141,o),
(416,141,cs),
(118,141,l),
(118,0,l)
);
},
{
closed = 1;
nodes = (
(150,0,l),
(150,730,l),
(82,730,l),
(82,0,l)
);
}
);
};
layerId = "C9C10152-DC4C-4EA4-8C85-9E6A6603DA5B";
name = "28 févr. 25 à 11:57";
shapes = (
{
closed = 1;
nodes = (
(375,0,ls),
(537,0,o),
(603,72,o),
(603,185,cs),
(603,279,o),
(558,349,o),
(424,361,c),
(427,341,l),
(540,356,o),
(590,418,o),
(590,526,cs),
(590,657,o),
(514,730,o),
(353,730,cs),
(118,730,l),
(118,547,l),
(408,547,ls),
(483,547,o),
(514,517,o),
(514,469,cs),
(514,423,o),
(481,391,o),
(406,391,cs),
(129,391,l),
(129,305,l),
(423,305,ls),
(495,305,o),
(529,273,o),
(529,224,cs),
(529,174,o),
(495,141,o),
(416,141,cs),
(118,141,l),
(118,0,l)
);
},
{
closed = 1;
nodes = (
(150,0,l),
(150,730,l),
(82,730,l),
(82,0,l)
);
}
);
width = 640;
}
);
metricLeft = "=H";
unicode = 66;
},
{
glyphname = C;
lastChange = "2025-02-04 14:02:55 +0000";
layers = (
{
anchors = (
{
name = bottom;
pos = (374,0);
},
{
name = top;
pos = (383,730);
}
);
background = {
shapes = (
{
closed = 0;
nodes = (
(640,648,l),
(600,573,l)
);
},
{
closed = 0;
nodes = (
(612,576,l),
(561,641,l)
);
},
{
closed = 0;
nodes = (
(631,614,l),
(585,686,l)
);
},
{
closed = 0;
nodes = (
(602,152,l),
(640,81,l)
);
},
{
closed = 0;
nodes = (
(565,88,l),
(613,149,l)
);
},
{
closed = 0;
nodes = (
(588,45,l),
(631,113,l)
);
}
);
};
layerId = "79167EE4-8C29-4BCE-A9E7-C1CFC4557E33";
shapes = (
{
closed = 1;
nodes = (
(503,-8,o),
(586,45,o),
(624,107,c),
(605,142,l),
(563,88,o),
(475,49,o),
(384,50,cs),
(187,53,o),
(78,162,o),
(78,366,cs),
(78,564,o),
(193,676,o),
(384,676,cs),
(471,676,o),
(559,641,o),
(604,583,c),
(624,621,l),
(583,686,o),
(508,738,o),
(384,738,cs),
(182,738,o),
(46,608,o),
(46,361,cs),
(46,146,o),
(151,-8,o),
(383,-8,cs)
);
}
);
width = 654;
},
{
anchors = (
{
name = bottom;
pos = (348,0);
},
{
name = top;
pos = (362,730);
}
);
layerId = "41EDA971-A137-4972-81AF-7929AB7CAABF";
shapes = (
{
closed = 1;
nodes = (
(505,-15,o),
(593,34,o),
(640,110,c),
(594,265,l),
(532,223,o),
(464,203,o),
(361,203,cs),
(196,203,o),
(120,244,o),
(120,331,cs),
(120,413,o),
(193,456,o),
(365,456,cs),
(464,456,o),
(525,441,o),
(585,399,c),
(648,605,l),
(598,687,o),
(513,746,o),
(378,746,cs),
(181,746,o),
(32,633,o),
(32,353,cs),
(32,84,o),
(169,-15,o),
(362,-15,cs)
);
}
);
width = 658;
},
{
anchors = (
{
name = bottom;
pos = (334,0);
},
{
name = top;
pos = (349,730);
}
);
associatedMasterId = "41EDA971-A137-4972-81AF-7929AB7CAABF";
layerId = "1A09E8CE-BC81-4BE7-BFF9-F03E3D86045F";
name = "12 déc. 24 à 16:25";
shapes = (
{
closed = 1;
nodes = (
(485,-15,o),
(574,35,o),
(622,113,c),
(571,264,l),
(523,226,o),
(451,203,o),
(348,203,cs),
(187,203,o),
(116,244,o),
(116,331,cs),
(116,413,o),
(184,456,o),
(352,456,cs),
(460,456,o),
(523,435,o),
(571,397,c),
(622,611,l),
(579,689,o),
(494,746,o),
(365,746,cs),
(171,745,o),
(28,633,o),
(28,353,cs),
(28,84,o),
(161,-15,o),
(349,-15,cs)
);
}
);
width = 632;
},
{
anchors = (
{
name = bottom;
pos = (385,0);
},
{
name = top;
pos = (394,730);
}
);
associatedMasterId = "79167EE4-8C29-4BCE-A9E7-C1CFC4557E33";
layerId = "697A0E14-FFC2-47A9-9683-399D227ADBA7";
name = "13 déc. 24 à 14:21";
shapes = (
{
closed = 1;
nodes = (
(519,-8,o),
(601,48,o),
(634,107,c),
(621,144,l),
(575,87,o),
(484,48,o),
(395,50,cs),
(204,52,o),
(88,157,o),
(88,366,cs),
(88,564,o),
(203,676,o),
(395,676,cs),
(483,677,o),
(573,639,o),
(619,582,c),
(633,624,l),
(599,683,o),
(520,738,o),
(395,738,cs),
(192,738,o),
(56,608,o),
(56,361,cs),
(56,146,o),
(161,-8,o),
(394,-8,cs)
);
}
);
width = 675;
},
{
anchors = (
{
name = bottom;
pos = (334,0);
},
{
name = top;
pos = (349,730);
}
);
associatedMasterId = "41EDA971-A137-4972-81AF-7929AB7CAABF";
background = {
shapes = (
{
closed = 1;
nodes = (
(485,-15,o),
(574,35,o),
(622,113,c),
(571,264,l),
(523,226,o),
(451,203,o),
(348,203,cs),
(187,203,o),
(116,244,o),
(116,331,cs),
(116,413,o),
(184,456,o),
(352,456,cs),
(460,456,o),
(523,435,o),
(571,397,c),
(622,611,l),
(579,689,o),
(494,746,o),
(365,746,cs),
(171,745,o),
(28,633,o),
(28,353,cs),
(28,84,o),
(161,-15,o),
(349,-15,cs)
);
}
);
};
layerId = "C0F5F548-11A4-40C1-9BF0-E91E03B9498B";
name = "14 déc. 24 à 10:01";
shapes = (
{
closed = 1;
nodes = (
(490,-15,o),
(572,31,o),
(622,113,c),
(571,264,l),
(523,226,o),
(451,203,o),
(348,203,cs),
(187,203,o),
(116,244,o),
(116,331,cs),
(116,413,o),
(184,456,o),
(352,456,cs),
(460,456,o),
(523,435,o),
(571,397,c),
(622,611,l),
(579,689,o),
(494,746,o),
(365,746,cs),
(171,745,o),
(28,633,o),
(28,353,cs),
(28,84,o),
(161,-15,o),
(349,-15,cs)
);
}
);
width = 632;
},
{
anchors = (
{
name = bottom;
pos = (385,0);
},
{
name = top;
pos = (394,730);
}
);
associatedMasterId = "79167EE4-8C29-4BCE-A9E7-C1CFC4557E33";
background = {
shapes = (
{
closed = 0;
nodes = (
(650,648,l),
(610,573,l)
);
},
{
closed = 0;
nodes = (
(622,576,l),
(571,641,l)
);
},
{
closed = 0;
nodes = (
(641,614,l),
(595,686,l)
);
},
{
closed = 0;
nodes = (
(612,152,l),
(650,81,l)
);
},
{
closed = 0;
nodes = (
(575,88,l),
(623,149,l)
);
},
{
closed = 0;
nodes = (
(598,45,l),
(641,113,l)
);
}
);
};
layerId = "949490E8-6617-41D8-B70F-D8EE5FD19658";
name = "16 déc. 24 à 12:57";
shapes = (
{
closed = 1;
nodes = (
(515,-8,o),
(598,45,o),
(636,107,c),
(617,142,l),
(575,88,o),
(484,48,o),
(395,50,cs),
(204,52,o),
(88,157,o),
(88,366,cs),
(88,564,o),
(203,676,o),
(395,676,cs),
(483,677,o),
(571,641,o),
(616,583,c),
(636,621,l),
(595,686,o),
(520,738,o),
(395,738,cs),
(192,738,o),
(56,608,o),
(56,361,cs),
(56,146,o),
(161,-8,o),
(394,-8,cs)
);
}
);
width = 675;
},
{
anchors = (
{
name = bottom;
pos = (338,0);
},
{
name = top;
pos = (353,730);
}
);
associatedMasterId = "41EDA971-A137-4972-81AF-7929AB7CAABF";
background = {
shapes = (
{
closed = 0;
nodes = (
(627,97,l),
(575,277,l)
);
},
{
closed = 0;
nodes = (
(589,50,l),
(628,119,l)
);
},
{
closed = 0;
nodes = (
(543,241,l),
(588,272,l)
);
},
{
closed = 0;
nodes = (
(564,382,l),
(637,623,l)
);
},
{
closed = 0;
nodes = (
(583,390,l),
(521,432,l)
);
},
{
closed = 0;
nodes = (
(638,594,l),
(584,687,l)
);
}
);
};
layerId = "740874D6-B9B8-4E80-A1E4-CF8644D2C484";
name = "16 déc. 24 à 12:57";
shapes = (
{
closed = 1;
nodes = (
(494,-15,o),
(579,34,o),
(624,110,c),
(578,265,l),
(519,224,o),
(455,203,o),
(352,203,cs),
(191,203,o),
(120,244,o),
(120,331,cs),
(120,413,o),
(188,456,o),
(356,456,cs),
(456,456,o),
(512,440,o),
(569,399,c),
(632,605,l),
(584,687,o),
(502,746,o),
(369,746,cs),
(175,746,o),
(32,633,o),
(32,353,cs),
(32,84,o),
(165,-15,o),
(353,-15,cs)
);
}
);
width = 636;
}
);
metricLeft = "=O";
unicode = 67;
},
{
glyphname = D;
lastChange = "2024-12-16 12:01:59 +0000";
layers = (
{
anchors = (
{
name = bottom;
pos = (346,0);
},
{
name = top;
pos = (346,730);
}
);
background = {
anchors = (
{
name = top;
pos = (347,730);
}
);
};
layerId = "79167EE4-8C29-4BCE-A9E7-C1CFC4557E33";
shapes = (
{
closed = 1;
nodes = (
(316,0,ls),
(549,0,o),
(664,139,o),
(664,365,cs),
(664,601,o),
(567,730,o),
(316,730,cs),
(118,730,l),
(118,672,l),
(289,672,ls),
(536,672,o),
(632,577,o),
(632,363,cs),
(632,159,o),
(535,54,o),
(289,54,cs),
(126,54,l),
(126,0,l)
);
},
{
closed = 1;
nodes = (
(129,0,l),
(129,730,l),
(97,730,l),
(97,0,l)
);
}
);
width = 710;
},
{
anchors = (
{
name = bottom;
pos = (335,0);
},
{
name = top;
pos = (324,730);
}
);
background = {
anchors = (
{
name = top;
pos = (320,730);
}
);
};
layerId = "41EDA971-A137-4972-81AF-7929AB7CAABF";
shapes = (
{
closed = 1;
nodes = (
(353,0,ls),
(537,0,o),
(678,100,o),
(678,365,cs),
(678,631,o),
(537,730,o),
(353,730,cs),
(118,730,l),
(118,440,l),
(444,440,ls),
(551,440,o),
(595,406,o),
(595,332,cs),
(595,258,o),
(551,218,o),
(445,218,cs),
(106,218,l),
(106,0,l)
);
},
{
closed = 1;
nodes = (
(166,0,l),
(166,730,l),
(70,730,l),
(70,0,l)
);
}
);
width = 710;
},
{
anchors = (
{
name = bottom;
pos = (331,0);
},
{
name = top;
pos = (320,730);
}
);
associatedMasterId = "41EDA971-A137-4972-81AF-7929AB7CAABF";
background = {
anchors = (
{
name = top;
pos = (320,730);
}
);
};
layerId = "2F7315AF-7047-4150-BB22-DFCB40DDAB35";
name = "16 déc. 24 à 13:01";
shapes = (
{
closed = 1;
nodes = (
(349,0,ls),
(529,0,o),
(668,100,o),
(668,365,cs),
(668,631,o),
(529,730,o),
(349,730,cs),
(118,730,l),
(118,440,l),
(441,440,ls),
(544,440,o),
(585,406,o),
(585,332,cs),
(585,258,o),
(544,218,o),
(442,218,cs),
(106,218,l),
(106,0,l)
);
},
{
closed = 1;
nodes = (
(166,0,l),
(166,730,l),
(70,730,l),
(70,0,l)
);
}
);
width = 700;
}
);
metricLeft = "=H";
metricRight = "=O";
unicode = 68;
},
{
glyphname = Eth;
lastChange = "2025-02-28 11:29:54 +0000";
layers = (
{
layerId = "79167EE4-8C29-4BCE-A9E7-C1CFC4557E33";
shapes = (
{
closed = 1;
nodes = (
(419,339,l),
(419,385,l),
(68,385,l),
(68,339,l)
);
},
{
alignment = -1;
pos = (38,0);
ref = D;
}
);
width = 748;
},
{
layerId = "41EDA971-A137-4972-81AF-7929AB7CAABF";
shapes = (
{
closed = 1;
nodes = (
(399,284,l),
(399,384,l),
(13,384,l),
(13,284,l)
);
},
{
alignment = -1;
pos = (22,0);
ref = D;
}
);
width = 732;
},
{
associatedMasterId = "41EDA971-A137-4972-81AF-7929AB7CAABF";
layerId = "6245DDDC-0E6D-4BF3-ADE3-406C361624D3";
name = "15 déc. 24 à 14:24";
shapes = (
{
closed = 1;
nodes = (
(399,264,l),
(399,396,l),
(13,396,l),
(13,264,l)
);
},
{
alignment = -1;
pos = (22,0);
ref = D;
}
);
width = 678;
},
{
associatedMasterId = "79167EE4-8C29-4BCE-A9E7-C1CFC4557E33";
attr = {
coordinates = (
550
);
};
layerId = "FD468B8D-0AEF-4019-97E6-E36D590009A1";
name = "28 févr. 25 à 11:56";
shapes = (
{
closed = 1;
nodes = (
(408,303,l),
(408,389,l),
(37,389,l),
(37,303,l)
);
},
{
alignment = -1;
pos = (29,0);
ref = D;
}
);
width = 739;
}
);
metricRight = "=D";
unicode = 208;
},
{
glyphname = E;
lastChange = "2025-02-28 11:29:54 +0000";
layers = (
{
anchors = (
{
name = bottom;
pos = (323,0);
},
{
name = ogonek;
pos = (494,0);
},
{
name = top;
pos = (323,730);
}
);
layerId = "79167EE4-8C29-4BCE-A9E7-C1CFC4557E33";
shapes = (
{
closed = 1;
nodes = (
(536,672,l),
(536,730,l),
(123,730,l),
(123,672,l)
);
},
{
closed = 1;
nodes = (
(129,0,l),
(129,730,l),
(97,730,l),
(97,0,l)
);
},
{
closed = 1;
nodes = (
(543,0,l),
(543,54,l),
(123,54,l),
(123,0,l)
);
},
{
closed = 1;
nodes = (
(456,345,l),
(456,395,l),
(125,395,l),
(125,345,l)
);
}
);
width = 595;
},
{
anchors = (
{
name = bottom;
pos = (335,0);
},
{
name = ogonek;
pos = (494,0);
},
{
name = top;
pos = (335,730);
}
);
layerId = "41EDA971-A137-4972-81AF-7929AB7CAABF";
shapes = (
{
closed = 1;
nodes = (
(561,450,l),
(561,730,l),
(108,730,l),
(108,450,l)
);
},
{
closed = 1;
nodes = (
(166,0,l),
(166,730,l),
(70,730,l),
(70,0,l)
);
},
{
closed = 1;
nodes = (
(566,0,l),
(566,208,l),
(108,208,l),
(108,0,l)
);
},
{
closed = 1;
nodes = (
(477,286,l),
(477,386,l),
(146,386,l),
(146,286,l)
);
}
);
width = 598;
},
{
anchors = (
{
name = bottom;
pos = (330,0);
},
{
name = ogonek;
pos = (494,0);
},
{
name = top;
pos = (330,730);
}
);
associatedMasterId = "79167EE4-8C29-4BCE-A9E7-C1CFC4557E33";
attr = {
coordinates = (
550
);
};
background = {
shapes = (
{
closed = 1;
nodes = (
(550,547,l),
(550,730,l),
(115,730,l),
(115,547,l)
);
},
{
closed = 1;
nodes = (
(150,0,l),
(150,730,l),
(82,730,l),
(82,0,l)
);
},
{
closed = 1;
nodes = (
(556,0,l),
(556,141,l),
(115,141,l),
(115,0,l)
);
},
{
closed = 1;
nodes = (
(468,312,l),
(468,390,l),
(137,390,l),
(137,312,l)
);
}
);
};
layerId = "A65AD0D8-7D9C-4E6B-BB29-2E23A8A236DA";
name = "28 févr. 25 à 11:55";
shapes = (
{
closed = 1;
nodes = (
(550,547,l),
(550,730,l),
(115,730,l),
(115,547,l)
);
},
{
closed = 1;
nodes = (
(150,0,l),
(150,730,l),
(82,730,l),
(82,0,l)
);
},
{
closed = 1;
nodes = (
(556,0,l),
(556,141,l),
(115,141,l),
(115,0,l)
);
},
{
closed = 1;
nodes = (
(468,307,l),
(468,393,l),
(137,393,l),
(137,307,l)
);
}
);
width = 597;
}
);
metricLeft = "=H";
unicode = 69;
},
{
color = 3;
glyphname = Eogonek;
lastChange = "2025-02-27 15:31:03 +0000";
layers = (
{
layerId = "79167EE4-8C29-4BCE-A9E7-C1CFC4557E33";
shapes = (
{
ref = E;
},
{
closed = 1;
nodes = (
(511,-203,o),
(543,-185,o),
(557,-160,c),
(549,-125,l),
(531,-140,o),
(506,-150,o),
(472,-150,cs),
(436,-150,o),
(416,-135,o),
(416,-105,cs),
(416,-75,o),
(438,-30,o),
(549,0,c),
(524,13,l),
(413,-15,o),
(377,-73,o),
(377,-125,cs),
(377,-177,o),
(411,-203,o),
(466,-203,cs)
);
}
);
width = 601;
},
{
background = {
shapes = (
{
closed = 1;
nodes = (
(516,-212,o),
(567,-183,o),
(585,-148,c),
(556,-63,l),
(530,-79,o),
(504,-87,o),
(484,-87,cs),
(456,-87,o),
(447,-79,o),
(447,-66,cs),
(447,-51,o),
(462,-29,o),
(543,0,c),
(480,25,l),
(376,-16,o),
(339,-56,o),
(339,-114,cs),
(339,-176,o),
(384,-212,o),
(458,-212,cs)
);
}
);
};
layerId = "41EDA971-A137-4972-81AF-7929AB7CAABF";
shapes = (
{
ref = E;
},
{
closed = 1;
nodes = (
(516,-212,o),
(567,-183,o),
(585,-148,c),
(556,-63,l),
(530,-79,o),
(504,-87,o),
(484,-87,cs),
(456,-87,o),
(447,-79,o),
(447,-66,cs),
(447,-51,o),
(462,-19,o),
(566,0,c),
(503,25,l),
(380,-6,o),
(339,-60,o),
(339,-118,cs),
(339,-177,o),
(384,-212,o),
(458,-212,cs)
);
}
);
width = 598;
}
);
unicode = 280;
},
{
glyphname = Schwa;
lastChange = "2025-02-28 11:29:54 +0000";
layers = (
{
background = {
shapes = (
{
closed = 0;
nodes = (
(125,570,l),
(87,641,l)
);
},
{
closed = 0;
nodes = (
(162,634,l),
(114,573,l)
);
},
{
closed = 0;
nodes = (
(139,677,l),
(96,609,l)
);
},
{
closed = 1;
nodes = (
(222,738,o),
(139,677,o),
(100,616,c),
(119,580,l),
(162,634,o),
(257,678,o),
(362,676,cs),
(554,673,o),
(650,583,o),
(650,365,cs),
(650,348,ls),
(650,164,o),
(532,50,o),
(367,50,cs),
(184,50,o),
(104,161,o),
(99,351,c),
(82,319,l),
(658,319,l),
(658,369,l),
(69,369,l),
(63,108,o),
(187,-8,o),
(360,-8,cs),
(551,-8,o),
(682,118,o),
(682,369,cs),
(682,612,o),
(563,738,o),
(372,738,cs)
);
}
);
};
layerId = "79167EE4-8C29-4BCE-A9E7-C1CFC4557E33";
shapes = (
{
closed = 1;
nodes = (
(222,738,o),
(139,677,o),
(100,616,c),
(119,580,l),
(162,634,o),
(257,678,o),
(362,676,cs),
(554,673,o),
(650,583,o),
(650,365,cs),
(650,348,ls),
(650,164,o),
(532,50,o),
(367,50,cs),
(212,50,o),
(105,129,o),
(99,351,c),
(82,319,l),
(658,319,l),
(658,369,l),
(69,369,l),
(63,108,o),
(187,-8,o),
(360,-8,cs),
(551,-8,o),
(682,118,o),
(682,369,cs),
(682,612,o),
(563,738,o),
(372,738,cs)
);
}
);
userData = {
RMXScaler = {
height = 133;
weight = -38;
width = 133;
};
};
width = 728;
},
{
layerId = "41EDA971-A137-4972-81AF-7929AB7CAABF";
shapes = (
{
closed = 1;
nodes = (
(217,746,o),
(118,705,o),
(66,616,c),
(116,408,l),
(164,448,o),
(241,472,o),
(349,472,cs),
(509,472,o),
(579,427,o),
(579,348,cs),
(579,309,ls),
(579,241,o),
(524,202,o),
(341,202,cs),
(179,202,o),
(136,239,o),
(135,305,c),
(98,279,l),
(594,279,l),
(594,379,l),
(48,379,l),
(32,103,o),
(137,-16,o),
(348,-16,cs),
(558,-16,o),
(664,120,o),
(664,369,cs),
(664,637,o),
(537,746,o),
(343,746,cs)
);
}
);
userData = {
RMXScaler = {
height = 130;
weight = 130;
width = 130;
};
};
width = 678;
},
{
associatedMasterId = "79167EE4-8C29-4BCE-A9E7-C1CFC4557E33";
layerId = "0484CAC9-D2C6-4D59-BEEA-38FE17EAC18C";
name = "13 déc. 24 à 14:40";
shapes = (
{
closed = 1;
nodes = (
(232,738,o),
(140,682,o),
(103,619,c),
(116,578,l),
(172,643,o),
(268,678,o),
(362,676,cs),
(544,673,o),
(650,573,o),
(650,365,cs),
(650,348,ls),
(650,164,o),
(534,50,o),
(359,50,cs),
(186,50,o),
(104,161,o),
(99,351,c),
(82,319,l),
(658,319,l),
(658,369,l),
(69,369,l),
(63,108,o),
(187,-8,o),
(360,-8,cs),
(551,-8,o),
(682,118,o),
(682,369,cs),
(682,612,o),
(553,738,o),
(372,738,cs)
);
}
);
userData = {
RMXScaler = {
height = 133;
weight = -38;
width = 133;
};
};
width = 728;
},
{
associatedMasterId = "79167EE4-8C29-4BCE-A9E7-C1CFC4557E33";
attr = {
coordinates = (
550
);
};
background = {
shapes = (
{
closed = 1;
nodes = (
(219,743,o),
(127,692,o),
(81,616,c),
(117,483,l),
(163,529,o),
(247,562,o),
(355,561,cs),
(528,560,o),
(610,495,o),
(610,355,cs),
(610,326,ls),
(610,207,o),
(528,136,o),
(352,136,cs),
(193,136,o),
(122,192,o),
(119,325,c),
(91,297,l),
(622,297,l),
(622,375,l),
(57,375,l),
(46,106,o),
(159,-12,o),
(353,-12,cs),
(555,-12,o),
(672,119,o),
(672,369,cs),
(672,626,o),
(548,743,o),
(356,743,cs)
);
}
);
};
layerId = "D81601B8-2832-46D8-B1C9-0AAF91FEFF4B";
name = "28 févr. 25 à 12:07";
shapes = (
{
closed = 1;
nodes = (
(219,743,o),
(127,692,o),
(81,616,c),
(117,483,l),
(163,529,o),
(247,562,o),
(355,561,cs),
(528,560,o),
(610,495,o),
(610,355,cs),
(610,326,ls),
(610,207,o),
(528,136,o),
(352,136,cs),
(193,136,o),
(122,192,o),
(119,325,c),
(91,293,l),
(622,293,l),
(622,379,l),
(57,379,l),
(46,106,o),
(159,-12,o),
(353,-12,cs),
(555,-12,o),
(672,119,o),
(672,369,cs),
(672,626,o),
(548,743,o),
(356,743,cs)
);
}
);
userData = {
RMXScaler = {
height = 133;
weight = -38;
width = 133;
};
};
width = 700;
}
);
unicode = 399;
userData = {
RMXScaler = {
source = e;
};
};
},
{
glyphname = F;
lastChange = "2024-12-16 16:37:38 +0000";
layers = (
{
anchors = (
{
name = top;
pos = (317,730);
}
);
layerId = "79167EE4-8C29-4BCE-A9E7-C1CFC4557E33";
shapes = (
{
closed = 1;
nodes = (
(536,672,l),
(536,730,l),
(97,730,l),
(97,672,l)
);
},
{
closed = 1;
nodes = (
(129,0,l),
(129,730,l),
(97,730,l),
(97,0,l)
);
},
{
closed = 1;
nodes = (
(456,345,l),
(456,395,l),
(123,395,l),
(123,345,l)
);
}
);
width = 551;
},
{
anchors = (
{
name = top;
pos = (319,730);
}
);
associatedMasterId = "41EDA971-A137-4972-81AF-7929AB7CAABF";
layerId = "949D69AF-422A-4020-AFAE-38E0CE880F74";
name = "16 déc. 24 à 17:37";
shapes = (
{
closed = 1;
nodes = (
(568,450,l),
(568,730,l),
(70,730,l),
(70,450,l)
);
},
{
closed = 1;
nodes = (
(166,0,l),
(166,730,l),
(70,730,l),
(70,0,l)
);
},
{
closed = 1;
nodes = (
(477,256,l),
(477,356,l),
(146,356,l),
(146,256,l)
);
}
);
width = 588;
},
{
anchors = (
{
name = top;
pos = (319,730);
}
);
layerId = "41EDA971-A137-4972-81AF-7929AB7CAABF";
name = Black;
shapes = (
{
closed = 1;
nodes = (
(568,450,l),
(568,730,l),
(70,730,l),
(70,450,l)
);
},
{
closed = 1;
nodes = (
(166,0,l),
(166,730,l),
(70,730,l),
(70,0,l)
);
},
{
closed = 1;
nodes = (
(490,178,l),
(490,386,l),
(146,386,l),
(146,178,l)
);
}
);
width = 588;
}
);
metricLeft = "=H";
unicode = 70;
},
{
glyphname = G;
lastChange = "2025-02-28 11:29:54 +0000";
layers = (
{
anchors = (
{
name = bottom;
pos = (394,0);
},
{
name = top;
pos = (392,730);
}
);
layerId = "79167EE4-8C29-4BCE-A9E7-C1CFC4557E33";
shapes = (
{
closed = 1;
nodes = (
(499,-8,o),
(590,42,o),
(612,139,c),
(606,151,l),
(606,0,l),
(638,0,l),
(638,358,l),
(393,358,l),
(393,308,l),
(632,308,l),
(606,333,l),
(606,254,ls),
(606,118,o),
(513,49,o),
(380,50,cs),
(201,51,o),
(78,154,o),
(78,366,cs),
(78,564,o),
(191,674,o),
(390,676,cs),
(483,677,o),
(571,641,o),
(616,583,c),
(636,621,l),
(595,686,o),
(522,738,o),
(390,738,cs),
(180,738,o),
(46,608,o),
(46,361,cs),
(46,132,o),
(167,-8,o),
(372,-8,cs)
);
}
);
width = 700;
},
{
anchors = (
{
name = bottom;
pos = (393,0);
},
{
name = top;
pos = (377,730);
}
);
layerId = "41EDA971-A137-4972-81AF-7929AB7CAABF";
shapes = (
{
closed = 1;
nodes = (
(462,-16,o),
(542,8,o),
(580,114,c),
(565,121,l),
(565,0,l),
(662,0,l),
(662,368,l),
(364,368,l),
(364,268,l),
(652,268,l),
(565,364,l),
(565,272,ls),
(565,230,o),
(514,204,o),
(376,203,cs),
(180,202,o),
(120,256,o),
(121,331,cs),
(122,406,o),
(183,456,o),
(372,456,cs),
(487,456,o),
(547,440,o),
(605,399,c),
(669,605,l),
(617,691,o),
(531,746,o),
(393,746,cs),
(190,746,o),
(32,642,o),
(32,347,cs),
(32,89,o),
(174,-16,o),
(346,-16,cs)
);
}
);
width = 700;
},
{
anchors = (
{
name = bottom;
pos = (404,0);
},
{
name = top;
pos = (402,730);
}
);
associatedMasterId = "79167EE4-8C29-4BCE-A9E7-C1CFC4557E33";
background = {
shapes = (
{
closed = 1;
nodes = (
(507,-8,o),
(608,42,o),
(627,139,c),
(616,151,l),
(616,0,l),
(648,0,l),
(648,358,l),
(403,358,l),
(403,308,l),
(642,308,l),
(616,333,l),
(616,284,ls),
(616,124,o),
(523,49,o),
(380,50,cs),
(201,51,o),
(88,154,o),
(88,366,cs),
(88,564,o),
(205,674,o),
(400,676,cs),
(491,677,o),
(581,641,o),
(629,582,c),
(643,625,l),
(607,687,o),
(528,738,o),
(400,738,cs),
(194,738,o),
(56,608,o),
(56,361,cs),
(56,143,o),
(155,-8,o),
(378,-8,cs)
);
}
);
};
layerId = "867FA862-BCA3-4E7F-9E1A-97F7C99F78AE";
name = "13 déc. 24 à 14:27";
shapes = (
{
closed = 1;
nodes = (
(509,-8,o),
(600,42,o),
(622,139,c),
(616,151,l),
(616,0,l),
(648,0,l),
(648,358,l),
(403,358,l),
(403,308,l),
(642,308,l),
(616,333,l),
(616,254,ls),
(616,118,o),
(523,49,o),
(380,50,cs),
(201,51,o),
(88,154,o),
(88,366,cs),
(88,564,o),
(205,674,o),
(400,676,cs),
(491,677,o),
(581,641,o),
(629,582,c),
(643,625,l),
(607,687,o),
(528,738,o),
(400,738,cs),
(194,738,o),
(56,608,o),
(56,361,cs),
(56,143,o),
(155,-8,o),
(378,-8,cs)
);
}
);
width = 711;
},
{
anchors = (
{
name = bottom;
pos = (376,0);
},
{
name = top;
pos = (360,730);
}
);
associatedMasterId = "41EDA971-A137-4972-81AF-7929AB7CAABF";
background = {
shapes = (
{
closed = 1;
nodes = (
(371,456,l),
(477,456,o),
(547,436,o),
(595,398,c),
(646,611,l),
(602,690,o),
(517,746,o),
(384,746,c)
);
}
);
};
layerId = "19AB3839-DC3B-4D23-A907-066CB9798D6E";
name = "14 déc. 24 à 10:03";
shapes = (
{
closed = 1;
nodes = (
(442,-16,o),
(517,8,o),
(555,114,c),
(540,121,l),
(540,0,l),
(636,0,l),
(636,368,l),
(347,368,l),
(347,268,l),
(626,268,l),
(539,364,l),
(540,272,ls),
(540,233,o),
(500,204,o),
(359,203,cs),
(171,202,o),
(115,256,o),
(116,331,cs),
(117,406,o),
(174,456,o),
(355,456,cs),
(465,456,o),
(535,439,o),
(587,398,c),
(638,611,l),
(594,693,o),
(507,746,o),
(376,746,cs),
(181,746,o),
(28,642,o),
(28,347,cs),
(28,89,o),
(165,-16,o),
(330,-16,cs)
);
}
);
width = 674;
},
{
anchors = (
{
name = bottom;
pos = (380,0);
},
{
name = top;
pos = (364,730);
}
);
associatedMasterId = "41EDA971-A137-4972-81AF-7929AB7CAABF";
background = {
shapes = (
{
closed = 0;
nodes = (
(371,456,ls),
(471,456,o),
(527,440,o),
(584,399,c),
(647,605,l),
(599,687,o),
(517,746,o),
(384,746,cs)
);
}
);
};
layerId = "C4DB5607-EEC6-41EC-BB35-0DB7002EDC1C";
name = "16 déc. 24 à 13:02";
shapes = (
{
closed = 1;
nodes = (
(446,-16,o),
(521,8,o),
(559,114,c),
(544,121,l),
(544,0,l),
(640,0,l),
(640,368,l),
(351,368,l),
(351,268,l),
(630,268,l),
(543,364,l),
(544,272,ls),
(544,233,o),
(504,204,o),
(363,203,cs),
(175,202,o),
(119,256,o),
(120,331,cs),
(121,406,o),
(178,456,o),
(359,456,cs),
(471,456,o),
(527,440,o),
(584,399,c),
(647,605,l),
(599,687,o),
(518,746,o),
(380,746,cs),
(185,746,o),
(32,642,o),
(32,347,cs),
(32,89,o),
(169,-16,o),
(334,-16,cs)
);
}
);
width = 678;
},
{
anchors = (
{
name = bottom;
pos = (393,0);
},
{
name = top;
pos = (384,730);
}
);
associatedMasterId = "79167EE4-8C29-4BCE-A9E7-C1CFC4557E33";
attr = {
coordinates = (
550
);
};
layerId = "304ED758-B9CC-40C6-8A4A-716153A32714";
name = "28 févr. 25 à 12:10";
shapes = (
{
closed = 1;
nodes = (
(478,-12,o),
(563,23,o),
(594,125,c),
(583,134,l),
(583,0,l),
(652,0,l),
(652,369,l),
(367,369,l),
(367,283,l),
(643,283,l),
(583,350,l),
(583,264,ls),
(583,181,o),
(513,136,o),
(378,136,cs),
(190,136,o),
(102,212,o),
(102,346,cs),
(103,476,o),
(186,551,o),
(380,552,cs),
(486,553,o),
(558,528,o),
(610,480,c),
(655,612,l),
(608,688,o),
(527,743,o),
(392,743,cs),
(186,743,o),
(38,627,o),
(38,353,cs),
(38,108,o),
(171,-12,o),
(357,-12,cs)
);
}
);
width = 700;
}
);
metricLeft = "=O";
unicode = 71;
},
{
glyphname = H;
lastChange = "2024-12-16 11:51:59 +0000";
layers = (
{
anchors = (
{
name = top;
pos = (359,730);
}
);
layerId = "79167EE4-8C29-4BCE-A9E7-C1CFC4557E33";
shapes = (
{
closed = 1;
nodes = (
(602,351,l),
(602,401,l),
(122,401,l),
(122,351,l)
);
},
{
closed = 1;
nodes = (
(129,0,l),
(129,730,l),
(97,730,l),
(97,0,l)
);
},
{
closed = 1;
nodes = (
(627,0,l),
(627,730,l),
(595,730,l),
(595,0,l)
);
}
);
width = 724;
},
{
anchors = (
{
name = top;
pos = (373,730);
}
);
layerId = "41EDA971-A137-4972-81AF-7929AB7CAABF";
shapes = (
{
closed = 1;
nodes = (
(569,205,l),
(569,495,l),
(153,495,l),
(153,205,l)
);
},
{
closed = 1;
nodes = (
(166,0,l),
(166,730,l),
(70,730,l),
(70,0,l)
);
},
{
closed = 1;
nodes = (
(654,0,l),
(654,730,l),
(558,730,l),
(558,0,l)
);
}
);
width = 724;
}
);
unicode = 72;
},
{
glyphname = Hbar;
lastChange = "2025-02-27 12:51:15 +0000";
layers = (
{
layerId = "79167EE4-8C29-4BCE-A9E7-C1CFC4557E33";
shapes = (
{
closed = 1;
nodes = (
(750,549,l),
(750,595,l),
(32,595,l),
(32,549,l)
);
},
{
alignment = -1;
pos = (29,0);
ref = H;
}
);
width = 782;
},
{
layerId = "41EDA971-A137-4972-81AF-7929AB7CAABF";
shapes = (
{
closed = 1;
nodes = (
(716,561,l),
(716,661,l),
(8,661,l),
(8,561,l)
);
},
{
alignment = -1;
ref = H;
}
);
width = 724;
},
{
associatedMasterId = "41EDA971-A137-4972-81AF-7929AB7CAABF";
layerId = "F39DED25-ADB9-486F-8F3C-E056F27B6AB2";
name = "15 déc. 24 à 14:25";
shapes = (
{
closed = 1;
nodes = (
(704,549,l),
(704,681,l),
(-1,681,l),
(-1,549,l)
);
},
{
alignment = -1;
pos = (-6,0);
ref = H;
}
);
width = 703;
}
);
unicode = 294;
},
{
glyphname = I;
lastChange = "2024-12-12 13:50:15 +0000";
layers = (
{
anchors = (
{
name = ogonek;
pos = (245,0);
},
{
name = top;
pos = (210,730);
}
);
layerId = "79167EE4-8C29-4BCE-A9E7-C1CFC4557E33";
shapes = (
{
closed = 1;
nodes = (
(226,0,l),
(226,730,l),
(194,730,l),
(194,0,l)
);
},
{
closed = 1;
nodes = (
(372,0,l),
(372,54,l),
(52,54,l),
(52,0,l)
);
},
{
closed = 1;
nodes = (
(377,672,l),
(377,730,l),
(47,730,l),
(47,672,l)
);
}
);
width = 424;
},
{
anchors = (
{
name = ogonek;
pos = (307,0);
},
{
name = top;
pos = (246,730);
}
);
layerId = "41EDA971-A137-4972-81AF-7929AB7CAABF";
shapes = (
{
closed = 1;
nodes = (
(294,36,l),
(294,683,l),
(198,683,l),
(198,36,l)
);
},
{
closed = 1;
nodes = (
(438,0,l),
(438,218,l),
(54,218,l),
(54,0,l)
);
},
{
closed = 1;
nodes = (
(438,440,l),
(438,730,l),
(54,730,l),
(54,440,l)
);
}
);
width = 492;
}
);
unicode = 73;
},
{
color = 3;
glyphname = Iogonek;
lastChange = "2025-02-27 15:31:03 +0000";
layers = (
{
background = {
shapes = (
{
closed = 1;
nodes = (
(251,-203,o),
(283,-185,o),
(297,-160,c),
(289,-125,l),
(271,-140,o),
(246,-150,o),
(212,-150,cs),
(176,-150,o),
(156,-135,o),
(156,-105,cs),
(156,-75,o),
(179,-40,o),
(263,0,c),
(238,11,l),
(154,-27,o),
(117,-77,o),
(117,-125,cs),
(117,-177,o),
(151,-203,o),
(206,-203,cs)
);
},
{
ref = I;
}
);
};
layerId = "79167EE4-8C29-4BCE-A9E7-C1CFC4557E33";
shapes = (
{
closed = 1;
nodes = (
(251,-203,o),
(283,-185,o),
(297,-160,c),
(289,-125,l),
(271,-140,o),
(246,-150,o),
(212,-150,cs),
(176,-150,o),
(156,-135,o),
(156,-105,cs),
(156,-75,o),
(176,-40,o),
(238,0,c),
(213,11,l),
(146,-31,o),
(117,-77,o),
(117,-124,cs),
(117,-177,o),
(151,-203,o),
(206,-203,cs)
);
},
{
ref = I;
}
);
width = 424;
},
{
layerId = "41EDA971-A137-4972-81AF-7929AB7CAABF";
shapes = (
{
closed = 1;
nodes = (
(320,-212,o),
(371,-183,o),
(389,-148,c),
(360,-63,l),
(337,-77,o),
(313,-87,o),
(287,-87,cs),
(263,-87,o),
(251,-77,o),
(251,-60,cs),
(251,-38,o),
(273,-13,o),
(315,0,c),
(258,25,l),
(180,-7,o),
(143,-60,o),
(143,-115,cs),
(143,-176,o),
(188,-212,o),
(261,-212,cs)
);
},
{
ref = I;
}
);
width = 492;
}
);
unicode = 302;
},
{
glyphname = J;
lastChange = "2024-12-14 09:05:02 +0000";
layers = (
{
anchors = (
{
name = top;
pos = (236,730);
}
);
background = {
shapes = (
{
closed = 0;
nodes = (
(9,38,l),
(49,113,l)
);
},
{
closed = 0;
nodes = (
(37,110,l),
(88,45,l)
);
},
{
closed = 0;
nodes = (
(18,72,l),
(64,0,l)
);
}
);
};
layerId = "79167EE4-8C29-4BCE-A9E7-C1CFC4557E33";
shapes = (
{
closed = 1;
nodes = (
(271,-8,o),
(342,47,o),
(342,220,cs),
(342,730,l),
(310,730,l),
(310,232,ls),
(310,93,o),
(266,50,o),
(175,50,cs),
(121,50,o),
(69,69,o),
(43,102,c),
(23,64,l),
(51,20,o),
(96,-8,o),
(174,-8,cs)
);
},
{
closed = 1;
nodes = (
(342,672,l),
(342,730,l),
(119,730,l),
(119,672,l)
);
}
);
width = 444;
},
{
anchors = (
{
name = top;
pos = (269,730);
}
);
background = {
shapes = (
{
closed = 0;
nodes = (
(1,77,l),
(56,266,l)
);
},
{
closed = 0;
nodes = (
(41,28,l),
(0,100,l)
);
},
{
closed = 0;
nodes = (
(89,229,l),
(42,261,l)
);
}
);
};
layerId = "41EDA971-A137-4972-81AF-7929AB7CAABF";
shapes = (
{
closed = 1;
nodes = (
(383,-16,o),
(443,77,o),
(443,285,cs),
(443,730,l),
(347,730,l),
(347,328,ls),
(347,249,o),
(305,202,o),
(207,202,cs),
(152,202,o),
(101,221,o),
(52,254,c),
(5,91,l),
(47,18,o),
(108,-16,o),
(211,-16,cs)
);
},
{
closed = 1;
nodes = (
(399,440,l),
(399,730,l),
(85,730,l),
(85,440,l)
);
}
);
width = 503;
},
{
anchors = (
{
name = top;
pos = (236,730);
}
);
associatedMasterId = "79167EE4-8C29-4BCE-A9E7-C1CFC4557E33";
layerId = "2FA7AE3A-7F66-497E-95C7-43EB6FFCED8C";
name = "13 déc. 24 à 14:34";
shapes = (
{
closed = 1;
nodes = (
(271,-8,o),
(342,47,o),
(342,220,cs),
(342,730,l),
(310,730,l),
(310,232,ls),
(310,93,o),
(266,50,o),
(175,50,cs),
(121,50,o),
(68,71,o),
(40,103,c),
(25,62,l),
(46,25,o),
(96,-8,o),
(174,-8,cs)
);
},
{
closed = 1;
nodes = (
(342,672,l),
(342,730,l),
(119,730,l),
(119,672,l)
);
}
);
width = 444;
},
{
anchors = (
{
name = top;
pos = (269,730);
}
);
associatedMasterId = "41EDA971-A137-4972-81AF-7929AB7CAABF";
background = {
shapes = (
{
closed = 1;
nodes = (
(395,-16,o),
(443,75,o),
(443,305,cs),
(443,730,l),
(347,730,l),
(347,328,ls),
(347,249,o),
(300,202,o),
(216,202,cs),
(131,202,o),
(74,232,o),
(54,255,c),
(4,94,l),
(29,26,o),
(94,-16,o),
(203,-16,cs)
);
},
{
closed = 1;
nodes = (
(399,440,l),
(399,730,l),
(85,730,l),
(85,440,l)
);
}
);
};
layerId = "003A596B-A142-4227-A96F-9B57FE5E99E5";
name = "14 déc. 24 à 10:04";
shapes = (
{
closed = 1;
nodes = (
(383,-16,o),
(443,77,o),
(443,285,cs),
(443,730,l),
(347,730,l),
(347,328,ls),
(347,249,o),
(305,202,o),
(207,202,cs),
(142,202,o),
(82,223,o),
(54,255,c),
(4,94,l),
(29,26,o),
(95,-16,o),
(211,-16,cs)
);
},
{
closed = 1;
nodes = (
(399,440,l),
(399,730,l),
(85,730,l),
(85,440,l)
);
}
);
width = 503;
}
);
unicode = 74;
},
{
glyphname = K;
lastChange = "2025-01-23 11:00:08 +0000";
layers = (
{
anchors = (
{
name = bottom;
pos = (319,0);
},
{
name = top;
pos = (319,730);
}
);
layerId = "79167EE4-8C29-4BCE-A9E7-C1CFC4557E33";
shapes = (
{
closed = 1;
nodes = (
(628,730,l),
(563,730,l),
(118,289,l),
(123,229,l)
);
},
{
closed = 1;
nodes = (
(129,0,l),
(129,730,l),
(97,730,l),
(97,0,l)
);
},
{
closed = 1;
nodes = (
(629,0,l),
(258,420,l),
(234,399,l),
(586,0,l)
);
}
);
width = 662;
},
{
anchors = (
{
name = bottom;
pos = (355,0);
},
{
name = top;
pos = (355,730);
}
);
layerId = "41EDA971-A137-4972-81AF-7929AB7CAABF";
shapes = (
{
closed = 1;
nodes = (
(692,730,l),
(379,730,l),
(155,482,l),
(155,136,l)
);
},
{
closed = 1;
nodes = (
(167,0,l),
(167,730,l),
(70,730,l),
(70,0,l)
);
},
{
closed = 1;
nodes = (
(672,0,l),
(346,396,l),
(281,323,l),
(549,0,l)
);
}
);
width = 657;
},
{
anchors = (
{
name = bottom;
pos = (315,0);
},
{
name = top;
pos = (315,730);
}
);
associatedMasterId = "79167EE4-8C29-4BCE-A9E7-C1CFC4557E33";
layerId = "E25A549F-EAC5-4B18-A60F-F7CD1734DA3A";
name = "16 déc. 24 à 12:05";
shapes = (
{
closed = 1;
nodes = (
(621,730,l),
(556,730,l),
(120,289,l),
(126,229,l)
);
},
{
closed = 1;
nodes = (
(129,0,l),
(129,730,l),
(97,730,l),
(97,0,l)
);
},
{
closed = 1;
nodes = (
(619,0,l),
(255,420,l),
(232,399,l),
(577,0,l)
);
}
);
width = 652;
},
{
anchors = (
{
name = bottom;
pos = (347,0);
},
{
name = top;
pos = (347,730);
}
);
associatedMasterId = "41EDA971-A137-4972-81AF-7929AB7CAABF";
layerId = "EB0E9516-370C-46B5-B25C-68F3AD3C18AB";
name = "16 déc. 24 à 12:23";
shapes = (
{
closed = 1;
nodes = (
(677,730,l),
(353,730,l),
(159,508,l),
(159,136,l)
);
},
{
closed = 1;
nodes = (
(166,0,l),
(166,730,l),
(70,730,l),
(70,0,l)
);
},
{
closed = 1;
nodes = (
(652,0,l),
(340,396,l),
(276,323,l),
(530,0,l)
);
}
);
width = 637;
},
{
anchors = (
{
name = bottom;
pos = (347,0);
},
{
name = top;
pos = (347,730);
}
);
associatedMasterId = "41EDA971-A137-4972-81AF-7929AB7CAABF";
layerId = "710CA254-BCA3-4FAB-9844-16C83BECE01E";
name = "16 déc. 24 à 13:03";
shapes = (
{
closed = 1;
nodes = (
(672,730,l),
(364,730,l),
(154,490,l),
(154,136,l)
);
},
{
closed = 1;
nodes = (
(166,0,l),
(166,730,l),
(70,730,l),
(70,0,l)
);
},
{
closed = 1;
nodes = (
(652,0,l),
(340,396,l),
(276,323,l),
(530,0,l)
);
}
);
width = 637;
}
);
metricLeft = "=H";
unicode = 75;
},
{
glyphname = L;
lastChange = "2024-12-16 12:04:33 +0000";
layers = (
{
anchors = (
{
name = bottom;
pos = (316,0);
},
{
name = caroncomb.alt;
pos = (237,730);
},
{
name = top;
pos = (112,730);
}
);
layerId = "79167EE4-8C29-4BCE-A9E7-C1CFC4557E33";
shapes = (
{
closed = 1;
nodes = (
(129,0,l),
(129,730,l),
(97,730,l),
(97,0,l)
);
},
{
closed = 1;
nodes = (
(516,0,l),
(516,54,l),
(125,54,l),
(125,0,l)
);
}
);
width = 531;
},
{
anchors = (
{
name = bottom;
pos = (290,0);
},
{
name = caroncomb.alt;
pos = (233,730);
},
{
name = top;
pos = (124,730);
}
);
layerId = "41EDA971-A137-4972-81AF-7929AB7CAABF";
shapes = (
{
closed = 1;
nodes = (
(166,0,l),
(166,730,l),
(70,730,l),
(70,0,l)
);
},
{
closed = 1;
nodes = (
(519,0,l),
(519,222,l),
(105,222,l),
(105,0,l)
);
}
);
width = 539;
}
);
metricLeft = "=H";
unicode = 76;
},
{
glyphname = Lslash;
lastChange = "2025-01-23 11:00:08 +0000";
layers = (
{
background = {
shapes = (
{
closed = 1;
nodes = (
(343,459,l),
(319,498,l),
(19,288,l),
(43,249,l)
);
}
);
};
layerId = "79167EE4-8C29-4BCE-A9E7-C1CFC4557E33";
shapes = (
{
closed = 1;
nodes = (
(345,458,l),
(318,500,l),
(17,289,l),
(44,247,l)
);
},
{
alignment = -1;
pos = (22,0);
ref = L;
}
);
width = 553;
},
{
layerId = "41EDA971-A137-4972-81AF-7929AB7CAABF";
shapes = (
{
closed = 1;
nodes = (
(439,512,l),
(390,599,l),
(-2,364,l),
(47,276,l)
);
},
{
alignment = -1;
pos = (54,0);
ref = L;
}
);
width = 593;
},
{
associatedMasterId = "41EDA971-A137-4972-81AF-7929AB7CAABF";
layerId = "5933AD87-3B68-483E-92F3-5E1867F7246D";
name = "15 déc. 24 à 14:25";
shapes = (
{
closed = 1;
nodes = (
(447,497,l),
(383,612,l),
(-9,377,l),
(55,261,l)
);
},
{
alignment = -1;
pos = (54,0);
ref = L;
}
);
width = 593;
}
);
metricRight = "=L";
unicode = 321;
},
{
glyphname = M;
lastChange = "2024-12-16 12:06:16 +0000";
layers = (
{
layerId = "79167EE4-8C29-4BCE-A9E7-C1CFC4557E33";
shapes = (
{
closed = 1;
nodes = (
(141,0,l),
(141,715,l),
(119,715,l),
(429,0,l),
(462,0,l),
(775,716,l),
(748,719,l),
(748,0,l),
(780,0,l),
(780,730,l),
(731,730,l),
(427,32,l),
(449,32,l),
(147,730,l),
(97,730,l),
(97,0,l)
);
}
);
width = 877;
},
{
layerId = "41EDA971-A137-4972-81AF-7929AB7CAABF";
name = UltraBlack;
shapes = (
{
closed = 1;
nodes = (
(237,0,l),
(237,545,l),
(212,550,l),
(430,0,l),
(547,0,l),
(764,550,l),
(742,563,l),
(742,0,l),
(839,0,l),
(839,730,l),
(586,730,l),
(400,260,l),
(434,260,l),
(249,730,l),
(70,730,l),
(70,0,l)
);
}
);
width = 909;
},
{
associatedMasterId = "79167EE4-8C29-4BCE-A9E7-C1CFC4557E33";
layerId = "CBCAEC20-0780-45E0-AEF6-61022428CF22";
name = "12 déc. 24 à 15:07";
shapes = (
{
closed = 1;
nodes = (
(147,0,l),
(147,715,l),
(129,715,l),
(433,0,l),
(478,0,l),
(781,716,l),
(759,719,l),
(759,0,l),
(791,0,l),
(791,730,l),
(735,730,l),
(436,24,l),
(458,24,l),
(158,730,l),
(103,730,l),
(103,0,l)
);
}
);
width = 893;
},
{
associatedMasterId = "79167EE4-8C29-4BCE-A9E7-C1CFC4557E33";
background = {
shapes = (
{
pos = (127,0);
ref = V;
}
);
};
layerId = "978D6A6A-2EE3-41D0-A5D0-44EE9366488F";
name = "13 déc. 24 à 16:29";
shapes = (
{
closed = 1;
nodes = (
(147,0,l),
(147,715,l),
(129,715,l),
(437,0,l),
(473,0,l),
(781,716,l),
(759,719,l),
(759,0,l),
(791,0,l),
(791,730,l),
(735,730,l),
(434,32,l),
(458,32,l),
(158,730,l),
(103,730,l),
(103,0,l)
);
}
);
width = 893;
},
{
associatedMasterId = "41EDA971-A137-4972-81AF-7929AB7CAABF";
layerId = "C3EBF5C9-B963-450B-90ED-F4765C321844";
name = "16 déc. 24 à 12:45";
shapes = (
{
closed = 1;
nodes = (
(237,0,l),
(237,545,l),
(212,550,l),
(425,0,l),
(542,0,l),
(754,550,l),
(732,563,l),
(732,0,l),
(829,0,l),
(829,730,l),
(561,730,l),
(379,260,l),
(429,260,l),
(248,730,l),
(70,730,l),
(70,0,l)
);
}
);
width = 899;
},
{
associatedMasterId = "79167EE4-8C29-4BCE-A9E7-C1CFC4557E33";
layerId = "980F0A6E-D911-4EE2-AD25-0EA4629132CC";
name = "16 déc. 24 à 13:05";
shapes = (
{
closed = 1;
nodes = (
(141,0,l),
(141,715,l),
(119,715,l),
(431,0,l),
(465,0,l),
(780,716,l),
(753,719,l),
(753,0,l),
(785,0,l),
(785,730,l),
(736,730,l),
(429,32,l),
(452,32,l),
(147,730,l),
(97,730,l),
(97,0,l)
);
}
);
width = 882;
}
);
metricLeft = "=H";
metricRight = "=H";
unicode = 77;
},
{
glyphname = N;
lastChange = "2024-12-16 12:07:08 +0000";
layers = (
{
anchors = (
{
name = bottom;
pos = (393,0);
},
{
name = top;
pos = (414,730);
}
);
layerId = "79167EE4-8C29-4BCE-A9E7-C1CFC4557E33";
shapes = (
{
closed = 1;
nodes = (
(129,0,l),
(129,687,l),
(115,687,l),
(637,0,l),
(677,0,l),
(677,730,l),
(645,730,l),
(645,45,l),
(663,45,l),
(143,730,l),
(97,730,l),
(97,0,l)
);
}
);
width = 774;
},
{
anchors = (
{
name = bottom;
pos = (388,0);
},
{
name = top;
pos = (419,730);
}
);
layerId = "41EDA971-A137-4972-81AF-7929AB7CAABF";
name = Black;
shapes = (
{
closed = 1;
nodes = (
(166,0,l),
(166,561,l),
(128,538,l),
(483,0,l),
(710,0,l),
(710,730,l),
(614,730,l),
(614,52,l),
(692,138,l),
(305,730,l),
(70,730,l),
(70,0,l)
);
}
);
width = 780;
},
{
anchors = (
{
name = bottom;
pos = (401,0);
},
{
name = top;
pos = (422,730);
}
);
associatedMasterId = "79167EE4-8C29-4BCE-A9E7-C1CFC4557E33";
layerId = "AAD056EC-D48C-4371-BC63-2002783EC7CC";
name = "12 déc. 24 à 15:09";
shapes = (
{
closed = 1;
nodes = (
(135,0,l),
(135,707,l),
(109,716,l),
(632,0,l),
(686,0,l),
(686,730,l),
(654,730,l),
(654,25,l),
(670,39,l),
(166,730,l),
(103,730,l),
(103,0,l)
);
}
);
width = 788;
},
{
anchors = (
{
name = bottom;
pos = (401,0);
},
{
name = top;
pos = (422,730);
}
);
associatedMasterId = "79167EE4-8C29-4BCE-A9E7-C1CFC4557E33";
layerId = "01D7CF74-CD21-497F-9698-A1077CCA24C1";
name = "16 déc. 24 à 12:21";
shapes = (
{
closed = 1;
nodes = (
(135,0,l),
(135,687,l),
(121,687,l),
(642,0,l),
(686,0,l),
(686,730,l),
(654,730,l),
(654,45,l),
(675,45,l),
(156,730,l),
(103,730,l),
(103,0,l)
);
}
);
width = 788;
},
{
anchors = (
{
name = bottom;
pos = (401,0);
},
{
name = top;
pos = (422,730);
}
);
associatedMasterId = "79167EE4-8C29-4BCE-A9E7-C1CFC4557E33";
layerId = "816EAEF8-42C7-4BAA-983B-206EEF681F39";
name = "16 déc. 24 à 12:42";
shapes = (
{
closed = 1;
nodes = (
(135,0,l),
(135,687,l),
(119,687,l),
(644,0,l),
(686,0,l),
(686,730,l),
(654,730,l),
(654,45,l),
(675,45,l),
(152,730,l),
(103,730,l),
(103,0,l)
);
}
);
width = 788;
},
{
anchors = (
{
name = bottom;
pos = (382,0);
},
{
name = top;
pos = (413,730);
}
);
associatedMasterId = "41EDA971-A137-4972-81AF-7929AB7CAABF";
layerId = "0D4335C7-249A-46CC-AFB3-AFBA6FFAABD3";
name = "16 déc. 24 à 12:43";
shapes = (
{
closed = 1;
nodes = (
(166,0,l),
(166,561,l),
(136,538,l),
(460,0,l),
(699,0,l),
(699,730,l),
(603,730,l),
(603,52,l),
(673,138,l),
(317,730,l),
(70,730,l),
(70,0,l)
);
}
);
width = 769;
}
);
metricLeft = "=H";
metricRight = "=H";
unicode = 78;
},
{
glyphname = Eng;
lastChange = "2025-01-23 11:00:08 +0000";
layers = (
{
background = {
anchors = (
{
name = bottom;
pos = (365,0);
},
{
name = top;
pos = (429,730);
}
);
};
layerId = "79167EE4-8C29-4BCE-A9E7-C1CFC4557E33";
shapes = (
{
closed = 1;
nodes = (
(609,-204,o),
(680,-156,o),
(680,-6,cs),
(680,730,l),
(648,730,l),
(648,36,l),
(675,45,l),
(160,730,l),
(97,730,l),
(97,0,l),
(129,0,l),
(129,717,l),
(102,717,l),
(675,-44,l),
(648,0,l),
(648,-110,o),
(602,-146,o),
(513,-146,cs),
(459,-146,o),
(406,-125,o),
(378,-93,c),
(363,-134,l),
(384,-171,o),
(434,-204,o),
(512,-204,cs)
);
}
);
width = 777;
},
{
background = {
shapes = (
{
closed = 1;
nodes = (
(699,0,l),
(699,730,l),
(603,730,l),
(603,52,l),
(670,307,l),
(317,730,l),
(70,730,l),
(70,0,l),
(166,0,l),
(166,561,l),
(136,538,l),
(623,-23,l)
);
},
{
closed = 1;
nodes = (
(645,-211,o),
(699,-144,o),
(699,10,cs),
(699,524,l),
(603,524,l),
(603,8,ls),
(603,-21,o),
(567,-33,o),
(514,-33,cs),
(437,-33,o),
(390,-13,o),
(358,10,c),
(313,-135,l),
(337,-179,o),
(396,-211,o),
(495,-211,cs)
);
}
);
};
layerId = "41EDA971-A137-4972-81AF-7929AB7CAABF";
shapes = (
{
closed = 1;
nodes = (
(642,-211,o),
(697,-147,o),
(699,0,cs),
(699,730,l),
(603,730,l),
(603,342,l),
(632,352,l),
(317,730,l),
(70,730,l),
(70,0,l),
(166,0,l),
(166,548,l),
(136,537,l),
(632,-33,l),
(603,7,l),
(603,-21,o),
(566,-33,o),
(514,-33,cs),
(437,-33,o),
(390,-13,o),
(358,10,c),
(313,-135,l),
(337,-179,o),
(396,-211,o),
(495,-211,cs)
);
}
);
width = 769;
}
);
metricLeft = "=N";
metricRight = "=N";
unicode = 330;
},
{
glyphname = O;
lastChange = "2024-12-16 12:07:28 +0000";
layers = (
{
anchors = (
{
name = ogonek;
pos = (413,0);
},
{
name = top;
pos = (356,730);
}
);
layerId = "79167EE4-8C29-4BCE-A9E7-C1CFC4557E33";
shapes = (
{
closed = 1;
nodes = (
(543,-8,o),
(666,133,o),
(666,365,cs),
(666,597,o),
(543,738,o),
(356,738,cs),
(169,738,o),
(46,597,o),
(46,365,cs),
(46,133,o),
(169,-8,o),
(356,-8,cs)
);
},
{
closed = 1;
nodes = (
(181,50,o),
(78,176,o),
(78,365,cs),
(78,553,o),
(181,676,o),
(356,676,cs),
(532,676,o),
(634,553,o),
(634,365,cs),
(634,176,o),
(532,50,o),
(356,50,cs)
);
}
);
width = 712;
},
{
anchors = (
{
name = ogonek;
pos = (421,0);
},
{
name = top;
pos = (356,730);
}
);
layerId = "41EDA971-A137-4972-81AF-7929AB7CAABF";
shapes = (
{
closed = 1;
nodes = (
(538,-16,o),
(680,88,o),
(680,365,cs),
(680,643,o),
(538,746,o),
(356,746,cs),
(173,746,o),
(32,643,o),
(32,365,cs),
(32,88,o),
(173,-16,o),
(356,-16,cs)
);
},
{
closed = 1;
nodes = (
(187,202,o),
(115,245,o),
(115,329,cs),
(115,413,o),
(187,456,o),
(356,456,cs),
(525,456,o),
(597,413,o),
(597,329,cs),
(597,245,o),
(525,202,o),
(356,202,cs)
);
}
);
width = 712;
},
{
anchors = (
{
name = ogonek;
pos = (427,0);
},
{
name = top;
pos = (370,730);
}
);
associatedMasterId = "79167EE4-8C29-4BCE-A9E7-C1CFC4557E33";
layerId = "CAC14B60-3C4A-4173-9306-D5B62EFC089C";
name = "16 déc. 24 à 12:52";
shapes = (
{
closed = 1;
nodes = (
(559,-8,o),
(683,133,o),
(683,365,cs),
(683,597,o),
(559,738,o),
(370,738,cs),
(180,738,o),
(56,597,o),
(56,365,cs),
(56,133,o),
(180,-8,o),
(370,-8,cs)
);
},
{
closed = 1;
nodes = (
(192,50,o),
(88,176,o),
(88,365,cs),
(88,553,o),
(192,676,o),
(370,676,cs),
(548,676,o),
(651,553,o),
(651,365,cs),
(651,176,o),
(548,50,o),
(370,50,cs)
);
}
);
width = 739;
},
{
anchors = (
{
name = ogonek;
pos = (417,0);
},
{
name = top;
pos = (353,730);
}
);
associatedMasterId = "41EDA971-A137-4972-81AF-7929AB7CAABF";
layerId = "0D2EAFBD-6171-4601-BCF0-438B0ED1E2D8";
name = "16 déc. 24 à 12:56";
shapes = (
{
closed = 1;
nodes = (
(534,-16,o),
(674,88,o),
(674,365,cs),
(674,643,o),
(534,746,o),
(353,746,cs),
(171,746,o),
(32,643,o),
(32,365,cs),
(32,88,o),
(171,-16,o),
(353,-16,cs)
);
},
{
closed = 1;
nodes = (
(185,202,o),
(115,245,o),
(115,329,cs),
(115,413,o),
(185,456,o),
(353,456,cs),
(521,456,o),
(591,413,o),
(591,329,cs),
(591,245,o),
(521,202,o),
(353,202,cs)
);
}
);
width = 706;
}
);
unicode = 79;
},
{
glyphname = Oslash;
lastChange = "2025-02-27 10:12:27 +0000";
layers = (
{
background = {
shapes = (
{
closed = 1;
nodes = (
(683,708,l),
(651,738,l),
(28,22,l),
(60,-8,l)
);
}
);
};
layerId = "79167EE4-8C29-4BCE-A9E7-C1CFC4557E33";
shapes = (
{
closed = 1;
nodes = (
(683,710,l),
(651,738,l),
(28,20,l),
(60,-8,l)
);
},
{
alignment = -1;
ref = O;
}
);
width = 712;
},
{
background = {
shapes = (
{
closed = 1;
nodes = (
(682,682,l),
(605,746,l),
(31,50,l),
(106,-16,l)
);
}
);
};
layerId = "41EDA971-A137-4972-81AF-7929AB7CAABF";
shapes = (
{
closed = 1;
nodes = (
(676,685,l),
(605,746,l),
(35,45,l),
(106,-16,l)
);
},
{
alignment = -1;
ref = O;
}
);
width = 712;
},
{
associatedMasterId = "41EDA971-A137-4972-81AF-7929AB7CAABF";
layerId = "44D1FD99-37B6-4924-89FC-BF0CB823339B";
name = "15 déc. 24 à 14:26";
shapes = (
{
closed = 1;
nodes = (
(669,676,l),
(567,762,l),
(8,53,l),
(107,-34,l)
);
},
{
alignment = -1;
ref = O;
}
);
width = 698;
},
{
associatedMasterId = "41EDA971-A137-4972-81AF-7929AB7CAABF";
layerId = "4846C9DB-2C53-4448-8B5E-93BC228FC9D2";
name = "23 janv. 25 à 11:57";
shapes = (
{
closed = 1;
nodes = (
(663,682,l),
(586,746,l),
(12,50,l),
(87,-16,l)
);
},
{
alignment = -1;
ref = O;
}
);
width = 698;
},
{
associatedMasterId = "79167EE4-8C29-4BCE-A9E7-C1CFC4557E33";
layerId = "DFF6C235-D81F-4F73-B41D-AF79894556E0";
name = "27 févr. 25 à 11:09";
shapes = (
{
closed = 1;
nodes = (
(684,706,l),
(651,738,l),
(27,24,l),
(60,-8,l)
);
},
{
alignment = -1;
ref = O;
}
);
width = 712;
}
);
metricLeft = "=O@365";
metricRight = "=O@365";
unicode = 216;
},
{
glyphname = OE;
lastChange = "2025-02-28 11:29:54 +0000";
layers = (
{
background = {
shapes = (
{
closed = 1;
nodes = (
(366,730,l),
(173,730,o),
(46,595,o),
(46,365,cs),
(46,135,o),
(173,0,o),
(366,0,c),
(366,54,l),
(185,54,o),
(78,175,o),
(78,365,cs),
(78,554,o),
(185,672,o),
(366,672,c)
);
}
);
};
layerId = "79167EE4-8C29-4BCE-A9E7-C1CFC4557E33";
name = Light;
shapes = (
{
closed = 1;
nodes = (
(531,0,l),
(531,54,l),
(399,54,ls),
(194,54,o),
(78,159,o),
(78,363,cs),
(78,577,o),
(197,672,o),
(401,672,cs),
(531,672,l),
(531,730,l),
(396,730,ls),
(171,730,o),
(46,601,o),
(46,365,cs),
(46,139,o),
(161,0,o),
(396,0,cs)
);
},
{
alignment = -1;
pos = (411,0);
ref = E;
}
);
width = 1006;
},
{
layerId = "41EDA971-A137-4972-81AF-7929AB7CAABF";
name = Light;
shapes = (
{
closed = 1;
nodes = (
(490,0,l),
(490,208,l),
(278,208,ls),
(161,208,o),
(115,254,o),
(115,332,cs),
(115,411,o),
(161,450,o),
(279,450,cs),
(478,450,l),
(478,730,l),
(341,730,ls),
(167,730,o),
(32,631,o),
(32,365,cs),
(32,100,o),
(167,0,o),
(341,0,cs)
);
},
{
alignment = -1;
pos = (361,0);
ref = E;
}
);
width = 959;
}
);
metricLeft = "=O";
metricRight = "=E";
unicode = 338;
},
{
glyphname = P;
lastChange = "2025-02-25 13:04:45 +0000";
layers = (
{
anchors = (
{
name = top;
pos = (347,730);
}
);
layerId = "79167EE4-8C29-4BCE-A9E7-C1CFC4557E33";
shapes = (
{
closed = 1;
nodes = (
(363,283,ls),
(521,283,o),
(606,369,o),
(606,507,cs),
(606,651,o),
(532,730,o),
(364,730,cs),
(113,730,l),
(113,672,l),
(365,672,ls),
(518,672,o),
(573,607,o),
(573,504,cs),
(573,400,o),
(510,337,o),
(357,337,cs),
(118,337,l),
(118,283,l)
);
},
{
closed = 1;
nodes = (
(129,0,l),
(129,730,l),
(97,730,l),
(97,0,l)
);
}
);
width = 635;
},
{
anchors = (
{
name = top;
pos = (322,730);
}
);
background = {
shapes = (
{
closed = 1;
nodes = (
(339,132,ls),
(522,132,o),
(620,205,o),
(620,424,cs),
(620,666,o),
(518,730,o),
(349,730,cs),
(124,730,l),
(124,435,l),
(480,435,ls),
(518,435,o),
(538,421,o),
(538,396,cs),
(538,367,o),
(523,352,o),
(480,352,cs),
(139,352,l),
(139,132,l)
);
},
{
closed = 1;
nodes = (
(166,0,l),
(166,730,l),
(70,730,l),
(70,0,l)
);
}
);
};
layerId = "41EDA971-A137-4972-81AF-7929AB7CAABF";
shapes = (
{
closed = 1;
nodes = (
(329,132,ls),
(522,132,o),
(620,203,o),
(620,434,cs),
(620,650,o),
(537,730,o),
(329,730,cs),
(124,730,l),
(124,435,l),
(479,435,ls),
(517,435,o),
(537,421,o),
(537,396,cs),
(537,367,o),
(522,352,o),
(479,352,cs),
(139,352,l),
(139,132,l)
);
},
{
closed = 1;
nodes = (
(166,0,l),
(166,730,l),
(70,730,l),
(70,0,l)
);
}
);
width = 636;
},
{
associatedMasterId = "79167EE4-8C29-4BCE-A9E7-C1CFC4557E33";
background = {
shapes = (
{
closed = 1;
nodes = (
(368,283,ls),
(551,283,o),
(612,405,o),
(612,506,cs),
(612,651,o),
(541,730,o),
(370,730,cs),
(118,730,l),
(118,672,l),
(372,672,ls),
(522,672,o),
(579,605,o),
(579,503,cs),
(579,402,o),
(511,337,o),
(360,337,cs),
(124,337,l),
(124,283,l)
);
},
{
closed = 1;
nodes = (
(135,0,l),
(135,730,l),
(103,730,l),
(103,0,l)
);
}
);
};
layerId = "620D940D-90B8-4D7E-9573-AFC71775D80A";
name = "12 déc. 24 à 15:11";
shapes = (
{
closed = 1;
nodes = (
(368,283,ls),
(519,283,o),
(612,373,o),
(612,506,cs),
(612,651,o),
(541,730,o),
(370,730,cs),
(118,730,l),
(118,672,l),
(372,672,ls),
(522,672,o),
(579,605,o),
(579,503,cs),
(579,402,o),
(511,337,o),
(360,337,cs),
(124,337,l),
(124,283,l)
);
},
{
closed = 1;
nodes = (
(135,0,l),
(135,730,l),
(103,730,l),
(103,0,l)
);
}
);
width = 641;
},
{
associatedMasterId = "41EDA971-A137-4972-81AF-7929AB7CAABF";
layerId = "2F0C0C65-C7BB-46B9-B267-EFF9FB9A22FA";
name = "12 déc. 24 à 16:27";
shapes = (
{
closed = 1;
nodes = (
(339,132,ls),
(522,132,o),
(620,205,o),
(620,424,cs),
(620,666,o),
(518,730,o),
(349,730,cs),
(124,730,l),
(124,435,l),
(480,435,ls),
(518,435,o),
(538,421,o),
(538,396,cs),
(538,367,o),
(523,352,o),
(480,352,cs),
(139,352,l),
(139,132,l)
);
},
{
closed = 1;
nodes = (
(166,0,l),
(166,730,l),
(70,730,l),
(70,0,l)
);
}
);
width = 636;
}
);
metricLeft = "=H";
unicode = 80;
},
{
glyphname = Thorn;
lastChange = "2025-01-23 11:00:08 +0000";
layers = (
{
layerId = "79167EE4-8C29-4BCE-A9E7-C1CFC4557E33";
shapes = (
{
closed = 1;
nodes = (
(362,142,ls),
(513,142,o),
(606,232,o),
(606,365,cs),
(606,510,o),
(535,589,o),
(364,589,cs),
(115,589,l),
(115,531,l),
(366,531,ls),
(516,531,o),
(573,464,o),
(573,362,cs),
(573,261,o),
(505,196,o),
(354,196,cs),
(115,196,l),
(115,142,l)
);
},
{
closed = 1;
nodes = (
(129,0,l),
(129,730,l),
(97,730,l),
(97,0,l)
);
}
);
width = 635;
},
{
layerId = "41EDA971-A137-4972-81AF-7929AB7CAABF";
shapes = (
{
closed = 1;
nodes = (
(338,66,ls),
(521,66,o),
(619,140,o),
(619,357,cs),
(619,599,o),
(517,664,o),
(348,664,cs),
(124,664,l),
(124,369,l),
(480,369,ls),
(519,369,o),
(539,358,o),
(541,335,cs),
(544,302,o),
(524,285,o),
(480,285,cs),
(138,285,l),
(138,66,l)
);
},
{
closed = 1;
nodes = (
(166,0,l),
(166,730,l),
(70,730,l),
(70,0,l)
);
}
);
width = 635;
}
);
metricLeft = "=P";
metricRight = "=P";
unicode = 222;
},
{
glyphname = Q;
lastChange = "2024-12-16 17:16:51 +0000";
layers = (
{
layerId = "79167EE4-8C29-4BCE-A9E7-C1CFC4557E33";
shapes = (
{
closed = 1;
nodes = (
(634,-47,l),
(398,277,l),
(361,250,l),
(597,-74,l)
);
},
{
alignment = -1;
ref = O;
}
);
width = 712;
},
{
layerId = "41EDA971-A137-4972-81AF-7929AB7CAABF";
shapes = (
{
closed = 1;
nodes = (
(648,-27,l),
(387,340,l),
(302,281,l),
(563,-87,l)
);
},
{
alignment = -1;
ref = O;
}
);
width = 712;
},
{
associatedMasterId = "41EDA971-A137-4972-81AF-7929AB7CAABF";
layerId = "D194D3A1-193B-4A67-AD6D-B78992CC1280";
name = "16 déc. 24 à 18:05";
shapes = (
{
closed = 1;
nodes = (
(652,-10,l),
(396,351,l),
(288,276,l),
(544,-86,l)
);
},
{
alignment = -1;
ref = O;
}
);
width = 712;
}
);
metricLeft = "=O@365";
metricRight = "=O@365";
unicode = 81;
},
{
glyphname = R;
lastChange = "2025-02-28 11:29:54 +0000";
layers = (
{
anchors = (
{
name = bottom;
pos = (343,0);
},
{
name = top;
pos = (326,730);
}
);
background = {
shapes = (
{
closed = 0;
nodes = (
(657,80,l),
(695,9,l)
);
},
{
closed = 0;
nodes = (
(620,16,l),
(668,77,l)
);
},
{
closed = 0;
nodes = (
(643,-27,l),
(686,41,l)
);
}
);
};
layerId = "79167EE4-8C29-4BCE-A9E7-C1CFC4557E33";
shapes = (
{
closed = 1;
nodes = (
(642,-8,o),
(665,8,o),
(681,34,c),
(662,70,l),
(654,59,o),
(634,50,o),
(617,50,cs),
(571,50,o),
(543,72,o),
(535,177,cs),
(527,286,o),
(503,324,o),
(432,334,c),
(428,316,l),
(542,337,o),
(601,412,o),
(601,523,cs),
(601,652,o),
(537,730,o),
(360,730,cs),
(97,730,l),
(97,0,l),
(129,0,l),
(129,672,l),
(367,672,ls),
(512,672,o),
(569,612,o),
(569,515,cs),
(569,414,o),
(501,348,o),
(352,348,cs),
(119,348,l),
(119,298,l),
(391,298,ls),
(470,298,o),
(497,274,o),
(503,168,cs),
(511,29,o),
(542,-8,o),
(605,-8,cs)
);
}
);
width = 691;
},
{
anchors = (
{
name = bottom;
pos = (346,0);
},
{
name = top;
pos = (339,730);
}
);
background = {
shapes = (
{
closed = 0;
nodes = (
(689,42,l),
(637,222,l)
);
},
{
closed = 0;
nodes = (
(651,-5,l),
(690,64,l)
);
},
{
closed = 0;
nodes = (
(605,186,l),
(650,217,l)
);
}
);
};
layerId = "41EDA971-A137-4972-81AF-7929AB7CAABF";
shapes = (
{
closed = 1;
nodes = (
(627,-16,o),
(661,6,o),
(689,55,c),
(644,210,l),
(627,198,o),
(608,192,o),
(588,192,cs),
(554,192,o),
(544,203,o),
(533,239,cs),
(518,287,o),
(491,295,o),
(424,295,c),
(429,285,l),
(570,270,o),
(630,354,o),
(630,506,cs),
(630,653,o),
(560,730,o),
(403,730,cs),
(70,730,l),
(70,0,l),
(166,0,l),
(166,450,l),
(460,450,ls),
(494,450,o),
(514,437,o),
(514,411,cs),
(514,382,o),
(500,367,o),
(461,367,cs),
(152,367,l),
(150,209,l),
(370,209,ls),
(427,209,o),
(445,198,o),
(453,133,cs),
(467,20,o),
(505,-16,o),
(575,-16,cs)
);
}
);
width = 693;
},
{
anchors = (
{
name = bottom;
pos = (349,0);
},
{
name = top;
pos = (332,730);
}
);
associatedMasterId = "79167EE4-8C29-4BCE-A9E7-C1CFC4557E33";
background = {
shapes = (
{
closed = 1;
nodes = (
(647,-8,o),
(673,10,o),
(685,36,c),
(671,68,l),
(662,58,o),
(639,50,o),
(623,50,cs),
(576,50,o),
(555,74,o),
(534,177,cs),
(512,286,o),
(494,324,o),
(424,334,c),
(434,316,l),
(548,337,o),
(607,411,o),
(607,517,cs),
(607,651,o),
(543,730,o),
(366,730,cs),
(103,730,l),
(103,0,l),
(135,0,l),
(135,668,l),
(369,668,ls),
(518,668,o),
(575,605,o),
(575,508,cs),
(575,411,o),
(507,348,o),
(358,348,cs),
(125,348,l),
(125,298,l),
(383,298,ls),
(452,298,o),
(482,282,o),
(502,173,cs),
(530,24,o),
(557,-8,o),
(614,-8,cs)
);
}
);
};
layerId = "B59F9DAC-FB86-4890-A718-8A4496D115C4";
name = "12 déc. 24 à 15:13";
shapes = (
{
closed = 1;
nodes = (
(647,-8,o),
(673,10,o),
(685,36,c),
(671,68,l),
(662,58,o),
(639,50,o),
(623,50,cs),
(576,50,o),
(555,74,o),
(534,177,cs),
(512,286,o),
(494,324,o),
(424,334,c),
(434,316,l),
(548,337,o),
(607,411,o),
(607,517,cs),
(607,651,o),
(543,730,o),
(366,730,cs),
(103,730,l),
(103,0,l),
(135,0,l),
(135,672,l),
(369,672,ls),
(518,672,o),
(575,610,o),
(575,515,cs),
(575,414,o),
(507,348,o),
(358,348,cs),
(125,348,l),
(125,298,l),
(383,298,ls),
(452,298,o),
(482,282,o),
(502,173,cs),
(530,24,o),
(557,-8,o),
(614,-8,cs)
);
}
);
width = 697;
},
{
anchors = (
{
name = bottom;
pos = (349,0);
},
{
name = top;
pos = (332,730);
}
);
associatedMasterId = "79167EE4-8C29-4BCE-A9E7-C1CFC4557E33";
layerId = "F6A43461-F492-4CC3-BC0B-DCF7BA30750D";
name = "12 déc. 24 à 15:17";
shapes = (
{
closed = 1;
nodes = (
(647,-8,o),
(673,10,o),
(685,36,c),
(671,68,l),
(662,58,o),
(639,50,o),
(623,50,cs),
(576,50,o),
(555,74,o),
(534,177,cs),
(512,286,o),
(494,324,o),
(424,334,c),
(434,316,l),
(548,337,o),
(607,412,o),
(607,523,cs),
(607,652,o),
(543,730,o),
(366,730,cs),
(103,730,l),
(103,0,l),
(135,0,l),
(135,672,l),
(373,672,ls),
(518,672,o),
(575,612,o),
(575,515,cs),
(575,414,o),
(507,348,o),
(358,348,cs),
(125,348,l),
(125,298,l),
(383,298,ls),
(452,298,o),
(482,282,o),
(502,173,cs),
(530,24,o),
(557,-8,o),
(614,-8,cs)
);
}
);
width = 697;
},
{
anchors = (
{
name = bottom;
pos = (349,0);
},
{
name = top;
pos = (332,730);
}
);
associatedMasterId = "79167EE4-8C29-4BCE-A9E7-C1CFC4557E33";
background = {
shapes = (
{
closed = 1;
nodes = (
(647,-8,o),
(673,10,o),
(685,36,c),
(671,68,l),
(662,58,o),
(639,50,o),
(623,50,cs),
(580,50,o),
(549,72,o),
(541,177,cs),
(533,286,o),
(509,324,o),
(438,334,c),
(434,316,l),
(548,337,o),
(607,412,o),
(607,523,cs),
(607,652,o),
(543,730,o),
(366,730,cs),
(103,730,l),
(103,0,l),
(135,0,l),
(135,672,l),
(373,672,ls),
(518,672,o),
(575,612,o),
(575,515,cs),
(575,414,o),
(507,348,o),
(358,348,cs),
(125,348,l),
(125,298,l),
(397,298,ls),
(473,298,o),
(503,276,o),
(509,173,cs),
(517,29,o),
(554,-8,o),
(613,-8,cs)
);
}
);
};
layerId = "8000894A-AB2A-400C-9E2E-131AEA56DC6D";
name = "13 déc. 24 à 14:35";
shapes = (
{
closed = 1;
nodes = (
(648,-8,o),
(673,10,o),
(685,36,c),
(671,68,l),
(662,58,o),
(639,50,o),
(623,50,cs),
(577,50,o),
(549,72,o),
(541,177,cs),
(533,286,o),
(509,324,o),
(438,334,c),
(434,316,l),
(548,337,o),
(607,412,o),
(607,523,cs),
(607,652,o),
(543,730,o),
(366,730,cs),
(103,730,l),
(103,0,l),
(135,0,l),
(135,672,l),
(373,672,ls),
(518,672,o),
(575,612,o),
(575,515,cs),
(575,414,o),
(507,348,o),
(358,348,cs),
(125,348,l),
(125,298,l),
(397,298,ls),
(476,298,o),
(503,274,o),
(509,168,cs),
(517,29,o),
(548,-8,o),
(611,-8,cs)
);
}
);
width = 697;
},
{
anchors = (
{
name = bottom;
pos = (344,0);
},
{
name = top;
pos = (337,730);
}
);
associatedMasterId = "41EDA971-A137-4972-81AF-7929AB7CAABF";
layerId = "7BD50B62-3351-4D83-9362-09B123562EFC";
name = "14 déc. 24 à 10:05";
shapes = (
{
closed = 1;
nodes = (
(637,-16,o),
(671,15,o),
(687,57,c),
(638,208,l),
(623,199,o),
(605,192,o),
(584,192,cs),
(551,192,o),
(541,203,o),
(530,239,cs),
(515,287,o),
(488,295,o),
(422,295,c),
(427,285,l),
(567,270,o),
(627,354,o),
(627,506,cs),
(627,653,o),
(557,730,o),
(401,730,cs),
(70,730,l),
(70,0,l),
(166,0,l),
(166,450,l),
(458,450,ls),
(492,450,o),
(511,437,o),
(511,411,cs),
(511,382,o),
(498,367,o),
(459,367,cs),
(152,367,l),
(150,209,l),
(368,209,ls),
(425,209,o),
(442,198,o),
(450,133,cs),
(464,20,o),
(501,-16,o),
(581,-16,cs)
);
}
);
width = 689;
}
);
metricLeft = "=H";
unicode = 82;
},
{
glyphname = S;
lastChange = "2025-02-28 12:01:27 +0000";
layers = (
{
anchors = (
{
name = bottom;
pos = (319,0);
},
{
name = top;
pos = (332,730);
}
);
background = {
shapes = (
{
closed = 1;
nodes = (
(472,-8,o),
(569,73,o),
(569,202,cs),
(569,313,o),
(513,364,o),
(319,387,cs),
(153,407,o),
(111,447,o),
(111,531,cs),
(111,608,o),
(166,673,o),
(315,676,cs),
(414,678,o),
(494,641,o),
(539,585,c),
(559,623,l),
(518,687,o),
(443,738,o),
(324,738,cs),
(176,738,o),
(68,657,o),
(68,529,cs),
(68,418,o),
(135,370,o),
(308,351,cs),
(477,332,o),
(527,291,o),
(527,208,cs),
(527,116,o),
(464,50,o),
(310,50,cs),
(214,50,o),
(121,88,o),
(76,144,c),
(56,106,l),
(97,42,o),
(183,-8,o),
(316,-8,cs)
);
}
);
};
layerId = "79167EE4-8C29-4BCE-A9E7-C1CFC4557E33";
shapes = (
{
closed = 1;
nodes = (
(472,-8,o),
(569,73,o),
(569,202,cs),
(569,319,o),
(513,369,o),
(319,392,cs),
(155,411,o),
(111,450,o),
(111,531,cs),
(111,608,o),
(166,673,o),
(315,676,cs),
(414,678,o),
(494,641,o),
(539,585,c),
(559,623,l),
(518,687,o),
(443,738,o),
(324,738,cs),
(176,738,o),
(68,657,o),
(68,529,cs),
(68,411,o),
(135,364,o),
(308,345,cs),
(475,327,o),
(527,288,o),
(527,208,cs),
(527,116,o),
(464,50,o),
(310,50,cs),
(214,50,o),
(121,88,o),
(76,144,c),
(56,106,l),
(97,42,o),
(183,-8,o),
(316,-8,cs)
);
}
);
width = 621;
},
{
anchors = (
{
name = bottom;
pos = (326,0);
},
{
name = top;
pos = (321,730);
}
);
background = {
shapes = (
{
closed = 0;
nodes = (
(16,92,l),
(71,281,l)
);
},
{
closed = 0;
nodes = (
(56,43,l),
(15,115,l)
);
},
{
closed = 0;
nodes = (
(104,244,l),
(57,276,l)
);
},
{
closed = 0;
nodes = (
(533,395,l),
(602,625,l)
);
},
{
closed = 0;
nodes = (
(551,403,l),
(492,443,l)
);
},
{
closed = 0;
nodes = (
(603,597,l),
(552,685,l)
);
}
);
};
layerId = "41EDA971-A137-4972-81AF-7929AB7CAABF";
shapes = (
{
closed = 1;
nodes = (
(506,-16,o),
(601,52,o),
(601,204,cs),
(601,336,o),
(509,374,o),
(349,380,cs),
(206,384,o),
(177,392,o),
(177,422,cs),
(177,449,o),
(209,466,o),
(321,466,cs),
(417,466,o),
(478,452,o),
(538,412,c),
(597,608,l),
(543,701,o),
(462,746,o),
(335,746,cs),
(154,746,o),
(42,660,o),
(42,498,cs),
(42,337,o),
(129,291,o),
(291,286,cs),
(427,281,o),
(454,271,o),
(454,240,cs),
(454,213,o),
(436,192,o),
(328,192,cs),
(215,192,o),
(142,217,o),
(68,269,c),
(20,106,l),
(62,33,o),
(160,-16,o),
(307,-16,cs)
);
}
);
width = 621;
},
{
anchors = (
{
name = bottom;
pos = (319,0);
},
{
name = top;
pos = (327,730);
}
);
associatedMasterId = "79167EE4-8C29-4BCE-A9E7-C1CFC4557E33";
layerId = "A6B9D39D-7358-4FCC-BCEF-115DA4021CEC";
name = "12 déc. 24 à 15:20";
shapes = (
{
closed = 1;
nodes = (
(472,-8,o),
(569,73,o),
(569,202,cs),
(569,313,o),
(513,364,o),
(319,387,cs),
(153,407,o),
(111,447,o),
(111,531,cs),
(111,609,o),
(166,675,o),
(315,678,cs),
(414,680,o),
(495,640,o),
(541,582,c),
(557,627,l),
(525,683,o),
(443,738,o),
(324,738,cs),
(176,738,o),
(68,657,o),
(68,529,cs),
(68,418,o),
(135,370,o),
(308,351,cs),
(477,332,o),
(527,291,o),
(527,208,cs),
(527,115,o),
(464,48,o),
(310,48,cs),
(214,48,o),
(121,87,o),
(74,146,c),
(59,105,l),
(96,42,o),
(183,-8,o),
(316,-8,cs)
);
}
);
width = 621;
},
{
anchors = (
{
name = bottom;
pos = (319,0);
},
{
name = top;
pos = (327,730);
}
);
associatedMasterId = "79167EE4-8C29-4BCE-A9E7-C1CFC4557E33";
background = {
shapes = (
{
closed = 0;
nodes = (
(542,583,l),
(557,626,l)
);
},
{
closed = 0;
nodes = (
(59,103,l),
(74,146,l)
);
}
);
};
layerId = "0C31F580-17B0-4BA0-AF7A-877D1D63CAEB";
name = "13 déc. 24 à 14:36";
shapes = (
{
closed = 1;
nodes = (
(472,-8,o),
(569,73,o),
(569,202,cs),
(569,313,o),
(513,364,o),
(319,387,cs),
(153,407,o),
(111,447,o),
(111,531,cs),
(111,609,o),
(166,675,o),
(315,678,cs),
(414,680,o),
(495,640,o),
(542,583,c),
(557,626,l),
(525,683,o),
(443,738,o),
(324,738,cs),
(176,738,o),
(68,657,o),
(68,529,cs),
(68,418,o),
(135,370,o),
(308,351,cs),
(477,332,o),
(527,291,o),
(527,208,cs),
(527,115,o),
(464,48,o),
(310,48,cs),
(214,48,o),
(121,87,o),
(74,146,c),
(59,103,l),
(96,42,o),
(183,-8,o),
(316,-8,cs)
);
}
);
width = 621;
},
{
anchors = (
{
name = bottom;
pos = (326,0);
},
{
name = top;
pos = (307,730);
}
);
associatedMasterId = "41EDA971-A137-4972-81AF-7929AB7CAABF";
background = {
shapes = (
{
closed = 1;
nodes = (
(504,-16,o),
(599,52,o),
(599,204,cs),
(599,336,o),
(507,374,o),
(347,380,cs),
(204,384,o),
(175,392,o),
(175,422,cs),
(175,449,o),
(207,466,o),
(319,466,cs),
(421,466,o),
(494,447,o),
(540,408,c),
(590,615,l),
(545,694,o),
(465,746,o),
(333,746,cs),
(152,746,o),
(40,660,o),
(40,498,cs),
(40,337,o),
(127,291,o),
(289,286,cs),
(425,281,o),
(452,271,o),
(452,240,cs),
(452,213,o),
(434,192,o),
(326,192,cs),
(200,192,o),
(124,220,o),
(63,276,c),
(8,114,l),
(55,35,o),
(155,-16,o),
(305,-16,cs)
);
}
);
};
layerId = "86DBD106-FD0E-4313-ACCC-42D82C8F6710";
name = "14 déc. 24 à 10:06";
shapes = (
{
closed = 1;
nodes = (
(506,-16,o),
(601,52,o),
(601,204,cs),
(601,336,o),
(509,374,o),
(349,380,cs),
(206,384,o),
(177,392,o),
(177,422,cs),
(177,449,o),
(209,466,o),
(321,466,cs),
(423,466,o),
(496,447,o),
(542,408,c),
(592,615,l),
(547,694,o),
(467,746,o),
(335,746,cs),
(154,746,o),
(42,660,o),
(42,498,cs),
(42,337,o),
(129,291,o),
(291,286,cs),
(427,281,o),
(454,271,o),
(454,240,cs),
(454,213,o),
(436,192,o),
(328,192,cs),
(205,192,o),
(131,218,o),
(71,270,c),
(16,108,l),
(62,33,o),
(160,-16,o),
(307,-16,cs)
);
}
);
width = 613;
},
{
anchors = (
{
name = bottom;
pos = (323,0);
},
{
name = top;
pos = (326,730);
}
);
associatedMasterId = "79167EE4-8C29-4BCE-A9E7-C1CFC4557E33";
attr = {
coordinates = (
550
);
};
background = {
anchors = (
{
name = bottom;
pos = (323,0);
},
{
name = top;
pos = (326,730);
}
);
shapes = (
{
closed = 1;
nodes = (
(491,-12,o),
(587,61,o),
(587,203,cs),
(587,326,o),
(510,370,o),
(336,383,cs),
(183,394,o),
(148,416,o),
(148,470,cs),
(148,519,o),
(191,557,o),
(318,558,cs),
(416,559,o),
(486,534,o),
(538,488,c),
(580,615,l),
(532,695,o),
(454,743,o),
(330,743,cs),
(164,743,o),
(53,659,o),
(53,512,cs),
(53,372,o),
(131,326,o),
(298,314,cs),
(448,303,o),
(486,280,o),
(486,226,cs),
(486,171,o),
(448,130,o),
(320,130,cs),
(215,130,o),
(132,161,o),
(72,214,c),
(36,106,l),
(77,38,o),
(170,-12,o),
(311,-12,cs)
);
}
);
};
layerId = "405E6C65-E3FE-4E4D-8290-5BA54F6B8822";
name = "28 févr. 25 à 12:21";
shapes = (
{
closed = 1;
nodes = (
(491,-12,o),
(587,60,o),
(587,208,cs),
(587,328,o),
(514,373,o),
(340,386,cs),
(187,397,o),
(148,422,o),
(148,470,cs),
(148,519,o),
(191,557,o),
(318,558,cs),
(416,559,o),
(486,534,o),
(538,488,c),
(580,615,l),
(532,695,o),
(454,743,o),
(330,743,cs),
(164,743,o),
(53,660,o),
(53,508,cs),
(53,365,o),
(127,316,o),
(295,305,cs),
(444,293,o),
(486,273,o),
(486,226,cs),
(486,171,o),
(448,130,o),
(320,130,cs),
(215,130,o),
(132,161,o),
(72,214,c),
(36,106,l),
(77,38,o),
(170,-12,o),
(311,-12,cs)
);
}
);
width = 621;
},
{
anchors = (
{
name = bottom;
pos = (319,0);
},
{
name = top;
pos = (332,730);
}
);
associatedMasterId = "79167EE4-8C29-4BCE-A9E7-C1CFC4557E33";
background = {
shapes = (
{
closed = 1;
nodes = (
(472,-8,o),
(569,73,o),
(569,202,cs),
(569,313,o),
(513,364,o),
(319,387,cs),
(153,407,o),
(111,447,o),
(111,531,cs),
(111,608,o),
(166,673,o),
(315,676,cs),
(414,678,o),
(494,641,o),
(539,585,c),
(559,623,l),
(518,687,o),
(443,738,o),
(324,738,cs),
(176,738,o),
(68,657,o),
(68,529,cs),
(68,418,o),
(135,370,o),
(308,351,cs),
(477,332,o),
(527,291,o),
(527,208,cs),
(527,116,o),
(464,50,o),
(310,50,cs),
(214,50,o),
(121,88,o),
(76,144,c),
(56,106,l),
(97,42,o),
(183,-8,o),
(316,-8,cs)
);
}
);
};
layerId = "AA2A99A9-E688-4057-99D2-619D53D5D845";
name = "28 févr. 25 à 13:00";
shapes = (
{
closed = 1;
nodes = (
(472,-8,o),
(569,73,o),
(569,202,cs),
(569,313,o),
(513,364,o),
(319,387,cs),
(153,407,o),
(111,447,o),
(111,531,cs),
(111,608,o),
(166,673,o),
(315,676,cs),
(414,678,o),
(494,641,o),
(539,585,c),
(559,623,l),
(518,687,o),
(443,738,o),
(324,738,cs),
(176,738,o),
(68,657,o),
(68,529,cs),
(68,418,o),
(135,370,o),
(308,351,cs),
(477,332,o),
(527,291,o),
(527,208,cs),
(527,116,o),
(464,50,o),
(310,50,cs),
(214,50,o),
(121,88,o),
(76,144,c),
(56,106,l),
(97,42,o),
(183,-8,o),
(316,-8,cs)
);
}
);
width = 621;
}
);
unicode = 83;
},
{
glyphname = Germandbls;
lastChange = "2025-02-28 11:29:54 +0000";
layers = (
{
background = {
shapes = (
{
closed = 0;
nodes = (
(205,78,l),
(245,153,l)
);
},
{
closed = 0;
nodes = (
(233,150,l),
(284,85,l)
);
},
{
closed = 0;
nodes = (
(214,112,l),
(260,40,l)
);
}
);
};
layerId = "79167EE4-8C29-4BCE-A9E7-C1CFC4557E33";
shapes = (
{
closed = 1;
nodes = (
(598,-8,o),
(679,71,o),
(679,220,cs),
(679,344,o),
(595,411,o),
(436,416,c),
(431,390,l),
(624,643,l),
(624,692,l),
(580,718,o),
(486,738,o),
(399,738,cs),
(169,738,o),
(97,634,o),
(97,451,cs),
(97,0,l),
(129,0,l),
(129,450,ls),
(129,611,o),
(198,678,o),
(397,678,cs),
(475,678,o),
(558,660,o),
(596,639,c),
(601,665,l),
(387,385,l),
(388,367,l),
(577,370,o),
(646,306,o),
(646,211,cs),
(646,109,o),
(574,50,o),
(453,50,cs),
(368,50,o),
(284,85,o),
(239,142,c),
(219,104,l),
(260,40,o),
(335,-8,o),
(458,-8,cs)
);
}
);
width = 719;
},
{
layerId = "41EDA971-A137-4972-81AF-7929AB7CAABF";
shapes = (
{
closed = 1;
nodes = (
(581,-16,o),
(684,50,o),
(684,217,cs),
(684,339,o),
(627,414,o),
(512,432,c),
(502,396,l),
(641,531,l),
(641,697,l),
(598,724,o),
(510,746,o),
(393,746,cs),
(184,746,o),
(70,654,o),
(70,487,cs),
(70,0,l),
(164,0,l),
(164,341,ls),
(163,432,o),
(230,466,o),
(359,466,cs),
(419,466,o),
(465,458,o),
(484,449,c),
(464,462,l),
(363,373,l),
(390,281,l),
(567,284,o),
(601,269,o),
(601,238,cs),
(601,208,o),
(565,192,o),
(473,192,cs),
(363,192,o),
(312,207,o),
(269,239,c),
(215,91,l),
(251,22,o),
(328,-16,o),
(437,-16,cs)
);
}
);
width = 708;
},
{
associatedMasterId = "79167EE4-8C29-4BCE-A9E7-C1CFC4557E33";
layerId = "02915FC2-C982-4EA2-A6F8-D6AD64178E13";
name = "13 déc. 24 à 14:41";
shapes = (
{
closed = 1;
nodes = (
(604,-8,o),
(685,71,o),
(685,220,cs),
(685,344,o),
(601,411,o),
(442,416,c),
(437,390,l),
(630,643,l),
(630,692,l),
(593,718,o),
(514,738,o),
(415,738,cs),
(186,738,o),
(103,623,o),
(103,421,cs),
(103,0,l),
(135,0,l),
(135,420,ls),
(135,602,o),
(216,678,o),
(413,678,cs),
(502,678,o),
(571,660,o),
(602,639,c),
(607,665,l),
(393,385,l),
(394,367,l),
(583,370,o),
(652,306,o),
(652,211,cs),
(652,109,o),
(580,50,o),
(459,50,cs),
(374,50,o),
(287,87,o),
(243,143,c),
(227,103,l),
(261,43,o),
(341,-8,o),
(464,-8,cs)
);
}
);
width = 725;
},
{
associatedMasterId = "79167EE4-8C29-4BCE-A9E7-C1CFC4557E33";
attr = {
coordinates = (
550
);
};
layerId = "15822AC6-E406-436F-BECB-D8D597CE2868";
name = "28 févr. 25 à 12:24";
shapes = (
{
closed = 1;
nodes = (
(588,-12,o),
(682,59,o),
(682,218,cs),
(682,341,o),
(612,413,o),
(479,425,c),
(471,393,l),
(634,580,l),
(634,695,l),
(591,721,o),
(500,743,o),
(396,743,cs),
(177,743,o),
(82,645,o),
(82,471,cs),
(82,0,l),
(149,0,l),
(149,389,ls),
(148,511,o),
(216,559,o),
(376,559,cs),
(444,559,o),
(506,546,o),
(533,532,c),
(524,551,l),
(374,378,l),
(389,303,l),
(576,305,o),
(621,275,o),
(621,219,cs),
(621,163,o),
(569,130,o),
(464,130,cs),
(365,130,o),
(300,154,o),
(256,197,c),
(217,97,l),
(255,31,o),
(331,-12,o),
(446,-12,cs)
);
}
);
width = 713;
}
);
metricLeft = "=H";
unicode = 7838;
},
{
glyphname = T;
lastChange = "2024-12-16 12:08:43 +0000";
layers = (
{
anchors = (
{
name = bottom;
pos = (280,0);
},
{
name = top;
pos = (272,730);
}
);
layerId = "79167EE4-8C29-4BCE-A9E7-C1CFC4557E33";
shapes = (
{
closed = 1;
nodes = (
(553,672,l),
(553,730,l),
(10,730,l),
(10,672,l)
);
},
{
closed = 1;
nodes = (
(296,0,l),
(296,730,l),
(264,730,l),
(264,0,l)
);
}
);
width = 563;
},
{
anchors = (
{
name = bottom;
pos = (297,0);
},
{
name = top;
pos = (297,730);
}
);
layerId = "41EDA971-A137-4972-81AF-7929AB7CAABF";
shapes = (
{
closed = 1;
nodes = (
(583,440,l),
(583,730,l),
(10,730,l),
(10,440,l)
);
},
{
closed = 1;
nodes = (
(345,0,l),
(345,675,l),
(249,675,l),
(249,0,l)
);
}
);
width = 593;
}
);
unicode = 84;
},
{
glyphname = Tbar;
lastChange = "2025-02-28 11:29:54 +0000";
layers = (
{
layerId = "79167EE4-8C29-4BCE-A9E7-C1CFC4557E33";
shapes = (
{
closed = 1;
nodes = (
(488,340,l),
(488,390,l),
(72,390,l),
(72,340,l)
);
},
{
alignment = -1;
ref = T;
}
);
width = 540;
},
{
layerId = "41EDA971-A137-4972-81AF-7929AB7CAABF";
shapes = (
{
closed = 1;
nodes = (
(541,218,l),
(541,318,l),
(53,318,l),
(53,218,l)
);
},
{
alignment = -1;
ref = T;
}
);
width = 613;
},
{
associatedMasterId = "41EDA971-A137-4972-81AF-7929AB7CAABF";
layerId = "3482D092-8A5E-41B9-B764-CB8BB6D6B1DB";
name = "15 déc. 24 à 14:28";
shapes = (
{
closed = 1;
nodes = (
(556,176,l),
(556,358,l),
(62,358,l),
(62,176,l)
);
},
{
alignment = -1;
ref = T;
}
);
width = 613;
},
{
associatedMasterId = "79167EE4-8C29-4BCE-A9E7-C1CFC4557E33";
attr = {
coordinates = (
550
);
};
background = {
shapes = (
{
closed = 1;
nodes = (
(518,270,l),
(518,348,l),
(61,348,l),
(61,270,l)
);
}
);
};
layerId = "5BADADB0-4764-449B-A17D-DBD4B25705B5";
name = "28 févr. 25 à 12:23";
shapes = (
{
closed = 1;
nodes = (
(518,266,l),
(518,352,l),
(61,352,l),
(61,266,l)
);
},
{
alignment = -1;
ref = T;
}
);
width = 581;
}
);
unicode = 358;
},
{
glyphname = U;
lastChange = "2025-03-05 10:48:47 +0000";
layers = (
{
anchors = (
{
name = ogonek;
pos = (549,0);
},
{
name = top;
pos = (364,730);
}
);
layerId = "79167EE4-8C29-4BCE-A9E7-C1CFC4557E33";
shapes = (
{
closed = 1;
nodes = (
(506,-8,o),
(624,87,o),
(624,300,cs),
(624,730,l),
(592,730,l),
(592,310,ls),
(592,132,o),
(506,50,o),
(356,50,cs),
(201,50,o),
(114,132,o),
(114,310,cs),
(114,730,l),
(82,730,l),
(82,301,ls),
(82,91,o),
(175,-8,o),
(358,-8,cs)
);
}
);
width = 706;
},
{
anchors = (
{
name = ogonek;
pos = (404,0);
},
{
name = top;
pos = (365,730);
}
);
layerId = "41EDA971-A137-4972-81AF-7929AB7CAABF";
shapes = (
{
closed = 1;
nodes = (
(559,-16,o),
(662,95,o),
(662,341,cs),
(662,730,l),
(566,730,l),
(566,393,ls),
(566,262,o),
(506,202,o),
(365,202,cs),
(224,202,o),
(156,262,o),
(156,393,cs),
(156,730,l),
(60,730,l),
(60,318,ls),
(60,72,o),
(174,-16,o),
(364,-16,cs)
);
}
);
width = 722;
}
);
unicode = 85;
},
{
color = 3;
glyphname = Uogonek;
lastChange = "2024-12-15 12:16:50 +0000";
layers = (
{
background = {
shapes = (
{
ref = U;
},
{
pos = (299,0);
ref = ogonekcomb;
}
);
};
layerId = "79167EE4-8C29-4BCE-A9E7-C1CFC4557E33";
shapes = (
{
ref = U;
},
{
closed = 1;
nodes = (
(559,-203,o),
(588,-185,o),
(601,-160,c),
(593,-125,l),
(576,-140,o),
(553,-150,o),
(521,-150,cs),
(482,-150,o),
(460,-135,o),
(460,-99,cs),
(460,-57,o),
(483,-8,o),
(558,79,c),
(533,82,l),
(458,4,o),
(421,-58,o),
(421,-119,cs),
(421,-177,o),
(458,-203,o),
(516,-203,cs)
);
}
);
width = 706;
},
{
layerId = "41EDA971-A137-4972-81AF-7929AB7CAABF";
shapes = (
{
ref = U;
},
{
closed = 1;
nodes = (
(417,-221,o),
(466,-185,o),
(484,-141,c),
(455,-55,l),
(433,-76,o),
(406,-94,o),
(380,-94,cs),
(361,-94,o),
(348,-84,o),
(348,-71,cs),
(348,-54,o),
(363,-31,o),
(448,0,c),
(381,25,l),
(277,-17,o),
(240,-60,o),
(240,-120,cs),
(240,-184,o),
(285,-221,o),
(359,-221,cs)
);
}
);
width = 712;
}
);
unicode = 370;
},
{
glyphname = V;
lastChange = "2024-12-16 11:24:46 +0000";
layers = (
{
anchors = (
{
name = top;
pos = (325,730);
}
);
layerId = "79167EE4-8C29-4BCE-A9E7-C1CFC4557E33";
shapes = (
{
closed = 1;
nodes = (
(345,0,l),
(655,730,l),
(605,730,l),
(313,44,l),
(330,35,l),
(35,730,l),
(0,730,l),
(310,0,l)
);
}
);
width = 655;
},
{
anchors = (
{
name = top;
pos = (347,730);
}
);
layerId = "41EDA971-A137-4972-81AF-7929AB7CAABF";
shapes = (
{
closed = 1;
nodes = (
(423,0,l),
(738,730,l),
(485,730,l),
(270,230,l),
(296,230,l),
(103,730,l),
(0,730,l),
(282,0,l)
);
}
);
width = 738;
},
{
associatedMasterId = "79167EE4-8C29-4BCE-A9E7-C1CFC4557E33";
background = {
shapes = (
{
closed = 1;
nodes = (
(356,0,l),
(665,730,l),
(613,730,l),
(320,39,l),
(333,39,l),
(35,730,l),
(0,730,l),
(315,0,l)
);
}
);
};
layerId = "249AD5D4-D705-43BD-B6C5-2B36862E5220";
name = "12 déc. 24 à 15:05";
shapes = (
{
closed = 1;
nodes = (
(353,0,l),
(665,730,l),
(613,730,l),
(317,39,l),
(331,39,l),
(35,730,l),
(0,730,l),
(312,0,l)
);
}
);
width = 665;
},
{
anchors = (
{
name = top;
pos = (325,730);
}
);
associatedMasterId = "79167EE4-8C29-4BCE-A9E7-C1CFC4557E33";
layerId = "CADA66EC-DF50-492D-BCB7-95C058776E72";
name = "16 déc. 24 à 12:05";
shapes = (
{
closed = 1;
nodes = (
(346,0,l),
(656,730,l),
(604,730,l),
(312,44,l),
(330,35,l),
(35,730,l),
(0,730,l),
(310,0,l)
);
}
);
width = 656;
},
{
anchors = (
{
name = top;
pos = (347,730);
}
);
associatedMasterId = "41EDA971-A137-4972-81AF-7929AB7CAABF";
layerId = "D96000DD-990E-4956-BC7A-E51BFBD6A5D5";
name = "16 déc. 24 à 12:24";
shapes = (
{
closed = 1;
nodes = (
(423,0,l),
(738,730,l),
(472,730,l),
(257,230,l),
(296,230,l),
(103,730,l),
(0,730,l),
(282,0,l)
);
}
);
width = 738;
}
);
unicode = 86;
},
{
glyphname = W;
lastChange = "2024-12-16 11:26:40 +0000";
layers = (
{
anchors = (
{
name = top;
pos = (460,730);
}
);
layerId = "79167EE4-8C29-4BCE-A9E7-C1CFC4557E33";
shapes = (
{
closed = 1;
nodes = (
(264,0,l),
(461,581,l),
(449,581,l),
(645,0,l),
(680,0,l),
(908,730,l),
(860,730,l),
(645,41,l),
(665,41,l),
(465,633,l),
(430,633,l),
(229,41,l),
(250,41,l),
(34,730,l),
(0,730,l),
(229,0,l)
);
}
);
width = 908;
},
{
anchors = (
{
name = top;
pos = (465,730);
}
);
layerId = "41EDA971-A137-4972-81AF-7929AB7CAABF";
shapes = (
{
closed = 1;
nodes = (
(378,0,l),
(519,373,l),
(485,373,l),
(603,0,l),
(755,0,l),
(986,730,l),
(743,730,l),
(583,224,l),
(629,224,l),
(501,658,l),
(377,658,l),
(211,211,l),
(265,211,l),
(101,730,l),
(0,730,l),
(230,0,l)
);
}
);
width = 986;
},
{
anchors = (
{
name = top;
pos = (460,730);
}
);
associatedMasterId = "79167EE4-8C29-4BCE-A9E7-C1CFC4557E33";
layerId = "897E51AC-01DA-408F-AA0D-5F35D0992413";
name = "12 déc. 24 à 15:07";
shapes = (
{
closed = 1;
nodes = (
(268,0,l),
(462,581,l),
(441,601,l),
(642,0,l),
(684,0,l),
(909,730,l),
(859,730,l),
(644,33,l),
(662,41,l),
(464,633,l),
(429,633,l),
(231,41,l),
(249,33,l),
(34,730,l),
(0,730,l),
(225,0,l)
);
}
);
width = 909;
},
{
anchors = (
{
name = top;
pos = (460,730);
}
);
associatedMasterId = "79167EE4-8C29-4BCE-A9E7-C1CFC4557E33";
layerId = "04F43338-C57B-4304-B755-033B89BA3B95";
name = "16 déc. 24 à 12:05";
shapes = (
{
closed = 1;
nodes = (
(265,0,l),
(462,581,l),
(449,581,l),
(645,0,l),
(681,0,l),
(909,730,l),
(859,730,l),
(644,41,l),
(665,41,l),
(465,633,l),
(429,633,l),
(228,41,l),
(250,41,l),
(34,730,l),
(0,730,l),
(229,0,l)
);
}
);
width = 909;
},
{
anchors = (
{
name = top;
pos = (465,730);
}
);
associatedMasterId = "41EDA971-A137-4972-81AF-7929AB7CAABF";
layerId = "F9E5C5CF-6029-497C-8D0B-7ABAFAFF113F";
name = "16 déc. 24 à 12:25";
shapes = (
{
closed = 1;
nodes = (
(378,0,l),
(536,373,l),
(485,373,l),
(603,0,l),
(749,0,l),
(980,730,l),
(747,730,l),
(567,154,l),
(653,153,l),
(501,658,l),
(385,658,l),
(198,154,l),
(283,154,l),
(101,730,l),
(0,730,l),
(230,0,l)
);
}
);
width = 980;
}
);
metricLeft = "=V";
metricRight = "=V";
unicode = 87;
},
{
glyphname = X;
lastChange = "2024-12-16 12:10:00 +0000";
layers = (
{
anchors = (
{
name = top;
pos = (319,730);
}
);
layerId = "79167EE4-8C29-4BCE-A9E7-C1CFC4557E33";
shapes = (
{
closed = 1;
nodes = (
(97,0,l),
(332,334,l),
(346,352,l),
(609,730,l),
(553,730,l),
(313,385,l),
(309,381,l),
(41,0,l)
);
},
{
closed = 1;
nodes = (
(609,0,l),
(345,361,l),
(319,342,l),
(569,0,l)
);
},
{
closed = 1;
nodes = (
(328,384,l),
(75,730,l),
(36,730,l),
(305,361,l)
);
}
);
width = 634;
},
{
anchors = (
{
name = top;
pos = (378,730);
}
);
layerId = "41EDA971-A137-4972-81AF-7929AB7CAABF";
shapes = (
{
closed = 1;
nodes = (
(277,0,l),
(434,255,l),
(464,290,l),
(732,730,l),
(461,730,l),
(310,484,l),
(278,446,l),
(6,0,l)
);
},
{
closed = 1;
nodes = (
(705,0,l),
(461,344,l),
(399,266,l),
(587,0,l)
);
},
{
closed = 1;
nodes = (
(376,432,l),
(162,730,l),
(47,730,l),
(313,353,l)
);
}
);
width = 734;
},
{
anchors = (
{
name = top;
pos = (319,730);
}
);
associatedMasterId = "79167EE4-8C29-4BCE-A9E7-C1CFC4557E33";
layerId = "509E6A2C-CC4D-43F2-A330-8A3935045D9B";
name = "16 déc. 24 à 12:05";
shapes = (
{
closed = 1;
nodes = (
(99,0,l),
(334,335,l),
(348,352,l),
(609,730,l),
(551,730,l),
(311,384,l),
(307,380,l),
(41,0,l)
);
},
{
closed = 1;
nodes = (
(609,0,l),
(345,361,l),
(319,342,l),
(569,0,l)
);
},
{
closed = 1;
nodes = (
(328,384,l),
(75,730,l),
(36,730,l),
(305,361,l)
);
}
);
width = 634;
},
{
anchors = (
{
name = top;
pos = (371,730);
}
);
associatedMasterId = "41EDA971-A137-4972-81AF-7929AB7CAABF";
layerId = "320407A0-914D-45EA-9B95-F5B6589A1655";
name = "16 déc. 24 à 12:27";
shapes = (
{
closed = 1;
nodes = (
(265,0,l),
(406,238,l),
(442,277,l),
(720,730,l),
(454,730,l),
(310,486,l),
(275,442,l),
(0,0,l)
);
},
{
closed = 1;
nodes = (
(691,0,l),
(454,344,l),
(392,266,l),
(574,0,l)
);
},
{
closed = 1;
nodes = (
(369,432,l),
(162,730,l),
(47,730,l),
(306,353,l)
);
}
);
width = 720;
},
{
anchors = (
{
name = top;
pos = (371,730);
}
);
associatedMasterId = "41EDA971-A137-4972-81AF-7929AB7CAABF";
layerId = "795F13FC-9E1D-406B-B2C3-F3BDAF290DA2";
name = "16 déc. 24 à 13:09";
shapes = (
{
closed = 1;
nodes = (
(691,0,l),
(454,344,l),
(392,266,l),
(574,0,l)
);
},
{
closed = 1;
nodes = (
(369,432,l),
(162,730,l),
(47,730,l),
(306,353,l)
);
},
{
closed = 1;
nodes = (
(276,0,l),
(427,255,l),
(457,290,l),
(718,730,l),
(448,730,l),
(303,484,l),
(271,446,l),
(6,0,l)
);
}
);
width = 720;
}
);
unicode = 88;
},
{
glyphname = Y;
lastChange = "2025-02-27 10:35:44 +0000";
layers = (
{
anchors = (
{
name = top;
pos = (305,730);
}
);
layerId = "79167EE4-8C29-4BCE-A9E7-C1CFC4557E33";
shapes = (
{
closed = 1;
nodes = (
(313,294,l),
(599,730,l),
(544,730,l),
(288,340,l),
(309,340,l),
(53,730,l),
(15,730,l),
(301,294,l)
);
},
{
closed = 1;
nodes = (
(323,0,l),
(323,336,l),
(291,336,l),
(291,0,l)
);
}
);
width = 600;
},
{
anchors = (
{
name = top;
pos = (324,730);
}
);
background = {
shapes = (
{
closed = 1;
nodes = (
(351,210,l),
(708,730,l),
(427,730,l),
(234,452,l),
(269,451,l),
(111,730,l),
(0,730,l),
(292,210,l)
);
},
{
closed = 1;
nodes = (
(372,0,l),
(372,321,l),
(276,321,l),
(276,0,l)
);
}
);
};
layerId = "41EDA971-A137-4972-81AF-7929AB7CAABF";
shapes = (
{
closed = 1;
nodes = (
(367,210,l),
(708,730,l),
(431,730,l),
(248,452,l),
(277,452,l),
(112,730,l),
(0,730,l),
(309,210,l)
);
},
{
closed = 1;
nodes = (
(387,0,l),
(387,321,l),
(291,321,l),
(291,0,l)
);
}
);
width = 708;
},
{
anchors = (
{
name = top;
pos = (309,730);
}
);
associatedMasterId = "79167EE4-8C29-4BCE-A9E7-C1CFC4557E33";
layerId = "F4BA8D0E-522F-42F8-9016-18B1F41184CC";
name = "16 déc. 24 à 12:17";
shapes = (
{
closed = 1;
nodes = (
(322,294,l),
(607,730,l),
(550,730,l),
(295,340,l),
(318,340,l),
(53,730,l),
(15,730,l),
(310,294,l)
);
},
{
closed = 1;
nodes = (
(331,0,l),
(331,336,l),
(299,336,l),
(299,0,l)
);
}
);
width = 608;
},
{
anchors = (
{
name = top;
pos = (318,730);
}
);
associatedMasterId = "41EDA971-A137-4972-81AF-7929AB7CAABF";
layerId = "F27B8C21-9E04-4267-9E61-76CB4BD8523E";
name = "16 déc. 24 à 12:33";
shapes = (
{
closed = 1;
nodes = (
(345,210,l),
(696,730,l),
(402,730,l),
(213,452,l),
(263,451,l),
(110,730,l),
(0,730,l),
(286,210,l)
);
},
{
closed = 1;
nodes = (
(366,0,l),
(366,321,l),
(270,321,l),
(270,0,l)
);
}
);
width = 696;
},
{
anchors = (
{
name = top;
pos = (309,730);
}
);
associatedMasterId = "79167EE4-8C29-4BCE-A9E7-C1CFC4557E33";
layerId = "B7726C91-944B-41BE-84BD-A067EC94BE04";
name = "16 déc. 24 à 13:16";
shapes = (
{
closed = 1;
nodes = (
(322,294,l),
(607,730,l),
(552,730,l),
(297,340,l),
(318,340,l),
(53,730,l),
(15,730,l),
(310,294,l)
);
},
{
closed = 1;
nodes = (
(331,0,l),
(331,336,l),
(299,336,l),
(299,0,l)
);
}
);
width = 608;
},
{
anchors = (
{
name = top;
pos = (305,730);
}
);
associatedMasterId = "79167EE4-8C29-4BCE-A9E7-C1CFC4557E33";
layerId = "8BC176B7-7808-4711-BF6D-0C1A74C4B302";
name = "27 févr. 25 à 11:31";
shapes = (
{
closed = 1;
nodes = (
(318,294,l),
(599,730,l),
(544,730,l),
(293,340,l),
(314,340,l),
(53,730,l),
(15,730,l),
(306,294,l)
);
},
{
closed = 1;
nodes = (
(327,0,l),
(327,336,l),
(295,336,l),
(295,0,l)
);
}
);
width = 600;
},
{
anchors = (
{
name = top;
pos = (305,730);
}
);
associatedMasterId = "79167EE4-8C29-4BCE-A9E7-C1CFC4557E33";
layerId = "34CE6F7F-7524-4CC3-98F4-E4DBAD41E89D";
name = "27 févr. 25 à 11:31";
shapes = (
{
closed = 1;
nodes = (
(318,294,l),
(599,730,l),
(544,730,l),
(293,340,l),
(314,340,l),
(53,730,l),
(15,730,l),
(306,294,l)
);
},
{
closed = 1;
nodes = (
(323,0,l),
(323,336,l),
(291,336,l),
(291,0,l)
);
}
);
width = 600;
},
{
anchors = (
{
name = top;
pos = (324,730);
}
);
associatedMasterId = "41EDA971-A137-4972-81AF-7929AB7CAABF";
layerId = "6A3C39A9-57EB-406E-B8F8-3E7C95D876C9";
name = "27 févr. 25 à 11:32";
shapes = (
{
closed = 1;
nodes = (
(351,210,l),
(708,730,l),
(427,730,l),
(234,452,l),
(269,451,l),
(111,730,l),
(0,730,l),
(292,210,l)
);
},
{
closed = 1;
nodes = (
(372,0,l),
(372,321,l),
(276,321,l),
(276,0,l)
);
}
);
width = 708;
},
{
anchors = (
{
name = top;
pos = (324,730);
}
);
associatedMasterId = "41EDA971-A137-4972-81AF-7929AB7CAABF";
background = {
shapes = (
{
closed = 1;
nodes = (
(351,210,l),
(708,730,l),
(427,730,l),
(234,452,l),
(269,451,l),
(111,730,l),
(0,730,l),
(292,210,l)
);
},
{
closed = 1;
nodes = (
(372,0,l),
(372,321,l),
(276,321,l),
(276,0,l)
);
}
);
};
layerId = "A1405DA0-62C6-4D64-9419-D30CD0C57882";
name = "27 févr. 25 à 11:35";
shapes = (
{
closed = 1;
nodes = (
(383,210,l),
(708,730,l),
(435,730,l),
(261,452,l),
(287,452,l),
(113,730,l),
(0,730,l),
(325,210,l)
);
},
{
closed = 1;
nodes = (
(402,0,l),
(402,321,l),
(306,321,l),
(306,0,l)
);
}
);
width = 708;
}
);
unicode = 89;
},
{
glyphname = Z;
lastChange = "2024-12-16 12:19:06 +0000";
layers = (
{
anchors = (
{
name = top;
pos = (342,730);
}
);
layerId = "79167EE4-8C29-4BCE-A9E7-C1CFC4557E33";
shapes = (
{
closed = 1;
nodes = (
(606,0,l),
(606,54,l),
(68,54,l),
(57,21,l),
(595,685,l),
(595,730,l),
(66,730,l),
(66,672,l),
(563,672,l),
(577,714,l),
(36,46,l),
(36,0,l)
);
}
);
width = 630;
},
{
anchors = (
{
name = top;
pos = (331,730);
}
);
layerId = "41EDA971-A137-4972-81AF-7929AB7CAABF";
shapes = (
{
closed = 1;
nodes = (
(614,0,l),
(614,218,l),
(223,218,l),
(231,208,l),
(597,465,l),
(597,730,l),
(53,730,l),
(53,440,l),
(419,440,l),
(419,457,l),
(36,187,l),
(36,0,l)
);
}
);
width = 630;
},
{
anchors = (
{
name = top;
pos = (330,730);
}
);
associatedMasterId = "41EDA971-A137-4972-81AF-7929AB7CAABF";
layerId = "6CC3AE17-6340-4831-B1CB-A588D6983E03";
name = "16 déc. 24 à 13:18";
shapes = (
{
closed = 1;
nodes = (
(612,0,l),
(612,218,l),
(223,218,l),
(231,208,l),
(595,465,l),
(595,730,l),
(53,730,l),
(53,440,l),
(417,440,l),
(417,457,l),
(36,187,l),
(36,0,l)
);
}
);
width = 628;
}
);
unicode = 90;
},
{
glyphname = a;
lastChange = "2025-02-28 11:44:16 +0000";
layers = (
{
anchors = (
{
name = ogonek;
pos = (458,0);
},
{
name = top;
pos = (273,548);
}
);
background = {
shapes = (
{
closed = 0;
nodes = (
(97,418,l),
(63,483,l)
);
},
{
closed = 0;
nodes = (
(122,466,l),
(87,421,l)
);
},
{
closed = 0;
nodes = (
(104,506,l),
(70,453,l)
);
}
);
};
layerId = "79167EE4-8C29-4BCE-A9E7-C1CFC4557E33";
shapes = (
{
closed = 1;
nodes = (
(477,0,l),
(465,56,o),
(457,122,o),
(457,179,cs),
(457,371,ls),
(457,492,o),
(399,556,o),
(273,556,cs),
(161,556,o),
(104,506,o),
(75,460,c),
(92,427,l),
(122,466,o),
(192,498,o),
(265,498,cs),
(373,498,o),
(427,457,o),
(427,356,cs),
(427,162,ls),
(427,119,o),
(435,53,o),
(447,0,c)
);
},
{
closed = 1;
nodes = (
(426,93,o),
(340,46,o),
(247,46,cs),
(136,46,o),
(84,91,o),
(84,156,cs),
(84,223,o),
(138,266,o),
(257,266,cs),
(381,266,o),
(428,242,o),
(427,182,cs)
);
},
{
closed = 1;
nodes = (
(437,232,l),
(434,274,o),
(374,308,o),
(265,308,cs),
(123,308,o),
(48,247,o),
(48,148,cs),
(48,54,o),
(111,-8,o),
(242,-8,cs),
(330,-8,o),
(431,42,o),
(434,126,c)
);
}
);
width = 537;
},
{
anchors = (
{
name = ogonek;
pos = (419,0);
},
{
name = top;
pos = (245,556);
}
);
background = {
shapes = (
{
closed = 0;
nodes = (
(26,474,l),
(82,283,l)
);
},
{
closed = 0;
nodes = (
(66,525,l),
(25,451,l)
);
},
{
closed = 0;
nodes = (
(116,322,l),
(67,289,l)
);
},
{
closed = 0;
nodes = (
(26,474,l),
(82,283,l)
);
},
{
closed = 0;
nodes = (
(116,322,l),
(67,289,l)
);
},
{
closed = 0;
nodes = (
(66,525,l),
(25,451,l)
);
}
);
};
layerId = "41EDA971-A137-4972-81AF-7929AB7CAABF";
shapes = (
{
closed = 1;
nodes = (
(472,0,l),
(461,55,o),
(453,110,o),
(453,179,cs),
(453,378,ls),
(453,505,o),
(386,572,o),
(253,572,cs),
(123,572,o),
(66,525,o),
(30,459,c),
(78,296,l),
(116,322,o),
(159,335,o),
(238,335,cs),
(334,335,o),
(361,318,o),
(361,276,cs),
(361,136,ls),
(361,68,o),
(370,30,o),
(378,0,c)
);
},
{
closed = 1;
nodes = (
(361,185,o),
(335,173,o),
(245,173,cs),
(139,173,o),
(121,182,o),
(121,200,cs),
(121,219,o),
(141,226,o),
(245,226,cs),
(340,226,o),
(361,218,o),
(361,202,cs)
);
},
{
closed = 1;
nodes = (
(380,253,l),
(373,278,o),
(316,294,o),
(227,294,cs),
(86,294,o),
(12,246,o),
(12,140,cs),
(12,50,o),
(63,-16,o),
(196,-16,cs),
(315,-16,o),
(373,51,o),
(373,130,c)
);
}
);
width = 492;
},
{
anchors = (
{
name = ogonek;
pos = (458,0);
},
{
name = top;
pos = (269,548);
}
);
associatedMasterId = "79167EE4-8C29-4BCE-A9E7-C1CFC4557E33";
background = {
shapes = (
{
closed = 1;
nodes = (
(477,0,l),
(465,56,o),
(457,122,o),
(457,179,cs),
(457,371,ls),
(457,504,o),
(391,556,o),
(275,556,cs),
(187,556,o),
(114,527,o),
(78,464,c),
(92,427,l),
(121,463,o),
(185,498,o),
(267,498,cs),
(378,498,o),
(427,457,o),
(427,356,cs),
(427,162,ls),
(427,119,o),
(435,53,o),
(447,0,c)
);
},
{
closed = 1;
nodes = (
(412,263,l),
(379,288,o),
(320,304,o),
(260,304,cs),
(125,304,o),
(48,245,o),
(48,151,cs),
(48,53,o),
(107,-8,o),
(243,-8,cs),
(329,-8,o),
(431,42,o),
(434,126,c),
(427,177,l),
(426,96,o),
(340,46,o),
(247,46,cs),
(132,46,o),
(78,90,o),
(78,154,cs),
(78,223,o),
(139,270,o),
(257,270,cs),
(317,270,o),
(372,258,o),
(402,232,c)
);
}
);
};
layerId = "423188B3-649E-4CF9-AF69-383851C264C2";
name = "12 déc. 24 à 15:26";
shapes = (
{
closed = 1;
nodes = (
(477,0,l),
(465,56,o),
(457,122,o),
(457,179,cs),
(457,371,ls),
(457,504,o),
(391,556,o),
(275,556,cs),
(187,556,o),
(114,527,o),
(78,464,c),
(92,427,l),
(121,463,o),
(185,498,o),
(267,498,cs),
(378,498,o),
(427,457,o),
(427,356,cs),
(427,162,ls),
(427,119,o),
(435,53,o),
(447,0,c)
);
},
{
closed = 1;
nodes = (
(442,253,l),
(402,288,o),
(332,304,o),
(260,304,cs),
(125,304,o),
(48,243,o),
(48,143,cs),
(48,49,o),
(107,-8,o),
(243,-8,cs),
(329,-8,o),
(431,42,o),
(434,126,c),
(427,177,l),
(426,96,o),
(340,46,o),
(247,46,cs),
(136,46,o),
(84,90,o),
(84,154,cs),
(84,223,o),
(138,270,o),
(257,270,cs),
(329,270,o),
(395,258,o),
(432,222,c)
);
}
);
width = 537;
},
{
anchors = (
{
name = ogonek;
pos = (458,0);
},
{
name = top;
pos = (269,548);
}
);
associatedMasterId = "79167EE4-8C29-4BCE-A9E7-C1CFC4557E33";
layerId = "2A21D06D-528A-4A60-AD93-47A23FA45AAF";
name = "12 déc. 24 à 15:28";
shapes = (
{
closed = 1;
nodes = (
(477,0,l),
(465,56,o),
(457,122,o),
(457,179,cs),
(457,371,ls),
(457,504,o),
(391,556,o),
(275,556,cs),
(187,556,o),
(114,527,o),
(78,465,c),
(92,427,l),
(121,463,o),
(185,498,o),
(267,498,cs),
(378,498,o),
(427,457,o),
(427,356,cs),
(427,162,ls),
(427,119,o),
(435,53,o),
(447,0,c)
);
},
{
closed = 1;
nodes = (
(442,253,l),
(402,288,o),
(332,304,o),
(260,304,cs),
(125,304,o),
(48,243,o),
(48,143,cs),
(48,49,o),
(107,-8,o),
(243,-8,cs),
(329,-8,o),
(431,42,o),
(434,126,c),
(427,177,l),
(426,96,o),
(340,46,o),
(247,46,cs),
(136,46,o),
(84,90,o),
(84,154,cs),
(84,223,o),
(138,270,o),
(257,270,cs),
(329,270,o),
(395,258,o),
(432,222,c)
);
}
);
width = 537;
},
{
anchors = (
{
name = ogonek;
pos = (419,0);
},
{
name = top;
pos = (245,556);
}
);
associatedMasterId = "41EDA971-A137-4972-81AF-7929AB7CAABF";
layerId = "585FAFE5-AFD3-4332-AD0F-59966626F8F7";
name = "12 déc. 24 à 16:28";
shapes = (
{
closed = 1;
nodes = (
(472,0,l),
(461,55,o),
(453,110,o),
(453,179,cs),
(453,378,ls),
(453,505,o),
(386,572,o),
(253,572,cs),
(123,572,o),
(66,523,o),
(33,464,c),
(75,294,l),
(112,321,o),
(159,335,o),
(238,335,cs),
(334,335,o),
(361,318,o),
(361,276,cs),
(361,136,ls),
(361,68,o),
(370,30,o),
(378,0,c)
);
},
{
closed = 1;
nodes = (
(373,272,l),
(336,287,o),
(286,294,o),
(227,294,cs),
(86,294,o),
(12,246,o),
(12,135,cs),
(12,50,o),
(62,-16,o),
(199,-16,cs),
(314,-16,o),
(373,51,o),
(373,130,c),
(361,213,l),
(361,182,o),
(335,173,o),
(245,173,cs),
(144,173,o),
(121,182,o),
(121,200,cs),
(121,219,o),
(146,226,o),
(245,226,cs),
(299,226,o),
(345,218,o),
(363,211,c)
);
}
);
width = 492;
},
{
anchors = (
{
name = ogonek;
pos = (458,0);
},
{
name = top;
pos = (269,548);
}
);
associatedMasterId = "79167EE4-8C29-4BCE-A9E7-C1CFC4557E33";
layerId = "46FF8B88-65E4-4337-B7B3-3B66F9F1532F";
name = "13 déc. 24 à 12:55";
shapes = (
{
closed = 1;
nodes = (
(477,0,l),
(465,56,o),
(457,122,o),
(457,179,cs),
(457,371,ls),
(457,504,o),
(391,556,o),
(275,556,cs),
(187,556,o),
(114,527,o),
(78,465,c),
(92,427,l),
(121,463,o),
(185,498,o),
(267,498,cs),
(378,498,o),
(427,457,o),
(427,356,cs),
(427,162,ls),
(427,119,o),
(435,53,o),
(447,0,c)
);
},
{
closed = 1;
nodes = (
(426,93,o),
(340,46,o),
(247,46,cs),
(136,46,o),
(84,91,o),
(84,156,cs),
(84,225,o),
(138,270,o),
(257,270,cs),
(381,270,o),
(428,245,o),
(427,182,cs)
);
},
{
closed = 1;
nodes = (
(435,232,l),
(432,271,o),
(371,304,o),
(263,304,cs),
(121,304,o),
(48,245,o),
(48,146,cs),
(48,55,o),
(109,-8,o),
(242,-8,cs),
(330,-8,o),
(431,42,o),
(434,126,c)
);
}
);
width = 537;
},
{
anchors = (
{
name = ogonek;
pos = (458,0);
},
{
name = top;
pos = (269,548);
}
);
associatedMasterId = "79167EE4-8C29-4BCE-A9E7-C1CFC4557E33";
background = {
shapes = (
{
closed = 0;
nodes = (
(62,268,l),
(100,196,l)
);
},
{
closed = 0;
nodes = (
(88,199,l),
(127,250,l)
);
},
{
closed = 0;
nodes = (
(70,235,l),
(107,294,l)
);
},
{
pos = (-14,0);
ref = o;
}
);
};
layerId = "E7E9A813-B7AC-4B25-8E7A-6845CA12C224";
name = "13 déc. 24 à 13:04";
shapes = (
{
closed = 1;
nodes = (
(477,0,l),
(465,56,o),
(457,122,o),
(457,179,cs),
(457,371,ls),
(457,504,o),
(391,556,o),
(275,556,cs),
(170,556,o),
(107,515,o),
(75,464,c),
(94,428,l),
(127,471,o),
(199,498,o),
(267,498,cs),
(378,498,o),
(427,457,o),
(427,356,cs),
(427,162,ls),
(427,119,o),
(435,53,o),
(447,0,c)
);
},
{
closed = 1;
nodes = (
(426,93,o),
(340,46,o),
(247,46,cs),
(136,46,o),
(84,91,o),
(84,156,cs),
(84,225,o),
(138,270,o),
(257,270,cs),
(381,270,o),
(428,245,o),
(427,182,cs)
);
},
{
closed = 1;
nodes = (
(435,232,l),
(432,271,o),
(371,304,o),
(263,304,cs),
(121,304,o),
(48,245,o),
(48,146,cs),
(48,55,o),
(109,-8,o),
(242,-8,cs),
(330,-8,o),
(431,42,o),
(434,126,c)
);
}
);
width = 537;
},
{
anchors = (
{
name = ogonek;
pos = (458,0);
},
{
name = top;
pos = (269,548);
}
);
associatedMasterId = "79167EE4-8C29-4BCE-A9E7-C1CFC4557E33";
background = {
shapes = (
{
closed = 0;
nodes = (
(61,487,l),
(99,415,l)
);
},
{
closed = 0;
nodes = (
(87,418,l),
(126,469,l)
);
},
{
closed = 0;
nodes = (
(69,454,l),
(106,513,l)
);
}
);
};
layerId = "2C41C251-CB0A-4073-B65C-A3F75BE2C900";
name = "13 déc. 24 à 14:08";
shapes = (
{
closed = 1;
nodes = (
(477,0,l),
(465,56,o),
(457,122,o),
(457,179,cs),
(457,371,ls),
(457,492,o),
(399,556,o),
(273,556,cs),
(171,556,o),
(107,513,o),
(74,462,c),
(93,426,l),
(127,469,o),
(193,498,o),
(265,498,cs),
(373,498,o),
(427,457,o),
(427,356,cs),
(427,162,ls),
(427,119,o),
(435,53,o),
(447,0,c)
);
},
{
closed = 1;
nodes = (
(426,93,o),
(340,46,o),
(247,46,cs),
(136,46,o),
(84,91,o),
(84,156,cs),
(84,225,o),
(138,270,o),
(257,270,cs),
(381,270,o),
(428,245,o),
(427,182,cs)
);
},
{
closed = 1;
nodes = (
(435,232,l),
(432,271,o),
(371,304,o),
(263,304,cs),
(121,304,o),
(48,245,o),
(48,148,cs),
(48,54,o),
(111,-8,o),
(242,-8,cs),
(330,-8,o),
(431,42,o),
(434,126,c)
);
}
);
width = 537;
},
{
anchors = (
{
name = ogonek;
pos = (419,0);
},
{
name = top;
pos = (245,556);
}
);
associatedMasterId = "41EDA971-A137-4972-81AF-7929AB7CAABF";
layerId = "8F95CEA2-9551-46FF-AE09-7108B1F9407C";
name = "14 déc. 24 à 09:40";
shapes = (
{
closed = 1;
nodes = (
(472,0,l),
(461,55,o),
(453,110,o),
(453,179,cs),
(453,378,ls),
(453,505,o),
(386,572,o),
(253,572,cs),
(123,572,o),
(66,523,o),
(33,464,c),
(75,294,l),
(112,321,o),
(159,335,o),
(238,335,cs),
(334,335,o),
(361,318,o),
(361,276,cs),
(361,136,ls),
(361,68,o),
(370,30,o),
(378,0,c)
);
},
{
closed = 1;
nodes = (
(361,185,o),
(335,173,o),
(245,173,cs),
(144,173,o),
(121,182,o),
(121,200,cs),
(121,219,o),
(146,226,o),
(245,226,cs),
(340,226,o),
(361,218,o),
(361,203,cs)
);
},
{
closed = 1;
nodes = (
(383,238,l),
(373,278,o),
(326,294,o),
(227,294,cs),
(86,294,o),
(12,246,o),
(12,136,cs),
(12,50,o),
(63,-16,o),
(201,-16,cs),
(315,-16,o),
(373,51,o),
(373,130,c)
);
}
);
width = 492;
},
{
anchors = (
{
name = ogonek;
pos = (458,0);
},
{
name = top;
pos = (273,548);
}
);
associatedMasterId = "79167EE4-8C29-4BCE-A9E7-C1CFC4557E33";
background = {
shapes = (
{
closed = 0;
nodes = (
(97,418,l),
(63,483,l)
);
},
{
closed = 0;
nodes = (
(122,466,l),
(87,421,l)
);
},
{
closed = 0;
nodes = (
(104,506,l),
(70,453,l)
);
}
);
};
layerId = "27F0184A-63B6-435F-84BA-1926DAA8B4A0";
name = "28 févr. 25 à 12:27";
shapes = (
{
closed = 1;
nodes = (
(477,0,l),
(465,56,o),
(457,122,o),
(457,179,cs),
(457,371,ls),
(457,492,o),
(399,556,o),
(273,556,cs),
(161,556,o),
(104,506,o),
(75,460,c),
(92,427,l),
(122,466,o),
(192,498,o),
(265,498,cs),
(373,498,o),
(427,457,o),
(427,356,cs),
(427,162,ls),
(427,119,o),
(435,53,o),
(447,0,c)
);
},
{
closed = 1;
nodes = (
(426,93,o),
(340,46,o),
(247,46,cs),
(136,46,o),
(84,91,o),
(84,156,cs),
(84,223,o),
(138,267,o),
(257,267,cs),
(381,267,o),
(428,243,o),
(427,182,cs)
);
},
{
closed = 1;
nodes = (
(437,232,l),
(434,273,o),
(374,307,o),
(265,307,cs),
(123,307,o),
(48,247,o),
(48,148,cs),
(48,54,o),
(111,-8,o),
(242,-8,cs),
(330,-8,o),
(431,42,o),
(434,126,c)
);
}
);
width = 537;
},
{
anchors = (
{
name = ogonek;
pos = (436,0);
},
{
name = top;
pos = (257,553);
}
);
associatedMasterId = "79167EE4-8C29-4BCE-A9E7-C1CFC4557E33";
attr = {
coordinates = (
550
);
};
background = {
anchors = (
{
name = ogonek;
pos = (436,0);
},
{
name = top;
pos = (257,553);
}
);
shapes = (
{
closed = 1;
nodes = (
(474,0,l),
(463,55,o),
(455,115,o),
(455,179,cs),
(455,375,ls),
(455,499,o),
(392,565,o),
(262,565,cs),
(140,565,o),
(83,517,o),
(50,459,c),
(84,353,l),
(119,385,o),
(173,406,o),
(250,406,cs),
(351,406,o),
(390,379,o),
(390,311,cs),
(390,147,ls),
(390,90,o),
(398,41,o),
(408,0,c)
);
},
{
closed = 1;
nodes = (
(389,144,o),
(337,117,o),
(246,117,cs),
(138,117,o),
(105,142,o),
(105,181,cs),
(105,221,o),
(140,244,o),
(250,244,cs),
(358,244,o),
(390,228,o),
(390,193,cs)
);
},
{
closed = 1;
nodes = (
(405,244,l),
(400,275,o),
(341,300,o),
(244,300,cs),
(102,300,o),
(28,246,o),
(28,144,cs),
(28,52,o),
(84,-12,o),
(216,-12,cs),
(322,-12,o),
(398,46,o),
(400,128,c)
);
}
);
};
layerId = "5A165344-D93F-4E37-8467-6C5B7C0547FD";
name = "28 févr. 25 à 12:27";
shapes = (
{
closed = 1;
nodes = (
(474,0,l),
(463,55,o),
(455,115,o),
(455,179,cs),
(455,375,ls),
(455,499,o),
(392,565,o),
(262,565,cs),
(140,565,o),
(83,517,o),
(50,459,c),
(84,353,l),
(119,385,o),
(173,406,o),
(250,406,cs),
(351,406,o),
(390,379,o),
(390,311,cs),
(390,147,ls),
(390,90,o),
(398,41,o),
(408,0,c)
);
},
{
closed = 1;
nodes = (
(389,144,o),
(337,117,o),
(246,117,cs),
(138,117,o),
(105,141,o),
(105,179,cs),
(105,218,o),
(140,240,o),
(250,240,cs),
(358,240,o),
(390,225,o),
(390,189,cs)
);
},
{
closed = 1;
nodes = (
(405,250,l),
(400,279,o),
(341,304,o),
(244,304,cs),
(102,304,o),
(28,249,o),
(28,144,cs),
(28,52,o),
(84,-12,o),
(216,-12,cs),
(322,-12,o),
(398,46,o),
(400,128,c)
);
}
);
width = 512;
}
);
unicode = 97;
},
{
glyphname = ae;
lastChange = "2025-02-28 12:07:30 +0000";
layers = (
{
anchors = (
{
name = top;
pos = (472,548);
}
);
layerId = "79167EE4-8C29-4BCE-A9E7-C1CFC4557E33";
shapes = (
{
closed = 1;
nodes = (
(457,179,l),
(457,371,ls),
(457,492,o),
(399,556,o),
(273,556,cs),
(161,556,o),
(104,506,o),
(75,460,c),
(92,427,l),
(122,466,o),
(192,498,o),
(265,498,cs),
(373,498,o),
(427,457,o),
(427,356,cs),
(427,162,l)
);
},
{
closed = 1;
nodes = (
(344,-8,o),
(431,42,o),
(452,165,c),
(427,207,l),
(426,99,o),
(350,46,o),
(247,46,cs),
(136,46,o),
(84,91,o),
(84,156,cs),
(84,222,o),
(135,267,o),
(249,267,cs),
(437,267,l),
(437,307,l),
(254,307,ls),
(117,307,o),
(48,247,o),
(48,151,cs),
(48,54,o),
(109,-8,o),
(243,-8,cs)
);
},
{
alignment = -1;
pos = (385,0);
ref = e;
}
);
width = 921;
},
{
anchors = (
{
name = top;
pos = (439,556);
}
);
background = {
anchors = (
{
name = ogonek;
pos = (419,0);
},
{
name = top;
pos = (245,556);
}
);
shapes = (
{
closed = 1;
nodes = (
(472,0,l),
(461,55,o),
(453,110,o),
(453,179,cs),
(453,378,ls),
(453,505,o),
(386,572,o),
(253,572,cs),
(123,572,o),
(66,525,o),
(30,459,c),
(78,296,l),
(116,322,o),
(159,335,o),
(238,335,cs),
(334,335,o),
(361,318,o),
(361,276,cs),
(361,136,ls),
(361,68,o),
(370,30,o),
(378,0,c)
);
},
{
closed = 1;
nodes = (
(361,185,o),
(335,173,o),
(245,173,cs),
(139,173,o),
(121,182,o),
(121,200,cs),
(121,219,o),
(141,226,o),
(245,226,cs),
(340,226,o),
(361,218,o),
(361,202,cs)
);
},
{
closed = 1;
nodes = (
(380,253,l),
(373,278,o),
(316,294,o),
(227,294,cs),
(86,294,o),
(12,246,o),
(12,140,cs),
(12,50,o),
(63,-16,o),
(196,-16,cs),
(315,-16,o),
(373,51,o),
(373,130,c)
);
}
);
};
layerId = "41EDA971-A137-4972-81AF-7929AB7CAABF";
shapes = (
{
closed = 1;
nodes = (
(453,333,l),
(453,373,ls),
(453,507,o),
(386,572,o),
(253,572,cs),
(123,572,o),
(66,525,o),
(30,459,c),
(78,296,l),
(116,322,o),
(160,335,o),
(238,335,cs),
(334,335,o),
(361,318,o),
(361,276,cs),
(361,138,l)
);
},
{
closed = 1;
nodes = (
(316,-16,o),
(375,32,o),
(426,132,c),
(361,218,l),
(361,184,o),
(334,173,o),
(241,173,cs),
(137,173,o),
(121,183,o),
(121,199,cs),
(121,216,o),
(136,225,o),
(235,225,cs),
(373,225,l),
(373,293,l),
(227,293,ls),
(86,293,o),
(12,245,o),
(12,140,cs),
(12,50,o),
(62,-16,o),
(199,-16,cs)
);
},
{
alignment = -1;
pos = (340,0);
ref = e;
}
);
width = 859;
},
{
anchors = (
{
name = top;
pos = (442,548);
}
);
associatedMasterId = "79167EE4-8C29-4BCE-A9E7-C1CFC4557E33";
background = {
anchors = (
{
name = ogonek;
pos = (445,0);
},
{
name = top;
pos = (254,548);
}
);
shapes = (
{
closed = 1;
nodes = (
(457,179,l),
(457,371,ls),
(457,504,o),
(391,556,o),
(275,556,cs),
(187,556,o),
(114,527,o),
(78,464,c),
(92,427,l),
(121,463,o),
(185,498,o),
(267,498,cs),
(378,498,o),
(427,457,o),
(427,356,cs),
(427,162,l)
);
},
{
closed = 1;
nodes = (
(442,253,l),
(402,288,o),
(332,304,o),
(260,304,cs),
(125,304,o),
(48,245,o),
(48,151,cs),
(48,53,o),
(107,-8,o),
(243,-8,cs),
(329,-8,o),
(431,42,o),
(434,126,c),
(427,177,l),
(426,96,o),
(340,46,o),
(247,46,cs),
(132,46,o),
(78,90,o),
(78,154,cs),
(78,223,o),
(139,270,o),
(257,270,cs),
(329,270,o),
(395,258,o),
(432,222,c)
);
}
);
};
layerId = "87995BAB-77DA-4D2B-89E0-7271FCB339BB";
name = "13 déc. 24 à 14:43";
shapes = (
{
closed = 1;
nodes = (
(457,179,l),
(457,371,ls),
(457,504,o),
(391,556,o),
(275,556,cs),
(187,556,o),
(114,527,o),
(78,464,c),
(92,427,l),
(121,463,o),
(185,498,o),
(267,498,cs),
(378,498,o),
(427,457,o),
(427,356,cs),
(427,162,l)
);
},
{
closed = 1;
nodes = (
(344,-8,o),
(431,42,o),
(449,165,c),
(427,187,l),
(426,94,o),
(340,46,o),
(247,46,cs),
(132,46,o),
(78,90,o),
(78,154,cs),
(78,223,o),
(131,270,o),
(249,270,cs),
(432,270,l),
(442,304,l),
(254,304,ls),
(117,304,o),
(48,245,o),
(48,151,cs),
(48,53,o),
(107,-8,o),
(243,-8,cs)
);
},
{
alignment = -1;
pos = (385,0);
ref = e;
}
);
width = 921;
},
{
anchors = (
{
name = top;
pos = (453,553);
}
);
associatedMasterId = "79167EE4-8C29-4BCE-A9E7-C1CFC4557E33";
attr = {
coordinates = (
550
);
};
background = {
anchors = (
{
name = top;
pos = (453,553);
}
);
shapes = (
{
closed = 1;
nodes = (
(455,341,l),
(455,372,ls),
(455,500,o),
(392,565,o),
(262,565,cs),
(140,565,o),
(83,517,o),
(50,459,c),
(84,353,l),
(119,385,o),
(174,406,o),
(250,406,cs),
(351,406,o),
(390,379,o),
(390,311,cs),
(390,149,l)
);
},
{
closed = 1;
nodes = (
(328,-12,o),
(399,36,o),
(437,146,c),
(390,213,l),
(389,146,o),
(341,117,o),
(244,117,cs),
(137,117,o),
(105,143,o),
(105,181,cs),
(105,220,o),
(136,245,o),
(241,245,cs),
(401,245,l),
(401,299,l),
(239,299,ls),
(100,299,o),
(28,246,o),
(28,145,cs),
(28,52,o),
(83,-12,o),
(218,-12,cs)
);
},
{
alignment = -1;
pos = (360,0);
ref = e;
}
);
};
layerId = "D99F5A6E-108C-49FC-AAB4-88CDCE59AD0C";
name = "28 févr. 25 à 12:30";
shapes = (
{
closed = 1;
nodes = (
(455,341,l),
(455,372,ls),
(455,500,o),
(392,565,o),
(262,565,cs),
(140,565,o),
(83,517,o),
(50,459,c),
(84,353,l),
(119,385,o),
(174,406,o),
(250,406,cs),
(351,406,o),
(390,379,o),
(390,311,cs),
(390,149,l)
);
},
{
closed = 1;
nodes = (
(333,-12,o),
(401,36,o),
(437,146,c),
(390,213,l),
(389,146,o),
(341,117,o),
(244,117,cs),
(137,117,o),
(105,141,o),
(105,177,cs),
(105,214,o),
(136,237,o),
(241,237,cs),
(401,237,l),
(401,301,l),
(239,301,ls),
(100,301,o),
(28,247,o),
(28,137,cs),
(28,52,o),
(86,-12,o),
(220,-12,cs)
);
},
{
alignment = -1;
pos = (360,0);
ref = e;
}
);
width = 886;
}
);
metricLeft = "=a";
metricRight = "=e";
unicode = 230;
},
{
glyphname = b;
lastChange = "2025-02-27 14:53:08 +0000";
layers = (
{
anchors = (
{
name = top;
pos = (98,772);
}
);
layerId = "41EDA971-A137-4972-81AF-7929AB7CAABF";
name = Extralight;
shapes = (
{
closed = 1;
nodes = (
(447,-16,o),
(550,64,o),
(550,278,cs),
(550,492,o),
(450,572,o),
(320,572,cs),
(208,572,o),
(121,523,o),
(121,366,cs),
(121,190,ls),
(121,33,o),
(206,-16,o),
(315,-16,cs)
);
},
{
closed = 1;
nodes = (
(144,0,l),
(144,99,l),
(136,122,l),
(136,387,l),
(144,410,l),
(144,772,l),
(52,772,l),
(52,0,l)
);
},
{
closed = 1;
nodes = (
(180,182,o),
(136,203,o),
(136,246,cs),
(136,290,o),
(179,309,o),
(302,309,cs),
(423,309,o),
(471,290,o),
(471,246,cs),
(471,203,o),
(423,182,o),
(302,182,cs)
);
}
);
width = 572;
},
{
anchors = (
{
name = top;
pos = (87,772);
}
);
layerId = "79167EE4-8C29-4BCE-A9E7-C1CFC4557E33";
name = Extralight;
shapes = (
{
closed = 1;
nodes = (
(444,-8,o),
(532,97,o),
(532,274,cs),
(532,451,o),
(442,556,o),
(307,556,cs),
(171,556,o),
(80,452,o),
(80,290,cs),
(80,257,ls),
(80,95,o),
(174,-8,o),
(312,-8,cs)
);
},
{
closed = 1;
nodes = (
(102,0,l),
(102,147,l),
(101,188,l),
(101,366,l),
(102,395,l),
(102,772,l),
(72,772,l),
(72,0,l)
);
},
{
closed = 1;
nodes = (
(176,46,o),
(101,133,o),
(101,271,cs),
(101,409,o),
(176,498,o),
(302,498,cs),
(428,498,o),
(502,410,o),
(502,271,cs),
(502,132,o),
(428,46,o),
(302,46,cs)
);
}
);
width = 574;
}
);
metricLeft = "=n";
metricRight = "=o";
unicode = 98;
},
{
glyphname = c;
lastChange = "2024-12-14 08:39:39 +0000";
layers = (
{
anchors = (
{
name = bottom;
pos = (287,0);
},
{
name = top;
pos = (298,548);
}
);
background = {
shapes = (
{
closed = 0;
nodes = (
(494,486,l),
(456,414,l)
);
},
{
closed = 0;
nodes = (
(468,417,l),
(429,468,l)
);
},
{
closed = 0;
nodes = (
(486,453,l),
(449,512,l)
);
},
{
closed = 0;
nodes = (
(459,128,l),
(493,63,l)
);
},
{
closed = 0;
nodes = (
(434,80,l),
(469,125,l)
);
},
{
closed = 0;
nodes = (
(452,40,l),
(486,93,l)
);
}
);
};
layerId = "79167EE4-8C29-4BCE-A9E7-C1CFC4557E33";
shapes = (
{
closed = 1;
nodes = (
(391,-8,o),
(452,40,o),
(481,86,c),
(464,119,l),
(434,80,o),
(371,46,o),
(298,46,cs),
(158,46,o),
(72,123,o),
(72,275,cs),
(72,417,o),
(156,498,o),
(298,498,cs),
(367,498,o),
(429,468,o),
(462,425,c),
(481,461,l),
(449,512,o),
(395,556,o),
(298,556,cs),
(144,556,o),
(42,457,o),
(42,270,cs),
(42,109,o),
(120,-8,o),
(292,-8,cs)
);
}
);
width = 515;
},
{
anchors = (
{
name = bottom;
pos = (284,0);
},
{
name = top;
pos = (283,556);
}
);
background = {
shapes = (
{
closed = 0;
nodes = (
(494,73,l),
(446,236,l)
);
},
{
closed = 0;
nodes = (
(460,30,l),
(495,93,l)
);
},
{
closed = 0;
nodes = (
(418,203,l),
(459,231,l)
);
},
{
closed = 0;
nodes = (
(438,255,l),
(503,474,l)
);
},
{
closed = 0;
nodes = (
(455,262,l),
(399,300,l)
);
},
{
closed = 0;
nodes = (
(504,447,l),
(456,532,l)
);
}
);
};
layerId = "41EDA971-A137-4972-81AF-7929AB7CAABF";
shapes = (
{
closed = 1;
nodes = (
(384,-16,o),
(460,30,o),
(490,85,c),
(449,224,l),
(418,203,o),
(355,182,o),
(271,182,cs),
(149,182,o),
(101,203,o),
(101,246,cs),
(101,290,o),
(151,308,o),
(264,308,cs),
(359,308,o),
(399,300,o),
(443,270,c),
(498,457,l),
(456,532,o),
(391,572,o),
(285,572,cs),
(136,572,o),
(22,490,o),
(22,268,cs),
(22,52,o),
(131,-16,o),
(272,-16,cs)
);
}
);
width = 508;
},
{
anchors = (
{
name = bottom;
pos = (287,0);
},
{
name = top;
pos = (298,548);
}
);
associatedMasterId = "79167EE4-8C29-4BCE-A9E7-C1CFC4557E33";
background = {
shapes = (
{
closed = 1;
nodes = (
(392,-9,o),
(454,37,o),
(479,84,c),
(467,119,l),
(433,75,o),
(364,44,o),
(298,46,cs),
(157,47,o),
(72,123,o),
(72,275,cs),
(72,417,o),
(156,498,o),
(298,498,cs),
(364,498,o),
(431,469,o),
(465,424,c),
(478,464,l),
(453,512,o),
(393,556,o),
(298,556,cs),
(144,556,o),
(42,457,o),
(42,270,cs),
(42,108,o),
(121,-9,o),
(297,-9,cs)
);
}
);
};
layerId = "6B1F890B-839F-40F3-BE8D-7E48A95B53D5";
name = "13 déc. 24 à 13:09";
shapes = (
{
closed = 1;
nodes = (
(393,-8,o),
(454,38,o),
(479,84,c),
(467,119,l),
(433,75,o),
(364,44,o),
(298,46,cs),
(157,47,o),
(72,123,o),
(72,275,cs),
(72,417,o),
(156,498,o),
(298,498,cs),
(364,498,o),
(431,469,o),
(465,424,c),
(478,464,l),
(453,512,o),
(393,556,o),
(298,556,cs),
(144,556,o),
(42,457,o),
(42,270,cs),
(42,109,o),
(120,-8,o),
(292,-8,cs)
);
}
);
width = 515;
},
{
anchors = (
{
name = bottom;
pos = (287,0);
},
{
name = top;
pos = (298,548);
}
);
associatedMasterId = "79167EE4-8C29-4BCE-A9E7-C1CFC4557E33";
background = {
shapes = (
{
closed = 0;
nodes = (
(494,486,l),
(456,414,l)
);
},
{
closed = 0;
nodes = (
(468,417,l),
(429,468,l)
);
},
{
closed = 0;
nodes = (
(486,453,l),
(449,512,l)
);
},
{
closed = 0;
nodes = (
(457,131,l),
(495,59,l)
);
},
{
closed = 0;
nodes = (
(430,77,l),
(469,128,l)
);
},
{
closed = 0;
nodes = (
(450,33,l),
(487,92,l)
);
}
);
};
layerId = "4CFBED98-D0F8-4FF4-B3C9-FEA1C583D44E";
name = "13 déc. 24 à 13:23";
shapes = (
{
closed = 1;
nodes = (
(387,-8,o),
(450,33,o),
(482,84,c),
(463,120,l),
(430,77,o),
(369,46,o),
(298,46,cs),
(158,46,o),
(72,123,o),
(72,275,cs),
(72,417,o),
(156,498,o),
(298,498,cs),
(367,498,o),
(429,468,o),
(462,425,c),
(481,461,l),
(449,512,o),
(395,556,o),
(298,556,cs),
(144,556,o),
(42,457,o),
(42,270,cs),
(42,109,o),
(120,-8,o),
(292,-8,cs)
);
}
);
width = 515;
},
{
anchors = (
{
name = bottom;
pos = (287,0);
},
{
name = top;
pos = (298,548);
}
);
associatedMasterId = "79167EE4-8C29-4BCE-A9E7-C1CFC4557E33";
background = {
shapes = (
{
closed = 0;
nodes = (
(494,486,l),
(456,414,l)
);
},
{
closed = 0;
nodes = (
(468,417,l),
(429,468,l)
);
},
{
closed = 0;
nodes = (
(486,453,l),
(449,512,l)
);
},
{
closed = 0;
nodes = (
(459,128,l),
(493,63,l)
);
},
{
closed = 0;
nodes = (
(434,80,l),
(469,125,l)
);
},
{
closed = 0;
nodes = (
(452,40,l),
(486,93,l)
);
}
);
};
layerId = "8E3577B3-3B0D-4156-AA32-CC3F6E7AC4A6";
name = "13 déc. 24 à 14:07";
shapes = (
{
closed = 1;
nodes = (
(391,-8,o),
(452,40,o),
(481,86,c),
(464,119,l),
(434,80,o),
(371,46,o),
(298,46,cs),
(158,46,o),
(72,123,o),
(72,275,cs),
(72,417,o),
(156,498,o),
(298,498,cs),
(367,498,o),
(429,468,o),
(462,425,c),
(481,461,l),
(449,512,o),
(395,556,o),
(298,556,cs),
(144,556,o),
(42,457,o),
(42,270,cs),
(42,109,o),
(120,-8,o),
(292,-8,cs)
);
}
);
width = 515;
},
{
anchors = (
{
name = bottom;
pos = (284,0);
},
{
name = top;
pos = (283,556);
}
);
associatedMasterId = "41EDA971-A137-4972-81AF-7929AB7CAABF";
background = {
anchors = (
{
name = top;
pos = (267,563);
}
);
};
layerId = "7029884E-404F-47FD-9E5B-480BB196C42D";
name = "14 déc. 24 à 09:34";
shapes = (
{
closed = 1;
nodes = (
(384,-16,o),
(456,23,o),
(493,86,c),
(447,222,l),
(411,198,o),
(355,182,o),
(271,182,cs),
(149,182,o),
(101,203,o),
(101,246,cs),
(101,290,o),
(151,308,o),
(264,308,cs),
(359,308,o),
(408,295,o),
(447,268,c),
(495,464,l),
(462,525,o),
(391,572,o),
(285,572,cs),
(136,572,o),
(22,490,o),
(22,268,cs),
(22,52,o),
(131,-16,o),
(272,-16,cs)
);
}
);
width = 508;
}
);
metricLeft = "=o";
unicode = 99;
},
{
glyphname = d;
lastChange = "2025-02-27 14:51:02 +0000";
layers = (
{
anchors = (
{
name = bottom;
pos = (287,0);
},
{
name = caroncomb.alt;
pos = (502,772);
},
{
name = top;
pos = (487,772);
}
);
layerId = "79167EE4-8C29-4BCE-A9E7-C1CFC4557E33";
shapes = (
{
closed = 1;
nodes = (
(403,-8,o),
(494,95,o),
(494,257,cs),
(494,290,ls),
(494,452,o),
(405,556,o),
(272,556,cs),
(134,556,o),
(42,451,o),
(42,274,cs),
(42,97,o),
(133,-8,o),
(270,-8,cs)
);
},
{
closed = 1;
nodes = (
(148,46,o),
(72,132,o),
(72,271,cs),
(72,410,o),
(144,498,o),
(272,498,cs),
(400,498,o),
(473,409,o),
(473,271,cs),
(473,133,o),
(396,46,o),
(272,46,cs)
);
},
{
closed = 1;
nodes = (
(502,0,l),
(502,772,l),
(472,772,l),
(472,395,l),
(473,366,l),
(473,188,l),
(472,147,l),
(472,0,l)
);
}
);
width = 574;
},
{
anchors = (
{
name = bottom;
pos = (292,0);
},
{
name = caroncomb.alt;
pos = (520,772);
},
{
name = top;
pos = (474,772);
}
);
background = {
anchors = (
{
name = top;
pos = (267,563);
}
);
};
layerId = "41EDA971-A137-4972-81AF-7929AB7CAABF";
shapes = (
{
closed = 1;
nodes = (
(366,-16,o),
(451,33,o),
(451,190,cs),
(451,366,ls),
(451,523,o),
(368,572,o),
(262,572,cs),
(126,572,o),
(22,490,o),
(22,268,cs),
(22,62,o),
(125,-16,o),
(257,-16,cs)
);
},
{
closed = 1;
nodes = (
(149,182,o),
(101,203,o),
(101,246,cs),
(101,290,o),
(149,309,o),
(270,309,cs),
(393,309,o),
(436,290,o),
(436,246,cs),
(436,203,o),
(392,182,o),
(270,182,cs)
);
},
{
closed = 1;
nodes = (
(520,0,l),
(520,772,l),
(428,772,l),
(428,410,l),
(436,387,l),
(436,122,l),
(428,99,l),
(428,0,l)
);
}
);
width = 572;
}
);
metricLeft = "=o";
metricRight = "=|n";
unicode = 100;
},
{
color = 5;
glyphname = dcaron;
lastChange = "2025-02-27 10:17:09 +0000";
layers = (
{
layerId = "41EDA971-A137-4972-81AF-7929AB7CAABF";
shapes = (
{
ref = d;
},
{
pos = (520,0);
ref = caroncomb.alt;
}
);
width = 572;
},
{
background = {
shapes = (
{
closed = 0;
nodes = (
(566,731,ls),
(567,748,o),
(565,762,o),
(562,772,c)
);
}
);
};
layerId = "79167EE4-8C29-4BCE-A9E7-C1CFC4557E33";
name = Extralight;
shapes = (
{
ref = d;
},
{
pos = (502,0);
ref = caroncomb.alt;
}
);
width = 574;
}
);
unicode = 271;
},
{
glyphname = dcroat;
lastChange = "2025-02-28 12:07:30 +0000";
layers = (
{
background = {
shapes = (
{
closed = 1;
nodes = (
(316,644,l),
(316,680,l),
(-6,680,l),
(-6,644,l)
);
}
);
};
layerId = "79167EE4-8C29-4BCE-A9E7-C1CFC4557E33";
shapes = (
{
closed = 1;
nodes = (
(592,644,l),
(592,680,l),
(270,680,l),
(270,644,l)
);
},
{
alignment = -1;
ref = d;
}
);
width = 586;
},
{
layerId = "41EDA971-A137-4972-81AF-7929AB7CAABF";
shapes = (
{
closed = 1;
nodes = (
(601,629,l),
(601,711,l),
(223,711,l),
(223,629,l)
);
},
{
alignment = -1;
ref = d;
}
);
width = 574;
},
{
associatedMasterId = "79167EE4-8C29-4BCE-A9E7-C1CFC4557E33";
layerId = "4C312843-1585-4014-B675-0F4CC7FF9B53";
name = "27 févr. 25 à 11:08";
shapes = (
{
closed = 1;
nodes = (
(592,630,l),
(592,680,l),
(270,680,l),
(270,630,l)
);
},
{
alignment = -1;
ref = d;
}
);
width = 586;
}
);
metricLeft = "=d";
unicode = 273;
},
{
glyphname = eth;
lastChange = "2025-02-28 12:07:30 +0000";
layers = (
{
background = {
shapes = (
{
closed = 1;
nodes = (
(435,-8,o),
(534,95,o),
(534,377,cs),
(534,631,o),
(454,780,o),
(266,780,cs),
(171,780,o),
(110,744,o),
(81,698,c),
(98,665,l),
(119,692,o),
(188,722,o),
(255,722,cs),
(432,722,o),
(499,626,o),
(498,356,c),
(505,351,l),
(463,449,o),
(386,498,o),
(281,498,cs),
(137,498,o),
(42,403,o),
(42,242,cs),
(42,85,o),
(131,-8,o),
(281,-8,cs)
);
},
{
closed = 1;
nodes = (
(150,46,o),
(72,124,o),
(72,247,cs),
(72,372,o),
(150,450,o),
(281,450,cs),
(410,450,o),
(487,376,o),
(487,254,cs),
(487,133,o),
(409,46,o),
(281,46,cs)
);
},
{
closed = 1;
nodes = (
(537,756,l),
(513,780,l),
(294,572,l),
(318,548,l)
);
}
);
};
layerId = "79167EE4-8C29-4BCE-A9E7-C1CFC4557E33";
shapes = (
{
closed = 1;
nodes = (
(435,-8,o),
(534,95,o),
(534,377,cs),
(534,631,o),
(456,780,o),
(276,780,cs),
(195,780,o),
(121,744,o),
(91,698,c),
(108,665,l),
(130,692,o),
(196,722,o),
(272,722,cs),
(434,722,o),
(499,626,o),
(498,356,c),
(505,351,l),
(463,449,o),
(386,498,o),
(281,498,cs),
(137,498,o),
(42,403,o),
(42,242,cs),
(42,85,o),
(131,-8,o),
(281,-8,cs)
);
},
{
closed = 1;
nodes = (
(150,46,o),
(72,124,o),
(72,247,cs),
(72,372,o),
(150,450,o),
(281,450,cs),
(410,450,o),
(487,376,o),
(487,254,cs),
(487,133,o),
(409,46,o),
(281,46,cs)
);
},
{
closed = 1;
nodes = (
(537,756,l),
(513,780,l),
(294,572,l),
(318,548,l)
);
}
);
width = 585;
},
{
associatedMasterId = "79167EE4-8C29-4BCE-A9E7-C1CFC4557E33";
background = {
shapes = (
{
closed = 1;
nodes = (
(534,396,l),
(534,639,o),
(437,780,o),
(251,780,cs),
(170,780,o),
(110,747,o),
(81,711,c),
(97,665,l),
(129,698,o),
(193,723,o),
(252,722,cs),
(421,722,o),
(498,622,o),
(498,385,c)
);
}
);
};
layerId = "08A5BB67-CDCC-4845-BCDC-FB2AE6F80482";
name = "13 déc. 24 à 14:47";
shapes = (
{
closed = 1;
nodes = (
(435,-8,o),
(534,95,o),
(534,377,cs),
(534,609,o),
(464,780,o),
(256,780,cs),
(181,780,o),
(113,750,o),
(81,711,c),
(97,665,l),
(122,692,o),
(185,722,o),
(255,722,cs),
(432,722,o),
(499,616,o),
(498,356,c),
(505,351,l),
(463,449,o),
(386,498,o),
(281,498,cs),
(137,498,o),
(42,404,o),
(42,245,cs),
(42,86,o),
(137,-8,o),
(281,-8,cs)
);
},
{
closed = 1;
nodes = (
(150,46,o),
(72,128,o),
(72,256,cs),
(72,379,o),
(150,456,o),
(281,456,cs),
(410,456,o),
(487,380,o),
(487,256,cs),
(487,134,o),
(409,46,o),
(281,46,cs)
);
},
{
closed = 1;
nodes = (
(542,744,l),
(513,780,l),
(288,583,l),
(318,548,l)
);
}
);
width = 585;
},
{
associatedMasterId = "41EDA971-A137-4972-81AF-7929AB7CAABF";
layerId = "57D7300E-4CDA-4EE1-AC97-D2C54AD181B4";
name = "15 déc. 24 à 19:21";
shapes = (
{
closed = 1;
nodes = (
(442,-16,o),
(539,73,o),
(539,346,cs),
(539,576,o),
(435,788,o),
(225,788,cs),
(164,788,o),
(97,777,o),
(51,718,c),
(79,661,l),
(114,675,o),
(158,679,o),
(202,677,cs),
(387,668,o),
(460,544,o),
(459,339,c),
(491,333,l),
(444,382,o),
(380,408,o),
(285,408,cs),
(107,408,o),
(22,336,o),
(22,198,cs),
(22,50,o),
(119,-16,o),
(271,-16,cs)
);
},
{
closed = 1;
nodes = (
(143,182,o),
(101,208,o),
(101,256,cs),
(101,295,o),
(143,326,o),
(280,326,cs),
(408,326,o),
(460,293,o),
(460,256,cs),
(460,208,o),
(418,182,o),
(280,182,cs)
);
},
{
closed = 1;
nodes = (
(608,637,l),
(543,752,l),
(217,567,l),
(282,452,l)
);
}
);
width = 562;
},
{
associatedMasterId = "41EDA971-A137-4972-81AF-7929AB7CAABF";
layerId = "DD458601-E4B2-4F89-900A-A93BE39F479E";
name = "15 déc. 24 à 19:22";
shapes = (
{
closed = 1;
nodes = (
(442,-16,o),
(539,73,o),
(539,346,cs),
(539,626,o),
(450,788,o),
(255,788,cs),
(176,788,o),
(90,759,o),
(31,700,c),
(79,503,l),
(125,530,o),
(185,540,o),
(242,540,cs),
(404,540,o),
(460,494,o),
(459,339,c),
(491,333,l),
(444,382,o),
(380,408,o),
(285,408,cs),
(107,408,o),
(22,336,o),
(22,198,cs),
(22,50,o),
(119,-16,o),
(271,-16,cs)
);
},
{
closed = 1;
nodes = (
(143,182,o),
(101,208,o),
(101,256,cs),
(101,295,o),
(143,326,o),
(280,326,cs),
(408,326,o),
(460,293,o),
(460,256,cs),
(460,208,o),
(418,182,o),
(280,182,cs)
);
},
{
closed = 1;
nodes = (
(628,627,l),
(563,742,l),
(237,557,l),
(302,442,l)
);
}
);
width = 562;
},
{
associatedMasterId = "79167EE4-8C29-4BCE-A9E7-C1CFC4557E33";
background = {
shapes = (
{
closed = 1;
nodes = (
(435,-8,o),
(534,95,o),
(534,377,cs),
(534,609,o),
(467,780,o),
(266,780,cs),
(171,780,o),
(110,744,o),
(81,698,c),
(98,665,l),
(119,692,o),
(188,722,o),
(255,722,cs),
(432,722,o),
(499,616,o),
(498,356,c),
(505,351,l),
(463,449,o),
(386,498,o),
(281,498,cs),
(137,498,o),
(42,404,o),
(42,245,cs),
(42,86,o),
(137,-8,o),
(281,-8,cs)
);
},
{
closed = 1;
nodes = (
(150,46,o),
(72,128,o),
(72,256,cs),
(72,379,o),
(150,456,o),
(281,456,cs),
(410,456,o),
(487,380,o),
(487,256,cs),
(487,134,o),
(409,46,o),
(281,46,cs)
);
},
{
closed = 1;
nodes = (
(542,744,l),
(513,780,l),
(288,583,l),
(318,548,l)
);
}
);
};
layerId = "651DBA96-ECB6-46B1-B1F2-FA798B3FA2B8";
name = "15 déc. 24 à 19:29";
shapes = (
{
closed = 1;
nodes = (
(435,-8,o),
(534,95,o),
(534,377,cs),
(534,631,o),
(454,780,o),
(266,780,cs),
(171,780,o),
(110,744,o),
(81,698,c),
(98,665,l),
(119,692,o),
(188,722,o),
(255,722,cs),
(432,722,o),
(499,626,o),
(498,356,c),
(505,351,l),
(463,449,o),
(386,498,o),
(281,498,cs),
(137,498,o),
(42,404,o),
(42,245,cs),
(42,86,o),
(137,-8,o),
(281,-8,cs)
);
},
{
closed = 1;
nodes = (
(150,46,o),
(72,128,o),
(72,256,cs),
(72,379,o),
(150,456,o),
(281,456,cs),
(410,456,o),
(487,380,o),
(487,256,cs),
(487,134,o),
(409,46,o),
(281,46,cs)
);
},
{
closed = 1;
nodes = (
(542,744,l),
(513,780,l),
(288,583,l),
(318,548,l)
);
}
);
width = 585;
},
{
associatedMasterId = "41EDA971-A137-4972-81AF-7929AB7CAABF";
background = {
shapes = (
{
closed = 1;
nodes = (
(628,627,l),
(563,742,l),
(237,557,l),
(302,442,l)
);
}
);
};
layerId = "A8BC1995-AB46-4310-BBA3-AFCDEC9E94E9";
name = "15 déc. 24 à 19:35";
shapes = (
{
closed = 1;
nodes = (
(442,-16,o),
(539,73,o),
(539,346,cs),
(539,626,o),
(450,788,o),
(255,788,cs),
(176,788,o),
(90,759,o),
(31,700,c),
(79,503,l),
(125,530,o),
(185,540,o),
(242,540,cs),
(404,540,o),
(460,494,o),
(459,339,c),
(491,333,l),
(444,382,o),
(380,408,o),
(285,408,cs),
(107,408,o),
(22,336,o),
(22,198,cs),
(22,50,o),
(119,-16,o),
(271,-16,cs)
);
},
{
closed = 1;
nodes = (
(143,182,o),
(101,208,o),
(101,256,cs),
(101,295,o),
(143,326,o),
(280,326,cs),
(408,326,o),
(460,293,o),
(460,256,cs),
(460,208,o),
(418,182,o),
(280,182,cs)
);
},
{
closed = 1;
nodes = (
(615,610,l),
(569,678,l),
(290,484,l),
(336,416,l)
);
}
);
width = 562;
},
{
associatedMasterId = "41EDA971-A137-4972-81AF-7929AB7CAABF";
background = {
shapes = (
{
closed = 0;
nodes = (
(152,741,l),
(191,612,l)
);
},
{
closed = 0;
nodes = (
(178,775,l),
(151,724,l)
);
},
{
closed = 0;
nodes = (
(211,639,l),
(179,616,l)
);
}
);
};
layerId = "D2151FAC-1D33-4BE1-8D11-44A65ED0E6D3";
name = "15 déc. 24 à 20:19";
shapes = (
{
closed = 1;
nodes = (
(214,639,o),
(240,644,o),
(275,644,cs),
(375,644,o),
(460,549,o),
(460,405,cs),
(460,399,o),
(460,374,o),
(458,349,c),
(491,353,l),
(442,442,o),
(375,488,o),
(265,488,cs),
(104,488,o),
(22,402,o),
(22,238,cs),
(22,62,o),
(119,-16,o),
(271,-16,cs),
(442,-16,o),
(539,73,o),
(539,346,cs),
(539,646,o),
(469,788,o),
(283,788,cs),
(223,788,o),
(174,767,o),
(155,731,c),
(188,623,l)
);
},
{
closed = 1;
nodes = (
(605,610,l),
(578,687,l),
(277,580,l),
(304,503,l)
);
},
{
closed = 1;
nodes = (
(153,182,o),
(102,203,o),
(102,245,cs),
(102,287,o),
(153,308,o),
(273,308,cs),
(393,308,o),
(444,287,o),
(444,245,cs),
(444,203,o),
(393,182,o),
(273,182,cs)
);
}
);
width = 562;
},
{
background = {
shapes = (
{
closed = 1;
nodes = (
(442,-16,o),
(536,73,o),
(539,388,cs),
(542,682,o),
(438,788,o),
(270,788,cs),
(210,788,o),
(161,769,o),
(137,740,c),
(165,606,l),
(192,620,o),
(227,628,o),
(270,628,cs),
(390,628,o),
(460,561,o),
(460,365,c),
(471,353,l),
(442,442,o),
(375,488,o),
(265,488,cs),
(104,488,o),
(22,402,o),
(22,238,cs),
(22,62,o),
(119,-16,o),
(271,-16,cs)
);
},
{
closed = 1;
nodes = (
(153,182,o),
(102,203,o),
(102,245,cs),
(102,287,o),
(153,308,o),
(273,308,cs),
(393,308,o),
(444,287,o),
(444,245,cs),
(444,203,o),
(393,182,o),
(273,182,cs)
);
},
{
closed = 1;
nodes = (
(615,609,l),
(586,681,l),
(298,567,l),
(327,495,l)
);
}
);
};
layerId = "41EDA971-A137-4972-81AF-7929AB7CAABF";
name = Black;
shapes = (
{
closed = 1;
nodes = (
(442,-16,o),
(536,73,o),
(539,388,cs),
(542,682,o),
(443,788,o),
(279,788,cs),
(190,788,o),
(133,760,o),
(100,717,c),
(125,591,l),
(153,608,o),
(201,618,o),
(266,618,cs),
(398,618,o),
(460,554,o),
(460,365,c),
(471,353,l),
(442,442,o),
(375,488,o),
(265,488,cs),
(104,488,o),
(22,402,o),
(22,238,cs),
(22,62,o),
(119,-16,o),
(271,-16,cs)
);
},
{
closed = 1;
nodes = (
(153,182,o),
(102,203,o),
(102,245,cs),
(102,287,o),
(153,308,o),
(273,308,cs),
(393,308,o),
(444,287,o),
(444,245,cs),
(444,203,o),
(393,182,o),
(273,182,cs)
);
},
{
closed = 1;
nodes = (
(615,609,l),
(586,681,l),
(298,567,l),
(327,495,l)
);
}
);
width = 562;
},
{
associatedMasterId = "41EDA971-A137-4972-81AF-7929AB7CAABF";
background = {
shapes = (
{
closed = 1;
nodes = (
(538,430,l),
(542,665,o),
(464,788,o),
(284,788,cs),
(249,788,o),
(206,777,o),
(179,754,c),
(192,647,l),
(207,652,o),
(226,654,o),
(250,654,cs),
(365,654,o),
(447,593,o),
(460,395,c)
);
}
);
};
layerId = "721C9E79-FD0D-41F9-BFC1-121AC95FC304";
name = "15 déc. 24 à 20:22";
shapes = (
{
closed = 1;
nodes = (
(195,654,o),
(219,654,o),
(242,651,cs),
(378,637,o),
(460,551,o),
(460,405,cs),
(460,399,o),
(460,374,o),
(458,349,c),
(491,353,l),
(442,442,o),
(375,488,o),
(265,488,cs),
(104,488,o),
(22,402,o),
(22,238,cs),
(22,62,o),
(119,-16,o),
(271,-16,cs),
(442,-16,o),
(539,73,o),
(539,346,cs),
(539,623,o),
(469,796,o),
(282,794,cs),
(253,794,o),
(225,787,o),
(206,772,c),
(170,653,l)
);
},
{
closed = 1;
nodes = (
(605,610,l),
(578,687,l),
(277,580,l),
(304,503,l)
);
},
{
closed = 1;
nodes = (
(153,182,o),
(102,203,o),
(102,245,cs),
(102,287,o),
(153,308,o),
(273,308,cs),
(393,308,o),
(444,287,o),
(444,245,cs),
(444,203,o),
(393,182,o),
(273,182,cs)
);
}
);
width = 562;
},
{
associatedMasterId = "41EDA971-A137-4972-81AF-7929AB7CAABF";
background = {
shapes = (
{
pos = (90,-31);
ref = gravecomb;
}
);
};
layerId = "2BCCD5D1-CA9F-446A-A529-3652E05F5580";
name = "15 déc. 24 à 20:23";
shapes = (
{
closed = 1;
nodes = (
(442,-16,o),
(536,73,o),
(539,388,cs),
(542,686,o),
(454,788,o),
(284,788,cs),
(249,788,o),
(206,777,o),
(179,754,c),
(192,647,l),
(207,652,o),
(226,654,o),
(250,654,cs),
(371,654,o),
(460,580,o),
(460,365,c),
(491,353,l),
(442,442,o),
(375,488,o),
(265,488,cs),
(104,488,o),
(22,402,o),
(22,238,cs),
(22,62,o),
(119,-16,o),
(271,-16,cs)
);
},
{
closed = 1;
nodes = (
(153,182,o),
(102,203,o),
(102,245,cs),
(102,287,o),
(153,308,o),
(273,308,cs),
(393,308,o),
(444,287,o),
(444,245,cs),
(444,203,o),
(393,182,o),
(273,182,cs)
);
},
{
closed = 1;
nodes = (
(605,610,l),
(578,687,l),
(277,580,l),
(304,503,l)
);
}
);
width = 562;
},
{
associatedMasterId = "79167EE4-8C29-4BCE-A9E7-C1CFC4557E33";
background = {
shapes = (
{
closed = 1;
nodes = (
(435,-8,o),
(534,95,o),
(534,377,cs),
(534,631,o),
(454,780,o),
(266,780,cs),
(171,780,o),
(110,744,o),
(81,698,c),
(98,665,l),
(119,692,o),
(188,722,o),
(255,722,cs),
(432,722,o),
(499,626,o),
(498,356,c),
(505,351,l),
(463,449,o),
(386,498,o),
(281,498,cs),
(137,498,o),
(42,404,o),
(42,245,cs),
(42,86,o),
(137,-8,o),
(281,-8,cs)
);
},
{
closed = 1;
nodes = (
(150,46,o),
(72,128,o),
(72,256,cs),
(72,379,o),
(150,456,o),
(281,456,cs),
(410,456,o),
(487,380,o),
(487,256,cs),
(487,134,o),
(409,46,o),
(281,46,cs)
);
},
{
closed = 1;
nodes = (
(535,757,l),
(513,780,l),
(295,571,l),
(318,548,l)
);
}
);
};
layerId = "E6FB8730-6510-429E-84D4-AC615F606E6A";
name = "28 févr. 25 à 12:54";
shapes = (
{
closed = 1;
nodes = (
(435,-8,o),
(534,95,o),
(534,377,cs),
(534,631,o),
(454,780,o),
(266,780,cs),
(171,780,o),
(110,744,o),
(81,698,c),
(98,665,l),
(119,692,o),
(188,722,o),
(255,722,cs),
(432,722,o),
(499,626,o),
(498,356,c),
(505,351,l),
(463,449,o),
(386,498,o),
(281,498,cs),
(137,498,o),
(42,403,o),
(42,242,cs),
(42,85,o),
(131,-8,o),
(281,-8,cs)
);
},
{
closed = 1;
nodes = (
(150,46,o),
(72,124,o),
(72,247,cs),
(72,372,o),
(150,450,o),
(281,450,cs),
(410,450,o),
(487,376,o),
(487,254,cs),
(487,133,o),
(409,46,o),
(281,46,cs)
);
},
{
closed = 1;
nodes = (
(537,756,l),
(513,780,l),
(294,572,l),
(318,548,l)
);
}
);
width = 585;
},
{
associatedMasterId = "41EDA971-A137-4972-81AF-7929AB7CAABF";
background = {
shapes = (
{
closed = 1;
nodes = (
(442,-16,o),
(536,73,o),
(539,388,cs),
(542,682,o),
(438,788,o),
(270,788,cs),
(210,788,o),
(161,769,o),
(137,740,c),
(165,606,l),
(192,620,o),
(227,628,o),
(270,628,cs),
(390,628,o),
(460,561,o),
(460,365,c),
(471,353,l),
(442,442,o),
(375,488,o),
(265,488,cs),
(104,488,o),
(22,402,o),
(22,238,cs),
(22,62,o),
(119,-16,o),
(271,-16,cs)
);
},
{
closed = 1;
nodes = (
(153,182,o),
(102,203,o),
(102,245,cs),
(102,287,o),
(153,308,o),
(273,308,cs),
(393,308,o),
(444,287,o),
(444,245,cs),
(444,203,o),
(393,182,o),
(273,182,cs)
);
},
{
closed = 1;
nodes = (
(615,609,l),
(586,681,l),
(298,567,l),
(327,495,l)
);
}
);
};
layerId = "A94C9829-7919-43AB-ABBD-6E01E62F633F";
name = "28 févr. 25 à 12:55";
shapes = (
{
closed = 1;
nodes = (
(442,-16,o),
(536,73,o),
(539,388,cs),
(542,682,o),
(438,788,o),
(270,788,cs),
(210,788,o),
(161,769,o),
(137,740,c),
(165,606,l),
(192,620,o),
(227,628,o),
(270,628,cs),
(390,628,o),
(460,561,o),
(460,365,c),
(471,353,l),
(442,442,o),
(375,488,o),
(265,488,cs),
(104,488,o),
(22,402,o),
(22,238,cs),
(22,62,o),
(119,-16,o),
(271,-16,cs)
);
},
{
closed = 1;
nodes = (
(153,182,o),
(102,203,o),
(102,245,cs),
(102,287,o),
(153,308,o),
(273,308,cs),
(393,308,o),
(444,287,o),
(444,245,cs),
(444,203,o),
(393,182,o),
(273,182,cs)
);
},
{
closed = 1;
nodes = (
(615,609,l),
(586,681,l),
(298,567,l),
(327,495,l)
);
}
);
width = 562;
}
);
metricLeft = "=o";
unicode = 240;
},
{
glyphname = e;
lastChange = "2025-02-28 11:50:56 +0000";
layers = (
{
anchors = (
{
name = bottom;
pos = (271,0);
},
{
name = ogonek;
pos = (410,0);
},
{
name = top;
pos = (286,548);
}
);
background = {
shapes = (
{
closed = 1;
nodes = (
(391,-8,o),
(452,40,o),
(481,86,c),
(464,119,l),
(434,80,o),
(370,46,o),
(298,46,cs),
(158,46,o),
(72,123,o),
(72,274,cs),
(72,291,ls),
(72,418,o),
(162,498,o),
(284,498,cs),
(416,498,o),
(475,414,o),
(475,270,c),
(492,308,l),
(64,308,l),
(64,268,l),
(504,268,l),
(509,467,o),
(417,556,o),
(285,556,cs),
(146,556,o),
(42,457,o),
(42,271,cs),
(42,109,o),
(120,-8,o),
(292,-8,cs)
);
}
);
};
layerId = "79167EE4-8C29-4BCE-A9E7-C1CFC4557E33";
shapes = (
{
closed = 1;
nodes = (
(391,-8,o),
(452,40,o),
(481,86,c),
(464,119,l),
(434,80,o),
(370,46,o),
(298,46,cs),
(158,46,o),
(72,123,o),
(72,274,cs),
(72,291,ls),
(72,418,o),
(160,498,o),
(282,498,cs),
(414,498,o),
(475,414,o),
(475,270,c),
(492,308,l),
(64,308,l),
(64,268,l),
(504,268,l),
(509,467,o),
(417,556,o),
(285,556,cs),
(146,556,o),
(42,457,o),
(42,271,cs),
(42,109,o),
(120,-8,o),
(292,-8,cs)
);
}
);
width = 536;
},
{
anchors = (
{
name = bottom;
pos = (265,0);
},
{
name = ogonek;
pos = (426,0);
},
{
name = top;
pos = (269,556);
}
);
background = {
shapes = (
{
closed = 0;
nodes = (
(488,70,l),
(443,221,l)
);
},
{
closed = 0;
nodes = (
(454,27,l),
(489,90,l)
);
},
{
closed = 0;
nodes = (
(415,188,l),
(456,216,l)
);
}
);
};
layerId = "41EDA971-A137-4972-81AF-7929AB7CAABF";
shapes = (
{
closed = 1;
nodes = (
(380,-16,o),
(454,27,o),
(484,83,c),
(447,209,l),
(415,188,o),
(350,172,o),
(262,172,cs),
(149,172,o),
(100,198,o),
(100,243,cs),
(100,276,ls),
(100,314,o),
(135,339,o),
(271,339,cs),
(393,339,o),
(424,316,o),
(425,282,c),
(455,290,l),
(99,290,l),
(99,226,l),
(498,226,l),
(510,466,o),
(435,572,o),
(277,572,cs),
(104,572,o),
(22,459,o),
(22,271,cs),
(22,53,o),
(124,-16,o),
(272,-16,cs)
);
}
);
width = 519;
},
{
anchors = (
{
name = ogonek;
pos = (410,0);
},
{
name = top;
pos = (286,548);
}
);
associatedMasterId = "79167EE4-8C29-4BCE-A9E7-C1CFC4557E33";
layerId = "0C8862D1-4271-4421-B215-ABDC1306B56B";
name = "12 déc. 24 à 15:35";
shapes = (
{
closed = 1;
nodes = (
(389,-8,o),
(453,35,o),
(479,84,c),
(467,119,l),
(430,72,o),
(363,45,o),
(297,46,cs),
(157,48,o),
(72,123,o),
(72,273,cs),
(72,287,ls),
(72,415,o),
(162,498,o),
(285,498,cs),
(417,498,o),
(475,414,o),
(475,270,c),
(492,306,l),
(64,306,l),
(64,270,l),
(504,270,l),
(509,467,o),
(417,556,o),
(285,556,cs),
(146,556,o),
(42,457,o),
(42,272,cs),
(42,108,o),
(121,-8,o),
(290,-8,cs)
);
}
);
width = 536;
},
{
anchors = (
{
name = ogonek;
pos = (426,0);
},
{
name = top;
pos = (269,556);
}
);
associatedMasterId = "41EDA971-A137-4972-81AF-7929AB7CAABF";
background = {
shapes = (
{
closed = 1;
nodes = (
(372,-16,o),
(446,19,o),
(486,87,c),
(443,215,l),
(406,190,o),
(349,172,o),
(262,172,cs),
(165,173,o),
(100,202,o),
(100,247,cs),
(100,280,ls),
(100,320,o),
(134,346,o),
(271,346,cs),
(394,346,o),
(424,322,o),
(425,286,c),
(455,297,l),
(99,297,l),
(99,231,l),
(498,231,l),
(511,472,o),
(440,580,o),
(279,580,cs),
(106,580,o),
(22,464,o),
(22,275,cs),
(22,54,o),
(129,-16,o),
(264,-16,cs)
);
}
);
};
layerId = "767ED76E-6E45-43CD-90BA-8FE115AAFC79";
name = "12 déc. 24 à 16:33";
shapes = (
{
closed = 1;
nodes = (
(370,-16,o),
(445,17,o),
(486,86,c),
(443,213,l),
(406,189,o),
(348,172,o),
(262,172,cs),
(149,172,o),
(100,198,o),
(100,243,cs),
(100,276,ls),
(100,314,o),
(135,339,o),
(271,339,cs),
(393,339,o),
(424,316,o),
(425,282,c),
(455,290,l),
(99,290,l),
(99,224,l),
(498,224,l),
(511,465,o),
(436,572,o),
(277,572,cs),
(104,572,o),
(22,459,o),
(22,271,cs),
(22,53,o),
(124,-16,o),
(272,-16,cs)
);
}
);
width = 519;
},
{
anchors = (
{
name = ogonek;
pos = (410,0);
},
{
name = top;
pos = (286,548);
}
);
associatedMasterId = "79167EE4-8C29-4BCE-A9E7-C1CFC4557E33";
background = {
shapes = (
{
closed = 1;
nodes = (
(389,-8,o),
(453,35,o),
(479,84,c),
(467,119,l),
(430,72,o),
(363,45,o),
(297,46,cs),
(157,48,o),
(72,123,o),
(72,273,cs),
(72,287,ls),
(72,415,o),
(162,498,o),
(285,498,cs),
(417,498,o),
(475,414,o),
(475,270,c),
(492,306,l),
(64,306,l),
(64,270,l),
(504,270,l),
(509,467,o),
(417,556,o),
(285,556,cs),
(146,556,o),
(42,457,o),
(42,272,cs),
(42,108,o),
(121,-8,o),
(290,-8,cs)
);
}
);
};
layerId = "BD04E03F-9824-477A-A18E-5BC85C40E091";
name = "13 déc. 24 à 13:22";
shapes = (
{
closed = 1;
nodes = (
(389,-8,o),
(453,35,o),
(479,84,c),
(467,119,l),
(427,69,o),
(363,45,o),
(297,46,cs),
(155,48,o),
(72,121,o),
(72,273,cs),
(72,291,ls),
(72,418,o),
(163,498,o),
(285,498,cs),
(417,498,o),
(475,414,o),
(475,270,c),
(492,306,l),
(64,306,l),
(64,270,l),
(504,270,l),
(509,467,o),
(417,556,o),
(285,556,cs),
(146,556,o),
(42,457,o),
(42,272,cs),
(42,108,o),
(121,-8,o),
(290,-8,cs)
);
}
);
width = 536;
},
{
anchors = (
{
name = ogonek;
pos = (410,0);
},
{
name = top;
pos = (286,548);
}
);
associatedMasterId = "79167EE4-8C29-4BCE-A9E7-C1CFC4557E33";
background = {
anchors = (
{
name = bottom;
pos = (287,0);
},
{
name = top;
pos = (298,548);
}
);
shapes = (
{
closed = 1;
nodes = (
(387,-8,o),
(450,33,o),
(482,84,c),
(463,120,l),
(430,77,o),
(369,46,o),
(298,46,cs),
(158,46,o),
(72,123,o),
(72,275,cs),
(72,417,o),
(156,498,o),
(298,498,cs),
(367,498,o),
(429,468,o),
(462,425,c),
(481,461,l),
(449,512,o),
(395,556,o),
(298,556,cs),
(144,556,o),
(42,457,o),
(42,270,cs),
(42,109,o),
(120,-8,o),
(292,-8,cs)
);
}
);
};
layerId = "37186455-23A9-40C4-AE51-C20DB39CA0D2";
name = "13 déc. 24 à 14:11";
shapes = (
{
closed = 1;
nodes = (
(387,-8,o),
(450,33,o),
(482,84,c),
(463,120,l),
(430,77,o),
(369,46,o),
(298,46,cs),
(158,46,o),
(72,123,o),
(72,274,cs),
(72,291,ls),
(72,418,o),
(163,498,o),
(285,498,cs),
(417,498,o),
(475,414,o),
(475,270,c),
(492,306,l),
(64,306,l),
(64,270,l),
(504,270,l),
(509,467,o),
(417,556,o),
(285,556,cs),
(146,556,o),
(42,457,o),
(42,271,cs),
(42,109,o),
(120,-8,o),
(292,-8,cs)
);
}
);
width = 536;
},
{
anchors = (
{
name = ogonek;
pos = (426,0);
},
{
name = top;
pos = (269,556);
}
);
associatedMasterId = "41EDA971-A137-4972-81AF-7929AB7CAABF";
background = {
shapes = (
{
closed = 1;
nodes = (
(370,-16,o),
(445,17,o),
(486,86,c),
(443,213,l),
(406,189,o),
(348,172,o),
(262,172,cs),
(149,172,o),
(100,198,o),
(100,243,cs),
(100,276,ls),
(100,314,o),
(135,339,o),
(271,339,cs),
(393,339,o),
(424,316,o),
(425,282,c),
(455,290,l),
(99,290,l),
(99,224,l),
(498,224,l),
(511,465,o),
(436,572,o),
(277,572,cs),
(104,572,o),
(22,459,o),
(22,271,cs),
(22,53,o),
(124,-16,o),
(272,-16,cs)
);
}
);
};
layerId = "17582F81-8C60-4490-B6C8-47AF5C740DC6";
name = "14 déc. 24 à 09:42";
shapes = (
{
closed = 1;
nodes = (
(370,-16,o),
(445,17,o),
(486,86,c),
(445,208,l),
(408,187,o),
(349,172,o),
(262,172,cs),
(149,172,o),
(100,198,o),
(100,243,cs),
(100,276,ls),
(100,314,o),
(135,339,o),
(271,339,cs),
(393,339,o),
(424,316,o),
(425,282,c),
(455,288,l),
(99,288,l),
(99,228,l),
(498,228,l),
(510,466,o),
(435,572,o),
(277,572,cs),
(104,572,o),
(22,459,o),
(22,271,cs),
(22,53,o),
(124,-16,o),
(272,-16,cs)
);
}
);
width = 519;
},
{
anchors = (
{
name = bottom;
pos = (268,0);
},
{
name = ogonek;
pos = (419,0);
},
{
name = top;
pos = (276,553);
}
);
associatedMasterId = "79167EE4-8C29-4BCE-A9E7-C1CFC4557E33";
attr = {
coordinates = (
550
);
};
background = {
anchors = (
{
name = bottom;
pos = (268,0);
},
{
name = ogonek;
pos = (419,0);
},
{
name = top;
pos = (276,553);
}
);
shapes = (
{
closed = 1;
nodes = (
(385,-12,o),
(454,33,o),
(483,84,c),
(454,170,l),
(423,141,o),
(359,117,o),
(278,117,cs),
(153,117,o),
(88,165,o),
(88,257,cs),
(88,283,ls),
(88,360,o),
(147,409,o),
(277,409,cs),
(404,409,o),
(446,360,o),
(447,277,c),
(471,297,l),
(84,297,l),
(84,245,l),
(501,245,l),
(510,467,o),
(427,565,o),
(281,565,cs),
(122,565,o),
(31,458,o),
(31,271,cs),
(31,78,o),
(122,-12,o),
(281,-12,cs)
);
}
);
};
layerId = "CF816E42-FC1D-42D8-ACA8-FBBD51908B56";
name = "28 févr. 25 à 11:15";
shapes = (
{
closed = 1;
nodes = (
(385,-12,o),
(454,33,o),
(483,84,c),
(454,170,l),
(423,141,o),
(359,117,o),
(278,117,cs),
(153,117,o),
(88,165,o),
(88,257,cs),
(88,283,ls),
(88,360,o),
(147,409,o),
(277,409,cs),
(404,409,o),
(446,360,o),
(447,277,c),
(471,301,l),
(84,301,l),
(84,237,l),
(501,237,l),
(510,467,o),
(427,565,o),
(281,565,cs),
(122,565,o),
(31,458,o),
(31,271,cs),
(31,78,o),
(122,-12,o),
(281,-12,cs)
);
}
);
width = 526;
},
{
anchors = (
{
name = bottom;
pos = (271,0);
},
{
name = ogonek;
pos = (410,0);
},
{
name = top;
pos = (286,548);
}
);
associatedMasterId = "79167EE4-8C29-4BCE-A9E7-C1CFC4557E33";
layerId = "56438C44-41DC-4C4C-9981-E2C571308727";
name = "28 févr. 25 à 12:44";
shapes = (
{
closed = 1;
nodes = (
(391,-8,o),
(452,40,o),
(481,86,c),
(464,119,l),
(434,80,o),
(370,46,o),
(298,46,cs),
(158,46,o),
(72,123,o),
(72,274,cs),
(72,291,ls),
(72,418,o),
(163,498,o),
(285,498,cs),
(417,498,o),
(475,414,o),
(475,270,c),
(492,306,l),
(64,306,l),
(64,270,l),
(504,270,l),
(509,467,o),
(417,556,o),
(285,556,cs),
(146,556,o),
(42,457,o),
(42,271,cs),
(42,109,o),
(120,-8,o),
(292,-8,cs)
);
}
);
width = 536;
},
{
anchors = (
{
name = bottom;
pos = (271,0);
},
{
name = ogonek;
pos = (410,0);
},
{
name = top;
pos = (286,548);
}
);
associatedMasterId = "79167EE4-8C29-4BCE-A9E7-C1CFC4557E33";
background = {
shapes = (
{
closed = 1;
nodes = (
(391,-8,o),
(452,40,o),
(481,86,c),
(464,119,l),
(434,80,o),
(370,46,o),
(298,46,cs),
(158,46,o),
(72,123,o),
(72,274,cs),
(72,291,ls),
(72,418,o),
(162,498,o),
(284,498,cs),
(416,498,o),
(475,414,o),
(475,270,c),
(492,308,l),
(64,308,l),
(64,268,l),
(504,268,l),
(509,467,o),
(417,556,o),
(285,556,cs),
(146,556,o),
(42,457,o),
(42,271,cs),
(42,109,o),
(120,-8,o),
(292,-8,cs)
);
}
);
};
layerId = "0AAD09B1-2577-42A3-8661-AF64F474C80C";
name = "28 févr. 25 à 12:50";
shapes = (
{
closed = 1;
nodes = (
(391,-8,o),
(452,40,o),
(481,86,c),
(464,119,l),
(434,80,o),
(370,46,o),
(298,46,cs),
(158,46,o),
(72,123,o),
(72,274,cs),
(72,291,ls),
(72,418,o),
(162,498,o),
(284,498,cs),
(416,498,o),
(475,414,o),
(475,270,c),
(492,308,l),
(64,308,l),
(64,268,l),
(504,268,l),
(509,467,o),
(417,556,o),
(285,556,cs),
(146,556,o),
(42,457,o),
(42,271,cs),
(42,109,o),
(120,-8,o),
(292,-8,cs)
);
}
);
width = 536;
}
);
metricLeft = "=o";
unicode = 101;
},
{
color = 3;
glyphname = eogonek;
lastChange = "2025-02-27 15:31:03 +0000";
layers = (
{
layerId = "79167EE4-8C29-4BCE-A9E7-C1CFC4557E33";
shapes = (
{
ref = e;
},
{
closed = 1;
nodes = (
(432,-203,o),
(462,-185,o),
(476,-160,c),
(468,-125,l),
(451,-140,o),
(428,-150,o),
(396,-150,cs),
(357,-150,o),
(335,-133,o),
(335,-100,cs),
(335,-66,o),
(358,-27,o),
(442,40,c),
(417,51,l),
(333,-13,o),
(296,-67,o),
(296,-120,cs),
(296,-175,o),
(329,-203,o),
(388,-203,cs)
);
}
);
width = 536;
},
{
background = {
shapes = (
{
closed = 1;
nodes = (
(419,-214,o),
(470,-185,o),
(489,-149,c),
(459,-64,l),
(433,-80,o),
(407,-88,o),
(387,-88,cs),
(358,-88,o),
(349,-80,o),
(349,-67,cs),
(349,-51,o),
(364,-29,o),
(446,0,c),
(383,25,l),
(278,-16,o),
(240,-57,o),
(240,-115,cs),
(240,-178,o),
(286,-214,o),
(360,-214,cs)
);
}
);
};
layerId = "41EDA971-A137-4972-81AF-7929AB7CAABF";
shapes = (
{
ref = e;
},
{
closed = 1;
nodes = (
(419,-214,o),
(470,-185,o),
(489,-149,c),
(459,-64,l),
(433,-80,o),
(407,-88,o),
(387,-88,cs),
(358,-88,o),
(349,-77,o),
(349,-61,cs),
(349,-40,o),
(364,-19,o),
(439,35,c),
(376,60,l),
(278,-16,o),
(240,-57,o),
(240,-115,cs),
(240,-178,o),
(286,-214,o),
(360,-214,cs)
);
}
);
width = 519;
}
);
metricLeft = "=e";
metricRight = "=e@274";
unicode = 281;
},
{
glyphname = schwa;
lastChange = "2025-02-28 12:07:30 +0000";
layers = (
{
background = {
shapes = (
{
closed = 0;
nodes = (
(77,421,l),
(43,486,l)
);
},
{
closed = 0;
nodes = (
(102,469,l),
(67,424,l)
);
},
{
closed = 0;
nodes = (
(84,509,l),
(50,456,l)
);
}
);
};
layerId = "79167EE4-8C29-4BCE-A9E7-C1CFC4557E33";
shapes = (
{
closed = 1;
nodes = (
(394,-8,o),
(494,91,o),
(494,276,cs),
(494,453,o),
(422,556,o),
(261,556,cs),
(142,556,o),
(84,509,o),
(55,463,c),
(72,430,l),
(102,469,o),
(174,499,o),
(254,498,cs),
(390,496,o),
(464,432,o),
(464,275,cs),
(464,261,ls),
(464,131,o),
(382,46,o),
(271,46,cs),
(125,46,o),
(61,131,o),
(61,278,c),
(44,240,l),
(472,240,l),
(472,280,l),
(32,280,l),
(27,81,o),
(123,-8,o),
(261,-8,cs)
);
}
);
width = 536;
},
{
background = {
anchors = (
{
name = bottom;
pos = (242,0);
},
{
name = ogonek;
pos = (93,564);
}
);
};
layerId = "41EDA971-A137-4972-81AF-7929AB7CAABF";
shapes = (
{
closed = 1;
nodes = (
(418,-16,o),
(497,98,o),
(497,289,cs),
(497,510,o),
(399,580,o),
(257,580,cs),
(152,580,o),
(75,545,o),
(33,477,c),
(76,303,l),
(113,328,o),
(170,346,o),
(257,346,cs),
(371,346,o),
(419,318,o),
(419,271,cs),
(419,238,ls),
(419,198,o),
(385,172,o),
(248,172,cs),
(125,172,o),
(95,196,o),
(94,232,c),
(64,226,l),
(420,226,l),
(420,290,l),
(21,290,l),
(8,78,o),
(86,-16,o),
(257,-16,cs)
);
}
);
width = 519;
},
{
associatedMasterId = "79167EE4-8C29-4BCE-A9E7-C1CFC4557E33";
layerId = "2A61007C-2116-43DB-8B3C-AAFF2285E828";
name = "13 déc. 24 à 15:02";
shapes = (
{
closed = 1;
nodes = (
(394,-8,o),
(494,91,o),
(494,276,cs),
(494,450,o),
(418,556,o),
(256,556,cs),
(152,556,o),
(84,513,o),
(57,464,c),
(69,429,l),
(108,473,o),
(179,499,o),
(249,498,cs),
(383,496,o),
(464,432,o),
(464,275,cs),
(464,261,ls),
(464,131,o),
(382,46,o),
(271,46,cs),
(125,46,o),
(61,131,o),
(61,278,c),
(44,242,l),
(472,242,l),
(472,278,l),
(32,278,l),
(27,81,o),
(123,-8,o),
(261,-8,cs)
);
}
);
width = 536;
}
);
metricLeft = "=|e";
metricRight = "=o";
unicode = 601;
},
{
glyphname = f;
lastChange = "2024-12-15 13:12:03 +0000";
layers = (
{
anchors = (
{
name = top;
pos = (246,772);
}
);
background = {
shapes = (
{
closed = 0;
nodes = (
(368,753,l),
(330,681,l)
);
},
{
closed = 0;
nodes = (
(342,684,l),
(303,735,l)
);
},
{
closed = 0;
nodes = (
(360,720,l),
(323,779,l)
);
}
);
};
layerId = "79167EE4-8C29-4BCE-A9E7-C1CFC4557E33";
shapes = (
{
closed = 1;
nodes = (
(131,541,l),
(131,603,ls),
(131,690,o),
(160,722,o),
(245,722,cs),
(285,722,o),
(322,711,o),
(336,692,c),
(355,728,l),
(337,756,o),
(303,780,o),
(251,780,cs),
(158,780,o),
(101,729,o),
(101,601,cs),
(101,541,l)
);
},
{
closed = 1;
nodes = (
(131,0,l),
(131,518,l),
(101,518,l),
(101,0,l)
);
},
{
closed = 1;
nodes = (
(277,494,l),
(277,548,l),
(12,548,l),
(12,494,l)
);
}
);
width = 289;
},
{
anchors = (
{
name = top;
pos = (274,772);
}
);
background = {
shapes = (
{
closed = 0;
nodes = (
(397,531,l),
(450,730,l)
);
},
{
closed = 0;
nodes = (
(413,537,l),
(368,572,l)
);
},
{
closed = 0;
nodes = (
(451,705,l),
(414,782,l)
);
}
);
};
layerId = "41EDA971-A137-4972-81AF-7929AB7CAABF";
shapes = (
{
closed = 1;
nodes = (
(192,504,l),
(192,525,ls),
(192,557,o),
(215,572,o),
(298,572,cs),
(349,572,o),
(378,564,o),
(401,546,c),
(446,715,l),
(422,766,o),
(363,788,o),
(294,788,cs),
(175,788,o),
(98,726,o),
(98,590,cs),
(100,504,l)
);
},
{
closed = 1;
nodes = (
(192,0,l),
(192,290,l),
(100,290,l),
(100,0,l)
);
},
{
closed = 1;
nodes = (
(355,268,l),
(355,531,l),
(22,531,l),
(22,268,l)
);
}
);
width = 395;
},
{
associatedMasterId = "79167EE4-8C29-4BCE-A9E7-C1CFC4557E33";
layerId = "38F1B954-5E27-4E6E-9EC1-ED7127D0ACA0";
name = "13 déc. 24 à 14:14";
shapes = (
{
closed = 1;
nodes = (
(131,541,l),
(131,603,ls),
(131,690,o),
(160,722,o),
(245,722,cs),
(282,722,o),
(319,710,o),
(338,689,c),
(353,731,l),
(339,757,o),
(303,780,o),
(251,780,cs),
(158,780,o),
(101,729,o),
(101,601,cs),
(101,541,l)
);
},
{
closed = 1;
nodes = (
(131,0,l),
(131,518,l),
(101,518,l),
(101,0,l)
);
},
{
closed = 1;
nodes = (
(277,494,l),
(277,548,l),
(12,548,l),
(12,494,l)
);
}
);
width = 289;
},
{
associatedMasterId = "41EDA971-A137-4972-81AF-7929AB7CAABF";
background = {
anchors = (
{
name = bottom;
pos = (297.488,249);
}
);
shapes = (
{
closed = 1;
nodes = (
(188,505,l),
(187,508,o),
(186,513,o),
(186,518,cs),
(186,554,o),
(215,572,o),
(298,572,cs),
(347,572,o),
(380,564,o),
(403,546,c),
(445,717,l),
(420,761,o),
(373,788,o),
(294,788,cs),
(175,788,o),
(98,726,o),
(98,590,cs),
(98,560,o),
(101,527,o),
(107,502,c)
);
},
{
closed = 1;
nodes = (
(192,0,l),
(192,290,l),
(100,290,l),
(100,0,l)
);
},
{
closed = 1;
nodes = (
(355,268,l),
(355,531,l),
(22,531,l),
(22,268,l)
);
}
);
};
layerId = "1C973204-46F1-4D9B-9B66-8DE7C162AB81";
name = "14 déc. 24 à 09:42";
shapes = (
{
closed = 1;
nodes = (
(192,504,l),
(192,525,ls),
(192,557,o),
(215,572,o),
(298,572,cs),
(347,572,o),
(380,564,o),
(403,546,c),
(445,717,l),
(420,761,o),
(373,788,o),
(294,788,cs),
(175,788,o),
(98,726,o),
(98,590,cs),
(100,504,l)
);
},
{
closed = 1;
nodes = (
(192,0,l),
(192,290,l),
(100,290,l),
(100,0,l)
);
},
{
closed = 1;
nodes = (
(355,268,l),
(355,531,l),
(22,531,l),
(22,268,l)
);
}
);
width = 395;
},
{
associatedMasterId = "41EDA971-A137-4972-81AF-7929AB7CAABF";
background = {
shapes = (
{
closed = 0;
nodes = (
(397,531,l),
(450,730,l)
);
},
{
closed = 0;
nodes = (
(413,537,l),
(368,572,l)
);
},
{
closed = 0;
nodes = (
(451,705,l),
(414,782,l)
);
}
);
};
layerId = "C7593AC9-A712-414B-8804-C85DC1D1538C";
name = "14 déc. 24 à 09:44";
shapes = (
{
closed = 1;
nodes = (
(192,504,l),
(192,525,ls),
(192,557,o),
(215,572,o),
(298,572,cs),
(347,572,o),
(380,564,o),
(403,546,c),
(445,717,l),
(420,761,o),
(373,788,o),
(294,788,cs),
(175,788,o),
(98,726,o),
(98,590,cs),
(100,504,l)
);
},
{
closed = 1;
nodes = (
(192,0,l),
(192,290,l),
(100,290,l),
(100,0,l)
);
},
{
closed = 1;
nodes = (
(355,268,l),
(355,531,l),
(22,531,l),
(22,268,l)
);
}
);
width = 395;
}
);
unicode = 102;
},
{
glyphname = g;
lastChange = "2025-02-28 12:07:30 +0000";
layers = (
{
anchors = (
{
name = top;
pos = (282,548);
}
);
layerId = "79167EE4-8C29-4BCE-A9E7-C1CFC4557E33";
shapes = (
{
closed = 1;
nodes = (
(412,-204,o),
(492,-143,o),
(492,-48,cs),
(492,18,o),
(457,57,o),
(374,57,cs),
(306,57,o),
(250,42,o),
(197,42,cs),
(127,42,o),
(102,63,o),
(102,102,cs),
(102,130,o),
(117,154,o),
(157,172,c),
(135,190,l),
(92,167,o),
(66,139,o),
(66,95,cs),
(66,34,o),
(110,0,o),
(195,0,cs),
(242,0,o),
(316,15,o),
(363,15,cs),
(428,15,o),
(451,-7,o),
(451,-48,cs),
(451,-108,o),
(397,-150,o),
(263,-150,cs),
(162,-150,o),
(99,-120,o),
(66,-77,c),
(47,-113,l),
(79,-164,o),
(140,-204,o),
(268,-204,cs)
);
},
{
closed = 1;
nodes = (
(385,146,o),
(463,223,o),
(463,355,cs),
(463,481,o),
(385,556,o),
(260,556,cs),
(136,556,o),
(57,481,o),
(57,355,cs),
(57,224,o),
(135,146,o),
(260,146,cs)
);
},
{
closed = 1;
nodes = (
(142,200,o),
(87,262,o),
(87,349,cs),
(87,437,o),
(142,498,o),
(260,498,cs),
(378,498,o),
(433,436,o),
(433,349,cs),
(433,261,o),
(378,200,o),
(260,200,cs)
);
},
{
closed = 1;
nodes = (
(459,475,o),
(481,494,o),
(510,494,cs),
(523,494,o),
(534,491,o),
(541,486,c),
(559,543,l),
(550,551,o),
(537,555,o),
(524,555,cs),
(485,555,o),
(447,529,o),
(435,455,c),
(449,436,l)
);
}
);
width = 543;
},
{
anchors = (
{
name = top;
pos = (287,556);
}
);
background = {
shapes = (
{
closed = 0;
nodes = (
(4,-143,l),
(46,2,l)
);
},
{
closed = 0;
nodes = (
(33,-180,l),
(3,-125,l)
);
},
{
closed = 0;
nodes = (
(70,-27,l),
(34,-3,l)
);
},
{
closed = 1;
nodes = (
(444,-212,o),
(522,-142,o),
(522,-32,cs),
(522,59,o),
(473,96,o),
(376,96,cs),
(336,96,o),
(223,87,o),
(184,87,cs),
(134,87,o),
(114,96,o),
(114,121,cs),
(114,147,o),
(144,159,o),
(177,159,c),
(104,189,l),
(63,172,o),
(32,142,o),
(32,94,cs),
(32,18,o),
(94,-6,o),
(191,-6,cs),
(226,-6,o),
(342,3,o),
(382,3,cs),
(411,3,o),
(419,-3,o),
(419,-15,cs),
(419,-33,o),
(401,-48,o),
(235,-48,cs),
(138,-48,o),
(80,-34,o),
(43,-9,c),
(7,-133,l),
(33,-180,o),
(104,-212,o),
(254,-212,cs)
);
},
{
closed = 1;
nodes = (
(357,129,o),
(483,168,o),
(483,337,cs),
(483,518,o),
(380,572,o),
(253,572,cs),
(128,572,o),
(27,519,o),
(27,337,cs),
(27,168,o),
(150,129,o),
(253,129,cs)
);
},
{
closed = 1;
nodes = (
(149,271,o),
(106,288,o),
(106,311,cs),
(106,338,o),
(152,352,o),
(256,352,cs),
(363,352,o),
(404,337,o),
(404,311,cs),
(404,285,o),
(366,271,o),
(256,271,cs)
);
},
{
closed = 1;
nodes = (
(484,367,o),
(506,379,o),
(529,379,cs),
(542,379,o),
(550,377,o),
(557,373,c),
(588,573,l),
(577,575,o),
(567,576,o),
(557,576,cs),
(498,576,o),
(461,533,o),
(446,452,c),
(483,337,l)
);
}
);
};
layerId = "41EDA971-A137-4972-81AF-7929AB7CAABF";
shapes = (
{
closed = 1;
nodes = (
(444,-212,o),
(522,-142,o),
(522,-32,cs),
(522,59,o),
(473,96,o),
(376,96,cs),
(336,96,o),
(223,87,o),
(184,87,cs),
(134,87,o),
(114,96,o),
(114,121,cs),
(114,147,o),
(144,159,o),
(177,159,c),
(104,189,l),
(63,172,o),
(32,142,o),
(32,94,cs),
(32,18,o),
(94,-6,o),
(191,-6,cs),
(226,-6,o),
(342,3,o),
(382,3,cs),
(411,3,o),
(419,-3,o),
(419,-15,cs),
(419,-33,o),
(401,-48,o),
(235,-48,cs),
(138,-48,o),
(80,-34,o),
(43,-9,c),
(7,-133,l),
(33,-180,o),
(104,-212,o),
(254,-212,cs)
);
},
{
closed = 1;
nodes = (
(357,129,o),
(483,168,o),
(483,337,cs),
(483,518,o),
(380,572,o),
(253,572,cs),
(128,572,o),
(27,519,o),
(27,337,cs),
(27,168,o),
(150,129,o),
(253,129,cs)
);
},
{
closed = 1;
nodes = (
(131,271,o),
(106,290,o),
(106,311,cs),
(106,336,o),
(134,352,o),
(256,352,cs),
(381,352,o),
(404,335,o),
(404,311,cs),
(404,287,o),
(384,271,o),
(256,271,cs)
);
},
{
closed = 1;
nodes = (
(484,367,o),
(506,379,o),
(529,379,cs),
(542,379,o),
(550,377,o),
(557,373,c),
(587,569,l),
(576,574,o),
(567,576,o),
(557,576,cs),
(498,576,o),
(461,533,o),
(446,452,c),
(483,337,l)
);
}
);
width = 572;
},
{
anchors = (
{
name = top;
pos = (269,548);
}
);
associatedMasterId = "79167EE4-8C29-4BCE-A9E7-C1CFC4557E33";
background = {
shapes = (
{
closed = 1;
nodes = (
(407,-204,o),
(497,-142,o),
(497,-46,cs),
(497,29,o),
(443,69,o),
(316,53,cs),
(271,48,ls),
(150,33,o),
(109,53,o),
(107,99,cs),
(106,128,o),
(120,153,o),
(157,172,c),
(132,192,l),
(94,168,o),
(70,138,o),
(71,92,cs),
(73,23,o),
(131,-10,o),
(246,3,cs),
(324,12,ls),
(422,23,o),
(456,2,o),
(456,-46,cs),
(456,-106,o),
(393,-149,o),
(273,-150,cs),
(179,-151,o),
(106,-125,o),
(68,-76,c),
(54,-115,l),
(82,-164,o),
(148,-204,o),
(273,-204,cs)
);
},
{
closed = 1;
nodes = (
(383,146,o),
(463,226,o),
(463,349,cs),
(463,483,o),
(388,556,o),
(260,556,cs),
(134,556,o),
(57,484,o),
(57,349,cs),
(57,226,o),
(138,146,o),
(260,146,cs)
);
},
{
closed = 1;
nodes = (
(143,200,o),
(87,268,o),
(87,352,cs),
(87,434,o),
(143,498,o),
(260,498,cs),
(379,498,o),
(433,432,o),
(433,352,cs),
(433,268,o),
(379,200,o),
(260,200,cs)
);
},
{
closed = 1;
nodes = (
(459,475,o),
(481,494,o),
(510,494,cs),
(523,494,o),
(534,491,o),
(541,486,c),
(559,543,l),
(550,551,o),
(537,555,o),
(524,555,cs),
(485,555,o),
(447,529,o),
(435,455,c),
(449,436,l)
);
}
);
};
layerId = "B8999CAA-9531-4C4C-8CAA-D0B447BE5410";
name = "12 déc. 24 à 15:36";
shapes = (
{
closed = 1;
nodes = (
(417,-204,o),
(497,-143,o),
(497,-48,cs),
(497,28,o),
(446,69,o),
(316,53,cs),
(271,48,ls),
(150,33,o),
(109,53,o),
(107,99,cs),
(106,128,o),
(120,153,o),
(157,172,c),
(132,192,l),
(94,168,o),
(70,138,o),
(71,92,cs),
(73,23,o),
(131,-10,o),
(246,3,cs),
(324,12,ls),
(422,23,o),
(456,1,o),
(456,-48,cs),
(456,-107,o),
(403,-149,o),
(273,-150,cs),
(179,-151,o),
(106,-125,o),
(68,-76,c),
(54,-115,l),
(82,-164,o),
(148,-204,o),
(273,-204,cs)
);
},
{
closed = 1;
nodes = (
(383,146,o),
(463,226,o),
(463,349,cs),
(463,483,o),
(388,556,o),
(260,556,cs),
(134,556,o),
(57,484,o),
(57,349,cs),
(57,226,o),
(138,146,o),
(260,146,cs)
);
},
{
closed = 1;
nodes = (
(143,200,o),
(87,268,o),
(87,352,cs),
(87,434,o),
(143,498,o),
(260,498,cs),
(379,498,o),
(433,432,o),
(433,352,cs),
(433,268,o),
(379,200,o),
(260,200,cs)
);
},
{
closed = 1;
nodes = (
(459,475,o),
(481,494,o),
(510,494,cs),
(523,494,o),
(534,491,o),
(541,486,c),
(559,543,l),
(550,551,o),
(537,555,o),
(524,555,cs),
(485,555,o),
(447,529,o),
(435,455,c),
(449,436,l)
);
}
);
width = 543;
},
{
anchors = (
{
name = top;
pos = (289,556);
}
);
associatedMasterId = "41EDA971-A137-4972-81AF-7929AB7CAABF";
layerId = "C023657D-2195-4706-B608-D0215974AADD";
name = "12 déc. 24 à 16:34";
shapes = (
{
closed = 1;
nodes = (
(444,-212,o),
(522,-141,o),
(522,-39,cs),
(522,70,o),
(462,106,o),
(311,95,cs),
(231,89,ls),
(147,83,o),
(114,89,o),
(114,121,cs),
(114,155,o),
(163,164,o),
(207,156,c),
(103,196,l),
(61,179,o),
(31,141,o),
(32,92,cs),
(34,4,o),
(117,-13,o),
(243,-4,cs),
(323,2,ls),
(404,8,o),
(419,0,o),
(419,-15,cs),
(419,-32,o),
(395,-48,o),
(235,-48,cs),
(111,-48,o),
(76,-34,o),
(45,-11,c),
(4,-128,l),
(38,-181,o),
(103,-212,o),
(254,-212,cs)
);
},
{
closed = 1;
nodes = (
(357,129,o),
(483,168,o),
(483,337,cs),
(483,518,o),
(380,572,o),
(253,572,cs),
(128,572,o),
(27,519,o),
(27,337,cs),
(27,168,o),
(150,129,o),
(253,129,cs)
);
},
{
closed = 1;
nodes = (
(149,271,o),
(106,288,o),
(106,311,cs),
(106,338,o),
(152,352,o),
(256,352,cs),
(363,352,o),
(404,337,o),
(404,311,cs),
(404,285,o),
(366,271,o),
(256,271,cs)
);
},
{
closed = 1;
nodes = (
(484,367,o),
(506,379,o),
(529,379,cs),
(542,379,o),
(550,377,o),
(557,373,c),
(588,573,l),
(577,575,o),
(567,576,o),
(557,576,cs),
(498,576,o),
(461,533,o),
(446,452,c),
(483,337,l)
);
}
);
width = 572;
},
{
anchors = (
{
name = top;
pos = (269,548);
}
);
associatedMasterId = "79167EE4-8C29-4BCE-A9E7-C1CFC4557E33";
background = {
shapes = (
{
closed = 1;
nodes = (
(417,-204,o),
(497,-143,o),
(497,-48,cs),
(497,28,o),
(446,69,o),
(316,53,cs),
(271,48,ls),
(150,33,o),
(109,53,o),
(107,99,cs),
(106,128,o),
(120,153,o),
(157,172,c),
(135,190,l),
(94,167,o),
(70,138,o),
(71,92,cs),
(73,23,o),
(131,-10,o),
(246,3,cs),
(324,12,ls),
(422,23,o),
(456,1,o),
(456,-48,cs),
(456,-107,o),
(403,-149,o),
(273,-150,cs),
(179,-151,o),
(106,-125,o),
(68,-76,c),
(54,-115,l),
(82,-164,o),
(148,-204,o),
(273,-204,cs)
);
},
{
closed = 1;
nodes = (
(383,146,o),
(463,226,o),
(463,349,cs),
(463,483,o),
(388,556,o),
(260,556,cs),
(134,556,o),
(57,484,o),
(57,349,cs),
(57,226,o),
(138,146,o),
(260,146,cs)
);
},
{
closed = 1;
nodes = (
(143,200,o),
(87,263,o),
(87,352,cs),
(87,439,o),
(143,498,o),
(260,498,cs),
(379,498,o),
(433,437,o),
(433,352,cs),
(433,263,o),
(379,200,o),
(260,200,cs)
);
},
{
closed = 1;
nodes = (
(459,475,o),
(481,494,o),
(510,494,cs),
(523,494,o),
(534,491,o),
(541,486,c),
(559,543,l),
(550,551,o),
(537,555,o),
(524,555,cs),
(485,555,o),
(447,529,o),
(435,455,c),
(449,436,l)
);
}
);
};
layerId = "63CED07B-0B8C-46CE-A433-56A8B10C6A48";
name = "12 déc. 24 à 16:36";
shapes = (
{
closed = 1;
nodes = (
(417,-204,o),
(497,-143,o),
(497,-48,cs),
(497,28,o),
(446,69,o),
(316,53,cs),
(271,48,ls),
(150,33,o),
(109,53,o),
(107,99,cs),
(106,128,o),
(120,153,o),
(157,172,c),
(135,190,l),
(94,167,o),
(70,138,o),
(71,92,cs),
(73,23,o),
(131,-10,o),
(246,3,cs),
(324,12,ls),
(422,23,o),
(456,1,o),
(456,-48,cs),
(456,-107,o),
(403,-149,o),
(273,-150,cs),
(179,-151,o),
(106,-125,o),
(68,-76,c),
(54,-115,l),
(82,-164,o),
(148,-204,o),
(273,-204,cs)
);
},
{
closed = 1;
nodes = (
(383,146,o),
(463,226,o),
(463,349,cs),
(463,483,o),
(388,556,o),
(260,556,cs),
(134,556,o),
(57,484,o),
(57,349,cs),
(57,226,o),
(138,146,o),
(260,146,cs)
);
},
{
closed = 1;
nodes = (
(143,200,o),
(87,263,o),
(87,352,cs),
(87,439,o),
(143,498,o),
(260,498,cs),
(379,498,o),
(433,437,o),
(433,352,cs),
(433,263,o),
(379,200,o),
(260,200,cs)
);
},
{
closed = 1;
nodes = (
(459,475,o),
(481,494,o),
(510,494,cs),
(523,494,o),
(534,491,o),
(541,486,c),
(559,543,l),
(550,551,o),
(537,555,o),
(524,555,cs),
(485,555,o),
(447,529,o),
(435,455,c),
(449,436,l)
);
}
);
width = 543;
},
{
anchors = (
{
name = top;
pos = (269,548);
}
);
associatedMasterId = "79167EE4-8C29-4BCE-A9E7-C1CFC4557E33";
background = {
shapes = (
{
closed = 1;
nodes = (
(417,-204,o),
(497,-143,o),
(497,-48,cs),
(497,28,o),
(446,69,o),
(316,53,cs),
(271,48,ls),
(150,33,o),
(109,53,o),
(107,99,cs),
(106,128,o),
(120,153,o),
(157,172,c),
(135,190,l),
(94,167,o),
(70,138,o),
(71,92,cs),
(73,23,o),
(131,-10,o),
(246,3,cs),
(324,12,ls),
(422,23,o),
(456,1,o),
(456,-48,cs),
(456,-107,o),
(403,-149,o),
(273,-150,cs),
(179,-151,o),
(106,-125,o),
(68,-76,c),
(54,-115,l),
(82,-164,o),
(148,-204,o),
(273,-204,cs)
);
},
{
closed = 1;
nodes = (
(383,146,o),
(463,226,o),
(463,349,cs),
(463,483,o),
(388,556,o),
(260,556,cs),
(134,556,o),
(57,484,o),
(57,349,cs),
(57,226,o),
(138,146,o),
(260,146,cs)
);
},
{
closed = 1;
nodes = (
(143,200,o),
(87,263,o),
(87,352,cs),
(87,439,o),
(143,498,o),
(260,498,cs),
(379,498,o),
(433,437,o),
(433,352,cs),
(433,263,o),
(379,200,o),
(260,200,cs)
);
},
{
closed = 1;
nodes = (
(459,475,o),
(481,494,o),
(510,494,cs),
(523,494,o),
(534,491,o),
(541,486,c),
(559,543,l),
(550,551,o),
(537,555,o),
(524,555,cs),
(485,555,o),
(447,529,o),
(435,455,c),
(449,436,l)
);
}
);
};
layerId = "EEFFA5FF-4015-4B2F-A162-E9DBD30D77A8";
name = "13 déc. 24 à 14:12";
shapes = (
{
closed = 1;
nodes = (
(417,-204,o),
(497,-143,o),
(497,-48,cs),
(497,17,o),
(460,56,o),
(367,56,cs),
(309,56,o),
(255,43,o),
(202,43,cs),
(132,43,o),
(107,64,o),
(107,102,cs),
(107,130,o),
(121,154,o),
(157,172,c),
(135,190,l),
(95,167,o),
(71,139,o),
(71,95,cs),
(71,34,o),
(115,0,o),
(200,0,cs),
(247,0,o),
(321,15,o),
(368,15,cs),
(433,15,o),
(456,-7,o),
(456,-48,cs),
(456,-108,o),
(402,-150,o),
(268,-150,cs),
(176,-150,o),
(105,-124,o),
(68,-76,c),
(54,-115,l),
(82,-164,o),
(148,-204,o),
(273,-204,cs)
);
},
{
closed = 1;
nodes = (
(383,146,o),
(463,226,o),
(463,349,cs),
(463,483,o),
(388,556,o),
(260,556,cs),
(134,556,o),
(57,484,o),
(57,349,cs),
(57,226,o),
(138,146,o),
(260,146,cs)
);
},
{
closed = 1;
nodes = (
(143,200,o),
(87,263,o),
(87,352,cs),
(87,439,o),
(143,498,o),
(260,498,cs),
(379,498,o),
(433,437,o),
(433,352,cs),
(433,263,o),
(379,200,o),
(260,200,cs)
);
},
{
closed = 1;
nodes = (
(459,475,o),
(481,494,o),
(510,494,cs),
(523,494,o),
(534,491,o),
(541,486,c),
(559,543,l),
(550,551,o),
(537,555,o),
(524,555,cs),
(485,555,o),
(447,529,o),
(435,455,c),
(449,436,l)
);
}
);
width = 543;
},
{
anchors = (
{
name = top;
pos = (289,556);
}
);
associatedMasterId = "41EDA971-A137-4972-81AF-7929AB7CAABF";
background = {
shapes = (
{
closed = 1;
nodes = (
(444,-212,o),
(522,-141,o),
(522,-39,cs),
(522,70,o),
(462,103,o),
(331,95,cs),
(231,89,ls),
(147,84,o),
(114,89,o),
(114,121,cs),
(114,155,o),
(163,164,o),
(207,156,c),
(104,189,l),
(62,172,o),
(31,141,o),
(32,92,cs),
(34,4,o),
(117,-12,o),
(243,-4,cs),
(343,2,ls),
(410,6,o),
(419,0,o),
(419,-15,cs),
(419,-33,o),
(401,-48,o),
(235,-48,cs),
(111,-48,o),
(76,-34,o),
(45,-11,c),
(4,-128,l),
(38,-181,o),
(103,-212,o),
(254,-212,cs)
);
},
{
closed = 1;
nodes = (
(357,129,o),
(483,168,o),
(483,337,cs),
(483,518,o),
(380,572,o),
(253,572,cs),
(128,572,o),
(27,519,o),
(27,337,cs),
(27,168,o),
(150,129,o),
(253,129,cs)
);
},
{
closed = 1;
nodes = (
(149,271,o),
(106,288,o),
(106,311,cs),
(106,338,o),
(152,352,o),
(256,352,cs),
(363,352,o),
(404,337,o),
(404,311,cs),
(404,285,o),
(366,271,o),
(256,271,cs)
);
},
{
closed = 1;
nodes = (
(484,367,o),
(506,379,o),
(529,379,cs),
(542,379,o),
(550,377,o),
(557,373,c),
(588,573,l),
(577,575,o),
(567,576,o),
(557,576,cs),
(498,576,o),
(461,533,o),
(446,452,c),
(483,337,l)
);
}
);
};
layerId = "94A1666A-AE90-405F-AF97-438183779782";
name = "14 déc. 24 à 09:45";
shapes = (
{
closed = 1;
nodes = (
(444,-212,o),
(522,-141,o),
(522,-39,cs),
(522,60,o),
(473,96,o),
(366,96,cs),
(336,96,o),
(211,87,o),
(184,87,cs),
(134,87,o),
(114,96,o),
(114,121,cs),
(114,147,o),
(144,159,o),
(177,159,c),
(104,189,l),
(63,172,o),
(32,142,o),
(32,94,cs),
(32,18,o),
(94,-6,o),
(191,-6,cs),
(226,-6,o),
(342,3,o),
(377,3,cs),
(413,3,o),
(419,-3,o),
(419,-15,cs),
(419,-33,o),
(401,-48,o),
(235,-48,cs),
(111,-48,o),
(76,-34,o),
(45,-11,c),
(4,-128,l),
(38,-181,o),
(103,-212,o),
(254,-212,cs)
);
},
{
closed = 1;
nodes = (
(357,129,o),
(483,168,o),
(483,337,cs),
(483,518,o),
(380,572,o),
(253,572,cs),
(128,572,o),
(27,519,o),
(27,337,cs),
(27,168,o),
(150,129,o),
(253,129,cs)
);
},
{
closed = 1;
nodes = (
(149,271,o),
(106,288,o),
(106,311,cs),
(106,338,o),
(152,352,o),
(256,352,cs),
(363,352,o),
(404,337,o),
(404,311,cs),
(404,285,o),
(366,271,o),
(256,271,cs)
);
},
{
closed = 1;
nodes = (
(484,367,o),
(506,379,o),
(529,379,cs),
(542,379,o),
(550,377,o),
(557,373,c),
(588,573,l),
(577,575,o),
(567,576,o),
(557,576,cs),
(498,576,o),
(461,533,o),
(446,452,c),
(483,337,l)
);
}
);
width = 572;
},
{
anchors = (
{
name = top;
pos = (282,548);
}
);
associatedMasterId = "79167EE4-8C29-4BCE-A9E7-C1CFC4557E33";
background = {
shapes = (
{
closed = 1;
nodes = (
(388,146,o),
(463,219,o),
(463,353,cs),
(463,476,o),
(383,556,o),
(260,556,cs),
(138,556,o),
(57,476,o),
(57,353,cs),
(57,218,o),
(134,146,o),
(260,146,cs)
);
},
{
closed = 1;
nodes = (
(143,200,o),
(87,259,o),
(87,346,cs),
(87,435,o),
(143,498,o),
(260,498,cs),
(379,498,o),
(433,435,o),
(433,346,cs),
(433,261,o),
(379,200,o),
(260,200,cs)
);
},
{
closed = 1;
nodes = (
(417,-204,o),
(497,-143,o),
(497,-48,cs),
(497,18,o),
(462,57,o),
(379,57,cs),
(311,57,o),
(255,42,o),
(202,42,cs),
(132,42,o),
(107,63,o),
(107,102,cs),
(107,130,o),
(121,154,o),
(157,172,c),
(135,190,l),
(95,167,o),
(71,139,o),
(71,95,cs),
(71,34,o),
(115,0,o),
(200,0,cs),
(247,0,o),
(321,15,o),
(368,15,cs),
(433,15,o),
(456,-7,o),
(456,-48,cs),
(456,-108,o),
(402,-150,o),
(268,-150,cs),
(167,-150,o),
(104,-120,o),
(71,-77,c),
(52,-113,l),
(84,-164,o),
(145,-204,o),
(273,-204,cs)
);
},
{
closed = 1;
nodes = (
(459,475,o),
(481,494,o),
(510,494,cs),
(523,494,o),
(534,491,o),
(541,486,c),
(559,543,l),
(550,551,o),
(537,555,o),
(524,555,cs),
(485,555,o),
(447,529,o),
(435,455,c),
(449,436,l)
);
}
);
};
layerId = "97C31089-CC37-4756-9741-95B00911B2D8";
name = "28 févr. 25 à 13:02";
shapes = (
{
closed = 1;
nodes = (
(383,146,o),
(463,226,o),
(463,349,cs),
(463,483,o),
(388,556,o),
(260,556,cs),
(134,556,o),
(57,484,o),
(57,349,cs),
(57,226,o),
(138,146,o),
(260,146,cs)
);
},
{
closed = 1;
nodes = (
(143,200,o),
(87,263,o),
(87,352,cs),
(87,439,o),
(143,498,o),
(260,498,cs),
(379,498,o),
(433,437,o),
(433,352,cs),
(433,263,o),
(379,200,o),
(260,200,cs)
);
},
{
closed = 1;
nodes = (
(417,-204,o),
(497,-143,o),
(497,-48,cs),
(497,18,o),
(462,57,o),
(379,57,cs),
(311,57,o),
(255,42,o),
(202,42,cs),
(132,42,o),
(107,63,o),
(107,102,cs),
(107,130,o),
(121,154,o),
(157,172,c),
(135,190,l),
(95,167,o),
(71,139,o),
(71,95,cs),
(71,34,o),
(115,0,o),
(200,0,cs),
(247,0,o),
(321,15,o),
(368,15,cs),
(433,15,o),
(456,-7,o),
(456,-48,cs),
(456,-108,o),
(402,-150,o),
(268,-150,cs),
(167,-150,o),
(104,-120,o),
(71,-77,c),
(52,-113,l),
(84,-164,o),
(145,-204,o),
(273,-204,cs)
);
},
{
closed = 1;
nodes = (
(459,475,o),
(481,494,o),
(510,494,cs),
(523,494,o),
(534,491,o),
(541,486,c),
(559,543,l),
(550,551,o),
(537,555,o),
(524,555,cs),
(485,555,o),
(447,529,o),
(435,455,c),
(449,436,l)
);
}
);
width = 543;
}
);
unicode = 103;
},
{
glyphname = h;
lastChange = "2025-02-27 09:55:52 +0000";
layers = (
{
anchors = (
{
name = bottom;
pos = (87,0);
},
{
name = top;
pos = (87,772);
}
);
background = {
anchors = (
{
name = bottom;
pos = (273,0);
},
{
name = top;
pos = (291,548);
}
);
shapes = (
{
closed = 1;
nodes = (
(481,0,l),
(481,319,ls),
(481,505,o),
(409,556,o),
(299,556,cs),
(192,556,o),
(115,502,o),
(93,405,c),
(102,382,l),
(102,548,l),
(72,548,l),
(72,0,l),
(102,0,l),
(102,314,ls),
(102,448,o),
(181,498,o),
(292,498,cs),
(408,498,o),
(451,443,o),
(451,318,cs),
(451,0,l)
);
}
);
};
layerId = "79167EE4-8C29-4BCE-A9E7-C1CFC4557E33";
shapes = (
{
closed = 1;
nodes = (
(481,0,l),
(481,319,ls),
(481,505,o),
(409,556,o),
(299,556,cs),
(192,556,o),
(115,502,o),
(93,405,c),
(102,390,l),
(102,772,l),
(72,772,l),
(72,0,l),
(102,0,l),
(102,314,ls),
(102,448,o),
(180,498,o),
(292,498,cs),
(408,498,o),
(451,443,o),
(451,318,cs),
(451,0,l)
);
}
);
width = 547;
},
{
anchors = (
{
name = bottom;
pos = (98,0);
},
{
name = top;
pos = (98,772);
}
);
background = {
anchors = (
{
name = bottom;
pos = (292,0);
},
{
name = top;
pos = (298,563);
}
);
shapes = (
{
closed = 1;
nodes = (
(507,0,l),
(507,338,ls),
(507,500,o),
(452,580,o),
(317,580,cs),
(231,580,o),
(158,549,o),
(132,457,c),
(144,444,l),
(144,564,l),
(52,564,l),
(52,0,l),
(144,0,l),
(144,196,ls),
(144,277,o),
(179,316,o),
(289,316,cs),
(383,316,o),
(415,277,o),
(415,195,cs),
(415,0,l)
);
}
);
};
layerId = "41EDA971-A137-4972-81AF-7929AB7CAABF";
shapes = (
{
closed = 1;
nodes = (
(507,0,l),
(507,333,ls),
(507,492,o),
(452,572,o),
(317,572,cs),
(232,572,o),
(158,542,o),
(132,451,c),
(144,439,l),
(144,772,l),
(52,772,l),
(52,0,l),
(144,0,l),
(144,191,ls),
(144,270,o),
(179,309,o),
(289,309,cs),
(383,309,o),
(415,270,o),
(415,190,cs),
(415,0,l)
);
}
);
width = 555;
}
);
metricLeft = "=n";
metricRight = "=n";
unicode = 104;
},
{
glyphname = hbar;
lastChange = "2025-02-28 12:07:30 +0000";
layers = (
{
layerId = "79167EE4-8C29-4BCE-A9E7-C1CFC4557E33";
shapes = (
{
closed = 1;
nodes = (
(316,644,l),
(316,680,l),
(-6,680,l),
(-6,644,l)
);
},
{
alignment = -1;
ref = h;
}
);
width = 563;
},
{
layerId = "41EDA971-A137-4972-81AF-7929AB7CAABF";
shapes = (
{
closed = 1;
nodes = (
(331,629,l),
(331,711,l),
(-47,711,l),
(-47,629,l)
);
},
{
alignment = -1;
ref = h;
}
);
width = 538;
},
{
associatedMasterId = "41EDA971-A137-4972-81AF-7929AB7CAABF";
layerId = "24CC54DF-D3F3-45FF-BD49-66CE25F688EA";
name = "15 déc. 24 à 19:25";
shapes = (
{
closed = 1;
nodes = (
(331,604,l),
(331,736,l),
(-47,736,l),
(-47,604,l)
);
},
{
alignment = -1;
ref = h;
}
);
width = 538;
},
{
associatedMasterId = "79167EE4-8C29-4BCE-A9E7-C1CFC4557E33";
layerId = "36D6B51A-6A9C-4FD5-9771-7135BC2F5F56";
name = "15 déc. 24 à 19:27";
shapes = (
{
closed = 1;
nodes = (
(316,637,l),
(316,687,l),
(-6,687,l),
(-6,637,l)
);
},
{
alignment = -1;
ref = h;
}
);
width = 563;
}
);
unicode = 295;
},
{
glyphname = i;
lastChange = "2025-02-27 14:21:16 +0000";
layers = (
{
layerId = "79167EE4-8C29-4BCE-A9E7-C1CFC4557E33";
shapes = (
{
closed = 1;
nodes = (
(127,686,o),
(147,708,o),
(147,733,cs),
(147,759,o),
(127,780,o),
(100,780,cs),
(74,780,o),
(54,759,o),
(54,733,cs),
(54,708,o),
(74,686,o),
(100,686,cs)
);
},
{
ref = dotlessi;
}
);
width = 220;
},
{
layerId = "41EDA971-A137-4972-81AF-7929AB7CAABF";
shapes = (
{
closed = 1;
nodes = (
(239,580,o),
(294,620,o),
(294,695,cs),
(294,769,o),
(239,808,o),
(167,808,cs),
(97,808,o),
(40,769,o),
(40,695,cs),
(40,620,o),
(97,580,o),
(167,580,cs)
);
},
{
ref = dotlessi;
}
);
width = 343;
}
);
metricLeft = "=dotlessi@548";
metricRight = "=dotlessi@548";
unicode = 105;
},
{
glyphname = dotlessi;
lastChange = "2025-02-27 10:56:24 +0000";
layers = (
{
anchors = (
{
name = ogonek;
pos = (127,0);
},
{
name = top;
pos = (93,548);
}
);
layerId = "79167EE4-8C29-4BCE-A9E7-C1CFC4557E33";
shapes = (
{
closed = 1;
nodes = (
(143,0,l),
(143,548,l),
(16,548,l),
(16,494,l),
(113,494,l),
(113,0,l)
);
}
);
width = 220;
},
{
anchors = (
{
name = ogonek;
pos = (242,0);
},
{
name = top;
pos = (165,556);
}
);
layerId = "41EDA971-A137-4972-81AF-7929AB7CAABF";
shapes = (
{
closed = 1;
nodes = (
(289,0,l),
(289,556,l),
(28,556,l),
(28,293,l),
(197,293,l),
(197,0,l)
);
}
);
width = 343;
}
);
unicode = 305;
},
{
color = 3;
glyphname = iogonek;
lastChange = "2025-02-27 15:31:03 +0000";
layers = (
{
layerId = "79167EE4-8C29-4BCE-A9E7-C1CFC4557E33";
shapes = (
{
ref = i;
},
{
closed = 1;
nodes = (
(151,-203,o),
(181,-185,o),
(195,-160,c),
(187,-125,l),
(170,-140,o),
(146,-150,o),
(113,-150,cs),
(75,-150,o),
(54,-135,o),
(54,-105,cs),
(54,-75,o),
(73,-40,o),
(139,0,c),
(114,11,l),
(46,-27,o),
(15,-77,o),
(15,-125,cs),
(15,-177,o),
(50,-203,o),
(107,-203,cs)
);
}
);
width = 205;
},
{
layerId = "41EDA971-A137-4972-81AF-7929AB7CAABF";
shapes = (
{
ref = i;
},
{
closed = 1;
nodes = (
(258,-223,o),
(307,-187,o),
(326,-142,c),
(296,-56,l),
(274,-77,o),
(247,-95,o),
(221,-95,cs),
(201,-95,o),
(188,-85,o),
(188,-72,cs),
(188,-55,o),
(203,-31,o),
(289,0,c),
(222,25,l),
(117,-17,o),
(79,-61,o),
(79,-121,cs),
(79,-186,o),
(125,-223,o),
(199,-223,cs)
);
}
);
width = 338;
}
);
unicode = 303;
},
{
glyphname = j;
lastChange = "2025-02-27 14:43:15 +0000";
layers = (
{
layerId = "79167EE4-8C29-4BCE-A9E7-C1CFC4557E33";
shapes = (
{
closed = 1;
nodes = (
(140,686,o),
(161,708,o),
(161,733,cs),
(161,759,o),
(140,780,o),
(113,780,cs),
(88,780,o),
(68,759,o),
(68,733,cs),
(68,708,o),
(88,686,o),
(113,686,cs)
);
},
{
pos = (-5,0);
ref = dotlessj;
}
);
width = 234;
},
{
layerId = "41EDA971-A137-4972-81AF-7929AB7CAABF";
shapes = (
{
closed = 1;
nodes = (
(264,581,o),
(319,621,o),
(319,695,cs),
(319,770,o),
(264,809,o),
(192,809,cs),
(121,809,o),
(65,770,o),
(65,695,cs),
(65,621,o),
(121,581,o),
(192,581,cs)
);
},
{
pos = (5,0);
ref = dotlessj;
}
);
width = 368;
},
{
associatedMasterId = "79167EE4-8C29-4BCE-A9E7-C1CFC4557E33";
background = {
anchors = (
{
name = ogonek;
pos = (141,0);
}
);
shapes = (
{
closed = 1;
nodes = (
(157,0,l),
(157,548,l),
(30,548,l),
(30,494,l),
(127,494,l),
(127,0,l)
);
},
{
closed = 1;
nodes = (
(146,686,o),
(166,708,o),
(166,733,cs),
(166,759,o),
(146,780,o),
(119,780,cs),
(93,780,o),
(73,759,o),
(73,733,cs),
(73,708,o),
(93,686,o),
(119,686,cs)
);
},
{
pos = (18,0);
ref = i;
}
);
};
layerId = "E01B062B-AFEB-4ED5-BA93-3D39161080EE";
name = "12 déc. 24 à 15:37";
shapes = (
{
closed = 1;
nodes = (
(102,-204,o),
(157,-158,o),
(157,-20,cs),
(157,548,l),
(30,548,l),
(30,494,l),
(127,494,l),
(127,-15,ls),
(127,-116,o),
(101,-150,o),
(41,-150,cs),
(9,-151,o),
(-23,-136,o),
(-39,-116,c),
(-54,-155,l),
(-41,-181,o),
(-11,-204,o),
(35,-204,cs)
);
},
{
closed = 1;
nodes = (
(142,686,o),
(163,708,o),
(163,733,cs),
(163,759,o),
(142,780,o),
(115,780,cs),
(90,780,o),
(70,759,o),
(70,733,cs),
(70,708,o),
(90,686,o),
(115,686,cs)
);
}
);
width = 223;
},
{
associatedMasterId = "79167EE4-8C29-4BCE-A9E7-C1CFC4557E33";
background = {
anchors = (
{
name = ogonek;
pos = (141,0);
}
);
shapes = (
{
closed = 1;
nodes = (
(157,0,l),
(157,548,l),
(30,548,l),
(30,494,l),
(127,494,l),
(127,0,l)
);
},
{
closed = 1;
nodes = (
(146,686,o),
(166,708,o),
(166,733,cs),
(166,759,o),
(146,780,o),
(119,780,cs),
(93,780,o),
(73,759,o),
(73,733,cs),
(73,708,o),
(93,686,o),
(119,686,cs)
);
},
{
pos = (18,0);
ref = i;
}
);
};
layerId = "E3C38B8D-ADFD-4F8D-940D-232CD9260DB5";
name = "13 déc. 24 à 14:13";
shapes = (
{
closed = 1;
nodes = (
(102,-204,o),
(157,-158,o),
(157,-20,cs),
(157,548,l),
(10,548,l),
(10,494,l),
(127,494,l),
(127,-15,ls),
(127,-116,o),
(101,-150,o),
(41,-150,cs),
(9,-151,o),
(-23,-136,o),
(-39,-116,c),
(-54,-155,l),
(-41,-181,o),
(-11,-204,o),
(35,-204,cs)
);
},
{
closed = 1;
nodes = (
(142,686,o),
(163,708,o),
(163,733,cs),
(163,759,o),
(142,780,o),
(115,780,cs),
(90,780,o),
(70,759,o),
(70,733,cs),
(70,708,o),
(90,686,o),
(115,686,cs)
);
}
);
width = 223;
}
);
metricRight = "=i";
unicode = 106;
},
{
glyphname = dotlessj;
lastChange = "2025-02-27 14:39:16 +0000";
layers = (
{
anchors = (
{
name = top;
pos = (112,548);
}
);
layerId = "79167EE4-8C29-4BCE-A9E7-C1CFC4557E33";
shapes = (
{
closed = 1;
nodes = (
(107,-204,o),
(162,-158,o),
(162,-20,cs),
(162,548,l),
(15,548,l),
(15,494,l),
(132,494,l),
(132,-15,ls),
(132,-116,o),
(106,-150,o),
(46,-150,cs),
(14,-151,o),
(-16,-138,o),
(-32,-117,c),
(-51,-153,l),
(-32,-183,o),
(-6,-204,o),
(40,-204,cs)
);
}
);
width = 239;
},
{
anchors = (
{
name = top;
pos = (185,556);
}
);
background = {
anchors = (
{
name = ogonek;
pos = (258,0);
},
{
name = top;
pos = (185,556);
}
);
shapes = (
{
closed = 1;
nodes = (
(309,0,l),
(309,556,l),
(48,556,l),
(48,293,l),
(217,293,l),
(217,0,l)
);
}
);
};
layerId = "41EDA971-A137-4972-81AF-7929AB7CAABF";
shapes = (
{
closed = 1;
nodes = (
(253,-212,o),
(309,-154,o),
(309,-42,cs),
(309,556,l),
(48,556,l),
(48,292,l),
(217,292,l),
(217,71,ls),
(217,-3,o),
(190,-25,o),
(146,-25,cs),
(109,-25,o),
(76,-15,o),
(43,7,c),
(0,-139,l),
(28,-189,o),
(74,-212,o),
(154,-212,cs)
);
}
);
width = 363;
}
);
metricRight = "=dotlessi";
unicode = 567;
},
{
glyphname = k;
lastChange = "2024-12-15 13:15:12 +0000";
layers = (
{
anchors = (
{
name = bottom;
pos = (258,0);
},
{
name = top;
pos = (87,772);
}
);
background = {
shapes = (
{
closed = 1;
nodes = (
(451,548,l),
(408,548,l),
(96,191,l),
(93,137,l)
);
},
{
closed = 1;
nodes = (
(102,0,l),
(102,772,l),
(72,772,l),
(72,0,l)
);
},
{
closed = 1;
nodes = (
(511,0,l),
(235,324,l),
(206,293,l),
(452,0,l)
);
}
);
};
layerId = "79167EE4-8C29-4BCE-A9E7-C1CFC4557E33";
shapes = (
{
closed = 1;
nodes = (
(450,548,l),
(410,548,l),
(98,191,l),
(92,138,l)
);
},
{
closed = 1;
nodes = (
(102,0,l),
(102,772,l),
(72,772,l),
(72,0,l)
);
},
{
closed = 1;
nodes = (
(510,0,l),
(235,324,l),
(196,292,l),
(444,0,l)
);
}
);
width = 500;
},
{
anchors = (
{
name = bottom;
pos = (288,0);
},
{
name = top;
pos = (98,772);
}
);
layerId = "41EDA971-A137-4972-81AF-7929AB7CAABF";
shapes = (
{
closed = 1;
nodes = (
(553,556,l),
(276,556,l),
(111,390,l),
(111,106,l)
);
},
{
closed = 1;
nodes = (
(144,0,l),
(144,772,l),
(52,772,l),
(52,0,l)
);
},
{
closed = 1;
nodes = (
(541,0,l),
(285,323,l),
(214,259,l),
(419,0,l)
);
}
);
width = 553;
}
);
metricLeft = "=n";
unicode = 107;
},
{
glyphname = l;
lastChange = "2025-02-04 13:02:23 +0000";
layers = (
{
anchors = (
{
name = bottom;
pos = (191,0);
},
{
name = caroncomb.alt;
pos = (131,772);
},
{
name = top;
pos = (53,772);
}
);
layerId = "79167EE4-8C29-4BCE-A9E7-C1CFC4557E33";
shapes = (
{
closed = 1;
nodes = (
(255,-8,o),
(286,11,o),
(311,51,c),
(294,84,l),
(272,55,o),
(244,46,o),
(208,46,cs),
(143,46,o),
(111,74,o),
(111,153,cs),
(111,772,l),
(-16,772,l),
(-16,714,l),
(81,714,l),
(81,140,ls),
(81,31,o),
(126,-8,o),
(205,-8,cs)
);
}
);
width = 313;
},
{
anchors = (
{
name = bottom;
pos = (298,0);
},
{
name = caroncomb.alt;
pos = (240,772);
},
{
name = top;
pos = (149,772);
}
);
layerId = "41EDA971-A137-4972-81AF-7929AB7CAABF";
shapes = (
{
closed = 1;
nodes = (
(375,-16,o),
(423,14,o),
(454,69,c),
(412,208,l),
(381,187,o),
(356,182,o),
(321,182,cs),
(268,182,o),
(241,205,o),
(241,256,cs),
(241,772,l),
(4,772,l),
(4,508,l),
(149,508,l),
(149,152,ls),
(149,32,o),
(209,-16,o),
(310,-16,cs)
);
}
);
width = 463;
},
{
anchors = (
{
name = bottom;
pos = (191,0);
},
{
name = caroncomb.alt;
pos = (131,772);
},
{
name = top;
pos = (53,772);
}
);
associatedMasterId = "79167EE4-8C29-4BCE-A9E7-C1CFC4557E33";
layerId = "3D22050A-974C-4B02-8A79-ED2FFEA9F9B8";
name = "13 déc. 24 à 14:17";
shapes = (
{
closed = 1;
nodes = (
(255,-8,o),
(293,16,o),
(309,49,c),
(296,86,l),
(278,63,o),
(244,46,o),
(208,46,cs),
(143,46,o),
(111,74,o),
(111,153,cs),
(111,772,l),
(-16,772,l),
(-16,714,l),
(81,714,l),
(81,140,ls),
(81,31,o),
(126,-8,o),
(205,-8,cs)
);
}
);
width = 313;
},
{
anchors = (
{
name = bottom;
pos = (191,0);
},
{
name = caroncomb.alt;
pos = (131,772);
},
{
name = top;
pos = (53,772);
}
);
associatedMasterId = "79167EE4-8C29-4BCE-A9E7-C1CFC4557E33";
background = {
shapes = (
{
closed = 0;
nodes = (
(289,93,l),
(323,28,l)
);
},
{
closed = 0;
nodes = (
(264,45,l),
(299,90,l)
);
},
{
closed = 0;
nodes = (
(282,5,l),
(316,58,l)
);
}
);
};
layerId = "58D3C3BC-5B6A-4C0B-BF52-F6BDDB7191FF";
name = "13 déc. 24 à 14:17";
shapes = (
{
closed = 1;
nodes = (
(255,-8,o),
(293,16,o),
(309,49,c),
(296,86,l),
(278,63,o),
(244,46,o),
(208,46,cs),
(143,46,o),
(111,74,o),
(111,153,cs),
(111,772,l),
(-16,772,l),
(-16,714,l),
(81,714,l),
(81,140,ls),
(81,31,o),
(126,-8,o),
(205,-8,cs)
);
}
);
width = 313;
},
{
anchors = (
{
name = bottom;
pos = (298,0);
},
{
name = caroncomb.alt;
pos = (240,772);
},
{
name = top;
pos = (149,772);
}
);
associatedMasterId = "41EDA971-A137-4972-81AF-7929AB7CAABF";
layerId = "864557E8-7D2D-4419-B181-318BDDB3647A";
name = "14 déc. 24 à 09:48";
shapes = (
{
closed = 1;
nodes = (
(375,-16,o),
(425,10,o),
(454,72,c),
(411,208,l),
(387,191,o),
(356,182,o),
(321,182,cs),
(268,182,o),
(241,205,o),
(241,256,cs),
(241,772,l),
(4,772,l),
(4,508,l),
(149,508,l),
(149,152,ls),
(149,32,o),
(209,-16,o),
(310,-16,cs)
);
}
);
width = 463;
}
);
unicode = 108;
},
{
glyphname = ldot;
lastChange = "2024-08-28 13:09:40 +0000";
layers = (
{
layerId = "79167EE4-8C29-4BCE-A9E7-C1CFC4557E33";
shapes = (
{
ref = l;
},
{
closed = 1;
nodes = (
(280,334,o),
(300,356,o),
(300,381,cs),
(300,407,o),
(280,428,o),
(253,428,cs),
(226,428,o),
(206,407,o),
(206,381,cs),
(206,356,o),
(226,334,o),
(253,334,cs)
);
}
);
width = 313;
},
{
layerId = "41EDA971-A137-4972-81AF-7929AB7CAABF";
shapes = (
{
ref = l;
},
{
closed = 1;
nodes = (
(486,251,o),
(535,288,o),
(535,360,cs),
(535,430,o),
(486,467,o),
(424,467,cs),
(363,467,o),
(314,430,o),
(314,360,cs),
(314,288,o),
(363,251,o),
(424,251,cs)
);
}
);
width = 463;
}
);
metricLeft = "=l";
unicode = 320;
},
{
glyphname = lslash;
lastChange = "2025-02-27 10:14:12 +0000";
layers = (
{
background = {
shapes = (
{
closed = 1;
nodes = (
(286,495,l),
(268,522,l),
(-9,323,l),
(8,296,l)
);
}
);
};
layerId = "79167EE4-8C29-4BCE-A9E7-C1CFC4557E33";
shapes = (
{
alignment = -1;
ref = l;
},
{
closed = 1;
nodes = (
(286,495,l),
(267,523,l),
(-9,323,l),
(10,295,l)
);
}
);
width = 313;
},
{
background = {
shapes = (
{
closed = 1;
nodes = (
(403,442,l),
(358,511,l),
(29,287,l),
(72,217,l)
);
}
);
};
layerId = "41EDA971-A137-4972-81AF-7929AB7CAABF";
shapes = (
{
alignment = -1;
ref = l;
},
{
closed = 1;
nodes = (
(403,442,l),
(358,511,l),
(29,287,l),
(72,217,l)
);
}
);
width = 463;
},
{
associatedMasterId = "41EDA971-A137-4972-81AF-7929AB7CAABF";
layerId = "02C9D56B-9EC4-4BFD-8AD2-AF99086F27AE";
name = "15 déc. 24 à 19:25";
shapes = (
{
alignment = -1;
ref = l;
},
{
closed = 1;
nodes = (
(424,438,l),
(354,550,l),
(15,322,l),
(85,209,l)
);
}
);
width = 463;
},
{
associatedMasterId = "79167EE4-8C29-4BCE-A9E7-C1CFC4557E33";
background = {
shapes = (
{
closed = 1;
nodes = (
(299,490,l),
(272,532,l),
(-8,336,l),
(19,294,l)
);
}
);
};
layerId = "8FEFBC35-CD85-4DF2-B38D-6452A09EB69C";
name = "15 déc. 24 à 19:27";
shapes = (
{
alignment = -1;
pos = (10,0);
ref = l;
},
{
closed = 1;
nodes = (
(299,490,l),
(272,532,l),
(-8,336,l),
(19,294,l)
);
}
);
width = 350;
}
);
metricLeft = "=l@100";
metricRight = "=l@100";
unicode = 322;
},
{
glyphname = m;
lastChange = "2024-12-15 13:16:25 +0000";
layers = (
{
anchors = (
{
name = top;
pos = (431,548);
}
);
background = {
anchors = (
{
name = bottom;
pos = (273,0);
},
{
name = top;
pos = (281,548);
}
);
shapes = (
{
closed = 1;
nodes = (
(446,0,l),
(446,319,ls),
(446,505,o),
(380,556,o),
(281,556,cs),
(184,556,o),
(113,502,o),
(93,405,c),
(102,382,l),
(102,548,l),
(72,548,l),
(72,0,l),
(102,0,l),
(102,314,ls),
(102,448,o),
(173,498,o),
(272,498,cs),
(377,498,o),
(416,443,o),
(416,318,cs),
(416,0,l)
);
}
);
};
layerId = "79167EE4-8C29-4BCE-A9E7-C1CFC4557E33";
shapes = (
{
closed = 1;
nodes = (
(102,0,l),
(102,314,ls),
(102,448,o),
(173,498,o),
(272,498,cs),
(377,498,o),
(416,443,o),
(416,318,cs),
(416,0,l),
(446,0,l),
(446,314,ls),
(446,448,o),
(517,498,o),
(616,498,cs),
(721,498,o),
(760,443,o),
(760,318,cs),
(760,0,l),
(790,0,l),
(790,319,ls),
(790,505,o),
(724,556,o),
(623,556,cs),
(521,556,o),
(449,496,o),
(429,389,c),
(446,378,l),
(432,516,o),
(369,556,o),
(279,556,cs),
(182,556,o),
(114,502,o),
(93,405,c),
(102,392,l),
(102,548,l),
(72,548,l),
(72,0,l)
);
}
);
width = 856;
},
{
anchors = (
{
name = top;
pos = (435,556);
}
);
layerId = "41EDA971-A137-4972-81AF-7929AB7CAABF";
shapes = (
{
closed = 1;
nodes = (
(144,0,l),
(144,198,ls),
(144,272,o),
(176,308,o),
(275,308,cs),
(360,308,o),
(389,272,o),
(389,197,cs),
(389,0,l),
(481,0,l),
(481,198,ls),
(481,272,o),
(513,308,o),
(612,308,cs),
(697,308,o),
(726,272,o),
(726,197,cs),
(726,0,l),
(818,0,l),
(818,333,ls),
(818,492,o),
(767,572,o),
(641,572,cs),
(553,572,o),
(479,536,o),
(457,426,c),
(472,429,l),
(453,525,o),
(400,572,o),
(304,572,cs),
(223,572,o),
(157,540,o),
(132,450,c),
(144,438,l),
(144,556,l),
(52,556,l),
(52,0,l)
);
}
);
width = 866;
}
);
metricLeft = "=n";
metricRight = "=n";
unicode = 109;
},
{
glyphname = n;
lastChange = "2025-02-04 13:09:09 +0000";
layers = (
{
anchors = (
{
name = bottom;
pos = (292,0);
},
{
name = top;
pos = (298,555);
}
);
layerId = "41EDA971-A137-4972-81AF-7929AB7CAABF";
name = Extralight;
shapes = (
{
closed = 1;
nodes = (
(507,0,l),
(507,333,ls),
(507,492,o),
(452,572,o),
(317,572,cs),
(232,572,o),
(158,542,o),
(132,451,c),
(144,439,l),
(144,556,l),
(52,556,l),
(52,0,l),
(144,0,l),
(144,191,ls),
(144,270,o),
(179,308,o),
(289,308,cs),
(383,308,o),
(415,270,o),
(415,190,cs),
(415,0,l)
);
}
);
width = 555;
},
{
anchors = (
{
name = bottom;
pos = (273,0);
},
{
name = top;
pos = (281,548);
}
);
background = {
shapes = (
{
closed = 1;
nodes = (
(481,0,l),
(481,319,ls),
(481,505,o),
(409,556,o),
(299,556,cs),
(184,556,o),
(105,494,o),
(97,398,c),
(102,382,l),
(102,548,l),
(72,548,l),
(72,0,l),
(102,0,l),
(102,314,ls),
(102,448,o),
(181,498,o),
(292,498,cs),
(408,498,o),
(451,443,o),
(451,318,cs),
(451,0,l)
);
}
);
};
layerId = "79167EE4-8C29-4BCE-A9E7-C1CFC4557E33";
name = Extralight;
shapes = (
{
closed = 1;
nodes = (
(481,0,l),
(481,319,ls),
(481,505,o),
(409,556,o),
(299,556,cs),
(192,556,o),
(115,502,o),
(93,405,c),
(102,382,l),
(102,548,l),
(72,548,l),
(72,0,l),
(102,0,l),
(102,314,ls),
(102,448,o),
(181,498,o),
(292,498,cs),
(408,498,o),
(451,443,o),
(451,318,cs),
(451,0,l)
);
}
);
width = 547;
}
);
unicode = 110;
},
{
glyphname = eng;
lastChange = "2025-03-04 17:12:07 +0000";
layers = (
{
background = {
anchors = (
{
name = top;
pos = (432,548);
}
);
};
layerId = "79167EE4-8C29-4BCE-A9E7-C1CFC4557E33";
shapes = (
{
alignment = -1;
pos = (1,0);
ref = n;
},
{
closed = 1;
nodes = (
(427,-204,o),
(482,-158,o),
(482,-20,cs),
(482,71,l),
(452,71,l),
(452,-15,ls),
(452,-116,o),
(426,-150,o),
(366,-150,cs),
(334,-151,o),
(304,-138,o),
(288,-117,c),
(269,-153,l),
(288,-183,o),
(314,-204,o),
(360,-204,cs)
);
}
);
width = 548;
},
{
background = {
anchors = (
{
name = top;
pos = (380,556);
}
);
};
layerId = "41EDA971-A137-4972-81AF-7929AB7CAABF";
shapes = (
{
alignment = -1;
pos = (-3,0);
ref = n;
},
{
closed = 1;
nodes = (
(450,-212,o),
(504,-155,o),
(504,-42,cs),
(504,167,l),
(412,167,l),
(412,59,ls),
(412,-7,o),
(389,-25,o),
(346,-25,cs),
(313,-25,o),
(290,-16,o),
(261,3,c),
(219,-139,l),
(247,-190,o),
(293,-212,o),
(360,-212,cs)
);
}
);
width = 552;
}
);
metricRight = "=n";
unicode = 331;
},
{
glyphname = o;
lastChange = "2024-12-15 13:17:36 +0000";
layers = (
{
anchors = (
{
name = ogonek;
pos = (327,0);
},
{
name = top;
pos = (281,548);
}
);
layerId = "79167EE4-8C29-4BCE-A9E7-C1CFC4557E33";
shapes = (
{
closed = 1;
nodes = (
(423,-8,o),
(518,97,o),
(518,274,cs),
(518,451,o),
(423,556,o),
(281,556,cs),
(137,556,o),
(42,451,o),
(42,274,cs),
(42,97,o),
(137,-8,o),
(281,-8,cs)
);
},
{
closed = 1;
nodes = (
(150,46,o),
(72,135,o),
(72,273,cs),
(72,411,o),
(150,498,o),
(281,498,cs),
(411,498,o),
(488,412,o),
(488,273,cs),
(488,134,o),
(411,46,o),
(281,46,cs)
);
}
);
width = 560;
},
{
anchors = (
{
name = ogonek;
pos = (323,0);
},
{
name = top;
pos = (273,556);
}
);
layerId = "41EDA971-A137-4972-81AF-7929AB7CAABF";
shapes = (
{
closed = 1;
nodes = (
(414,-16,o),
(524,64,o),
(524,278,cs),
(524,492,o),
(414,572,o),
(273,572,cs),
(131,572,o),
(22,492,o),
(22,278,cs),
(22,64,o),
(131,-16,o),
(273,-16,cs)
);
},
{
closed = 1;
nodes = (
(153,182,o),
(102,203,o),
(102,245,cs),
(102,287,o),
(153,308,o),
(273,308,cs),
(393,308,o),
(444,287,o),
(444,245,cs),
(444,203,o),
(393,182,o),
(273,182,cs)
);
}
);
width = 546;
}
);
unicode = 111;
},
{
glyphname = oslash;
lastChange = "2025-02-27 10:09:13 +0000";
layers = (
{
background = {
shapes = (
{
closed = 1;
nodes = (
(76,-8,l),
(509,536,l),
(484,556,l),
(51,12,l)
);
}
);
};
layerId = "79167EE4-8C29-4BCE-A9E7-C1CFC4557E33";
shapes = (
{
closed = 1;
nodes = (
(76,-8,l),
(511,535,l),
(484,556,l),
(49,13,l)
);
},
{
alignment = -1;
ref = o;
}
);
width = 560;
},
{
background = {
shapes = (
{
closed = 1;
nodes = (
(96,-33,l),
(547,510,l),
(447,597,l),
(-2,54,l)
);
}
);
};
layerId = "41EDA971-A137-4972-81AF-7929AB7CAABF";
shapes = (
{
closed = 1;
nodes = (
(77,-16,l),
(538,518,l),
(476,572,l),
(15,38,l)
);
},
{
alignment = -1;
ref = o;
}
);
width = 546;
},
{
associatedMasterId = "41EDA971-A137-4972-81AF-7929AB7CAABF";
layerId = "F6D58C5C-7048-4896-B9C6-91F28A5AF1D7";
name = "15 déc. 24 à 19:25";
shapes = (
{
closed = 1;
nodes = (
(96,-33,l),
(547,510,l),
(447,597,l),
(-2,54,l)
);
},
{
alignment = -1;
ref = o;
}
);
width = 546;
},
{
associatedMasterId = "79167EE4-8C29-4BCE-A9E7-C1CFC4557E33";
background = {
shapes = (
{
closed = 1;
nodes = (
(42,0,l),
(518,0,l),
(518,548,l),
(42,548,l)
);
}
);
};
layerId = "733678AC-91D1-44A9-BF29-CEDB18F4CF1D";
name = "15 déc. 24 à 19:28";
shapes = (
{
closed = 1;
nodes = (
(76,-8,l),
(518,525,l),
(484,556,l),
(42,23,l)
);
},
{
alignment = -1;
ref = o;
}
);
width = 560;
},
{
associatedMasterId = "79167EE4-8C29-4BCE-A9E7-C1CFC4557E33";
background = {
shapes = (
{
closed = 1;
nodes = (
(76,-8,l),
(512,533,l),
(484,556,l),
(48,15,l)
);
}
);
};
layerId = "3C539979-7276-498E-85C8-25DB8D25B7C8";
name = "27 févr. 25 à 11:09";
shapes = (
{
closed = 1;
nodes = (
(76,-8,l),
(509,536,l),
(484,556,l),
(51,12,l)
);
},
{
alignment = -1;
ref = o;
}
);
width = 560;
}
);
metricLeft = "=o@274";
metricRight = "=o@274";
unicode = 248;
},
{
glyphname = p;
lastChange = "2024-12-15 13:18:19 +0000";
layers = (
{
anchors = (
{
name = top;
pos = (315,548);
}
);
layerId = "79167EE4-8C29-4BCE-A9E7-C1CFC4557E33";
shapes = (
{
closed = 1;
nodes = (
(442,-8,o),
(532,97,o),
(532,274,cs),
(532,451,o),
(444,556,o),
(312,556,cs),
(174,556,o),
(80,453,o),
(80,291,cs),
(80,258,ls),
(80,96,o),
(171,-8,o),
(307,-8,cs)
);
},
{
closed = 1;
nodes = (
(102,-196,l),
(102,153,l),
(101,182,l),
(101,360,l),
(102,401,l),
(102,548,l),
(72,548,l),
(72,-196,l)
);
},
{
closed = 1;
nodes = (
(176,46,o),
(101,135,o),
(101,273,cs),
(101,411,o),
(176,498,o),
(302,498,cs),
(428,498,o),
(502,412,o),
(502,273,cs),
(502,134,o),
(428,46,o),
(302,46,cs)
);
}
);
width = 574;
},
{
anchors = (
{
name = top;
pos = (308,556);
}
);
layerId = "41EDA971-A137-4972-81AF-7929AB7CAABF";
shapes = (
{
closed = 1;
nodes = (
(447,-16,o),
(550,64,o),
(550,278,cs),
(550,492,o),
(450,572,o),
(320,572,cs),
(208,572,o),
(121,523,o),
(121,366,cs),
(121,190,ls),
(121,33,o),
(206,-16,o),
(315,-16,cs)
);
},
{
closed = 1;
nodes = (
(144,-193,l),
(144,99,l),
(136,122,l),
(136,387,l),
(144,410,l),
(144,556,l),
(52,556,l),
(52,-193,l)
);
},
{
closed = 1;
nodes = (
(180,182,o),
(136,203,o),
(136,246,cs),
(136,290,o),
(180,308,o),
(301,308,cs),
(421,308,o),
(471,290,o),
(471,246,cs),
(471,203,o),
(422,182,o),
(301,182,cs)
);
}
);
width = 572;
}
);
metricLeft = "=n";
metricRight = "=o";
unicode = 112;
},
{
glyphname = thorn;
lastChange = "2024-08-28 13:43:58 +0000";
layers = (
{
layerId = "79167EE4-8C29-4BCE-A9E7-C1CFC4557E33";
shapes = (
{
closed = 1;
nodes = (
(102,532,l),
(102,780,l),
(72,780,l),
(72,532,l)
);
},
{
alignment = -1;
pos = (1,0);
ref = p;
}
);
width = 575;
},
{
layerId = "41EDA971-A137-4972-81AF-7929AB7CAABF";
shapes = (
{
closed = 1;
nodes = (
(146,403,l),
(146,772,l),
(54,772,l),
(54,403,l)
);
},
{
alignment = -1;
ref = p;
}
);
width = 572;
}
);
metricLeft = "=p";
metricRight = "=p";
unicode = 254;
},
{
glyphname = q;
lastChange = "2024-12-12 13:50:16 +0000";
layers = (
{
background = {
shapes = (
{
closed = 1;
nodes = (
(405,-8,o),
(494,96,o),
(494,258,cs),
(494,291,ls),
(494,453,o),
(402,556,o),
(267,556,cs),
(138,556,o),
(52,451,o),
(52,274,cs),
(52,97,o),
(140,-8,o),
(272,-8,cs)
);
},
{
closed = 1;
nodes = (
(154,46,o),
(82,134,o),
(82,273,cs),
(82,412,o),
(154,498,o),
(277,498,cs),
(400,498,o),
(473,411,o),
(473,273,cs),
(473,135,o),
(400,46,o),
(277,46,cs)
);
},
{
closed = 1;
nodes = (
(502,-192,l),
(502,548,l),
(472,548,l),
(472,401,l),
(473,360,l),
(473,182,l),
(472,153,l),
(472,-192,l)
);
}
);
};
layerId = "79167EE4-8C29-4BCE-A9E7-C1CFC4557E33";
shapes = (
{
closed = 1;
nodes = (
(403,-8,o),
(494,96,o),
(494,258,cs),
(494,291,ls),
(494,453,o),
(404,556,o),
(272,556,cs),
(134,556,o),
(42,451,o),
(42,274,cs),
(42,97,o),
(132,-8,o),
(274,-8,cs)
);
},
{
closed = 1;
nodes = (
(146,46,o),
(72,134,o),
(72,273,cs),
(72,412,o),
(146,498,o),
(272,498,cs),
(398,498,o),
(473,411,o),
(473,273,cs),
(473,135,o),
(398,46,o),
(272,46,cs)
);
},
{
closed = 1;
nodes = (
(502,-192,l),
(502,548,l),
(472,548,l),
(472,401,l),
(473,360,l),
(473,182,l),
(472,153,l),
(472,-192,l)
);
}
);
width = 574;
},
{
layerId = "41EDA971-A137-4972-81AF-7929AB7CAABF";
shapes = (
{
closed = 1;
nodes = (
(366,-16,o),
(451,33,o),
(451,190,cs),
(451,366,ls),
(451,523,o),
(368,572,o),
(262,572,cs),
(126,572,o),
(22,490,o),
(22,268,cs),
(22,62,o),
(125,-16,o),
(257,-16,cs)
);
},
{
closed = 1;
nodes = (
(149,182,o),
(100,203,o),
(100,246,cs),
(100,290,o),
(150,308,o),
(271,308,cs),
(392,308,o),
(436,290,o),
(436,246,cs),
(436,203,o),
(392,182,o),
(271,182,cs)
);
},
{
closed = 1;
nodes = (
(520,-196,l),
(520,556,l),
(428,556,l),
(428,410,l),
(436,387,l),
(436,122,l),
(428,99,l),
(428,-196,l)
);
}
);
width = 572;
}
);
metricLeft = "=o";
metricRight = "=|n";
unicode = 113;
},
